{
.appVersion = "1141";
copyright = "Copyright © 2018 by Cadson Demak Co.,Ltd.. All rights reserved.";
customParameters = (
{
name = vendorID;
value = CDK;
},
{
name = description;
value = "Copyright (c) 2018, Cadson Demak (info@cadsondemak.com)";
},
{
name = license;

glyphs = (
{
glyphname = A;
lastChange = "2018-06-29 10:24:33 +0000";
layers = (
{
anchors = (
{
name = bottom;
position = "{189, 0}";
},
{
name = ogonek;
position = "{374, 8}";
},
{
name = top;
position = "{329, 560}";
}
);
background = {
paths = (
{
closed = 1;
nodes = (
"483 -10 OFFCURVE",
"540 27 OFFCURVE",
"575 83 CURVE SMOOTH",
"580 91 OFFCURVE",
"584 102 OFFCURVE",
"584 111 CURVE SMOOTH",
"584 117 OFFCURVE",
"581 121 OFFCURVE",
"575 121 CURVE SMOOTH",
"560 121 OFFCURVE",
"536 89 OFFCURVE",
"506 89 CURVE SMOOTH",
"489 89 OFFCURVE",
"481 98 OFFCURVE",
"478 122 CURVE SMOOTH",
"473 158 OFFCURVE",
"465 221 OFFCURVE",
"465 323 CURVE SMOOTH",
"465 502 OFFCURVE",
"485 633 OFFCURVE",
"523 699 CURVE",
"523 700 LINE",
"505 694 OFFCURVE",
"483 689 OFFCURVE",
"450 689 CURVE SMOOTH",
"395 689 OFFCURVE",
"335 710 OFFCURVE",
"278 710 CURVE SMOOTH",
"172 710 OFFCURVE",
"85 649 OFFCURVE",
"68 564 CURVE SMOOTH",
"67 559 OFFCURVE",
"66 552 OFFCURVE",
"66 547 CURVE SMOOTH",
"66 539 OFFCURVE",
"70 535 OFFCURVE",
"76 535 CURVE SMOOTH",
"85 535 OFFCURVE",
"88 542 OFFCURVE",
"96 555 CURVE SMOOTH",
"129 609 OFFCURVE",
"180 636 OFFCURVE",
"257 636 CURVE SMOOTH",
"278 636 OFFCURVE",
"321 626 OFFCURVE",
"341 626 CURVE",
"341 625 LINE",
"267 569 OFFCURVE",
"218 453 OFFCURVE",
"176 321 CURVE SMOOTH",
"130 179 OFFCURVE",
"92 100 OFFCURVE",
"17 75 CURVE SMOOTH",
"6 71 OFFCURVE",
"-5 69 OFFCURVE",
"-13 65 CURVE SMOOTH",
"-30 56 OFFCURVE",
"-42 21 OFFCURVE",
"-42 10 CURVE SMOOTH",
"-42 4 OFFCURVE",
"-38 0 OFFCURVE",
"-32 0 CURVE SMOOTH",
"-19 0 OFFCURVE",
"1 16 OFFCURVE",
"29 16 CURVE SMOOTH",
"50 16 OFFCURVE",
"98 0 OFFCURVE",
"116 0 CURVE SMOOTH",
"146 0 OFFCURVE",
"168 14 OFFCURVE",
"194 50 CURVE SMOOTH",
"201 60 OFFCURVE",
"204 70 OFFCURVE",
"204 76 CURVE SMOOTH",
"204 82 OFFCURVE",
"202 86 OFFCURVE",
"195 86 CURVE SMOOTH",
"187 86 OFFCURVE",
"172 76 OFFCURVE",
"153 76 CURVE SMOOTH",
"144 76 OFFCURVE",
"131 80 OFFCURVE",
"124 83 CURVE",
"124 84 LINE",
"170 109 OFFCURVE",
"211 162 OFFCURVE",
"234 226 CURVE",
"343 226 LINE",
"359 232 LINE",
"360 178 OFFCURVE",
"361 114 OFFCURVE",
"371 60 CURVE SMOOTH",
"380 14 OFFCURVE",
"399 -10 OFFCURVE",
"433 -10 CURVE SMOOTH"
);
},
{
closed = 1;
nodes = (
"269 342 LINE SMOOTH",
"295 462 OFFCURVE",
"336 548 OFFCURVE",
"390 593 CURVE",
"391 593 LINE",
"373 506 OFFCURVE",
"361 401 OFFCURVE",
"359 310 CURVE",
"262 310 LINE"
);
}
);
};
layerId = "56450C88-1299-454A-B666-E6F9AF06B23F";
paths = (
{
closed = 1;
nodes = (
"381 -8 OFFCURVE",
"430 28 OFFCURVE",
"452 66 CURVE SMOOTH",
"456 74 OFFCURVE",
"459 81 OFFCURVE",
"459 88 CURVE SMOOTH",
"459 93 OFFCURVE",
"458 97 OFFCURVE",
"454 97 CURVE SMOOTH",
"443 97 OFFCURVE",
"422 71 OFFCURVE",
"397 71 CURVE SMOOTH",
"383 71 OFFCURVE",
"377 78 OFFCURVE",
"374 98 CURVE SMOOTH",
"370 126 OFFCURVE",
"364 175 OFFCURVE",
"364 262 CURVE SMOOTH",
"364 400 OFFCURVE",
"380 506 OFFCURVE",
"410 559 CURVE",
"410 560 LINE",
"396 555 OFFCURVE",
"378 551 OFFCURVE",
"354 551 CURVE SMOOTH",
"306 551 OFFCURVE",
"262 568 OFFCURVE",
"214 568 CURVE SMOOTH",
"127 568 OFFCURVE",
"58 514 OFFCURVE",
"46 451 CURVE SMOOTH",
"46 447 OFFCURVE",
"45 442 OFFCURVE",
"45 438 CURVE SMOOTH",
"45 431 OFFCURVE",
"48 428 OFFCURVE",
"53 428 CURVE SMOOTH",
"60 428 OFFCURVE",
"62 434 OFFCURVE",
"69 444 CURVE SMOOTH",
"95 486 OFFCURVE",
"138 509 OFFCURVE",
"190 509 CURVE SMOOTH",
"222 509 OFFCURVE",
"246 501 OFFCURVE",
"265 501 CURVE",
"265 500 LINE",
"198 446 OFFCURVE",
"169 362 OFFCURVE",
"133 257 CURVE SMOOTH",
"94 145 OFFCURVE",
"71 83 OFFCURVE",
"6 60 CURVE SMOOTH",
"-5 57 OFFCURVE",
"-14 54 OFFCURVE",
"-18 52 CURVE SMOOTH",
"-32 45 OFFCURVE",
"-42 17 OFFCURVE",
"-42 8 CURVE SMOOTH",
"-42 3 OFFCURVE",
"-38 0 OFFCURVE",
"-34 0 CURVE SMOOTH",
"-24 0 OFFCURVE",
"-6 13 OFFCURVE",
"14 13 CURVE SMOOTH",
"34 13 OFFCURVE",
"67 0 OFFCURVE",
"86 0 CURVE SMOOTH",
"106 0 OFFCURVE",
"129 12 OFFCURVE",
"147 40 CURVE SMOOTH",
"153 49 OFFCURVE",
"155 54 OFFCURVE",
"155 61 CURVE SMOOTH",
"155 65 OFFCURVE",
"154 69 OFFCURVE",
"150 69 CURVE SMOOTH",
"142 69 OFFCURVE",
"129 61 OFFCURVE",
"115 61 CURVE SMOOTH",
"106 61 OFFCURVE",
"97 64 OFFCURVE",
"91 66 CURVE",
"91 67 LINE",
"128 87 OFFCURVE",
"161 130 OFFCURVE",
"179 181 CURVE",
"263 181 LINE",
"279 189 LINE",
"280 148 OFFCURVE",
"281 90 OFFCURVE",
"290 48 CURVE SMOOTH",
"298 10 OFFCURVE",
"312 -8 OFFCURVE",
"340 -8 CURVE SMOOTH"
);
},
{
closed = 1;
nodes = (
"207 274 LINE SMOOTH",
"228 370 OFFCURVE",
"262 441 OFFCURVE",
"308 478 CURVE",
"309 478 LINE",
"290 410 OFFCURVE",
"282 345 OFFCURVE",
"279 248 CURVE",
"202 248 LINE"
);
}
);
width = 464;
},
{
anchors = (
{
name = bottom;
position = "{186, 0}";
},
{
name = ogonek;
position = "{382, 13}";
},
{
name = top;
position = "{337, 560}";
}
);
background = {
paths = (
{
closed = 1;
nodes = (
"375 -8 OFFCURVE",
"414 22 OFFCURVE",
"434 58 CURVE SMOOTH",
"438 63 OFFCURVE",
"439 66 OFFCURVE",
"439 70 CURVE SMOOTH",
"439 74 OFFCURVE",
"437 77 OFFCURVE",
"434 77 CURVE SMOOTH",
"423 77 OFFCURVE",
"398 50 OFFCURVE",
"378 50 CURVE SMOOTH",
"360 50 OFFCURVE",
"355 69 OFFCURVE",
"353 97 CURVE SMOOTH",
"350 124 OFFCURVE",
"348 200 OFFCURVE",
"348 255 CURVE SMOOTH",
"348 412 OFFCURVE",
"367 512 OFFCURVE",
"394 559 CURVE",
"394 560 LINE",
"378 554 OFFCURVE",
"366 551 OFFCURVE",
"350 551 CURVE SMOOTH",
"310 551 OFFCURVE",
"263 568 OFFCURVE",
"218 568 CURVE SMOOTH",
"125 568 OFFCURVE",
"71 495 OFFCURVE",
"62 459 CURVE SMOOTH",
"62 456 OFFCURVE",
"62 454 OFFCURVE",
"62 451 CURVE SMOOTH",
"62 448 OFFCURVE",
"63 444 OFFCURVE",
"67 444 CURVE SMOOTH",
"70 444 OFFCURVE",
"74 447 OFFCURVE",
"80 457 CURVE SMOOTH",
"115 507 OFFCURVE",
"144 526 OFFCURVE",
"208 526 CURVE SMOOTH",
"249 526 OFFCURVE",
"258 518 OFFCURVE",
"286 516 CURVE",
"286 515 LINE",
"217 471 OFFCURVE",
"181 370 OFFCURVE",
"143 262 CURVE SMOOTH",
"110 167 OFFCURVE",
"75 70 OFFCURVE",
"8 44 CURVE SMOOTH",
"-3 40 OFFCURVE",
"-8 41 OFFCURVE",
"-12 38 CURVE SMOOTH",
"-22 34 OFFCURVE",
"-34 14 OFFCURVE",
"-34 4 CURVE SMOOTH",
"-34 1 OFFCURVE",
"-32 0 OFFCURVE",
"-30 0 CURVE SMOOTH",
"-20 0 OFFCURVE",
"-10 13 OFFCURVE",
"11 13 CURVE SMOOTH",
"31 13 OFFCURVE",
"50 0 OFFCURVE",
"70 0 CURVE SMOOTH",
"87 0 OFFCURVE",
"107 9 OFFCURVE",
"125 27 CURVE SMOOTH",
"133 36 OFFCURVE",
"136 41 OFFCURVE",
"136 46 CURVE SMOOTH",
"136 49 OFFCURVE",
"134 50 OFFCURVE",
"131 50 CURVE SMOOTH",
"123 50 OFFCURVE",
"114 42 OFFCURVE",
"94 42 CURVE SMOOTH",
"88 42 OFFCURVE",
"85 43 OFFCURVE",
"74 47 CURVE",
"74 48 LINE",
"112 74 OFFCURVE",
"146 129 OFFCURVE",
"169 190 CURVE",
"268 190 LINE",
"288 206 LINE",
"288 148 OFFCURVE",
"289 86 OFFCURVE",
"295 47 CURVE SMOOTH",
"300 18 OFFCURVE",
"311 -8 OFFCURVE",
"342 -8 CURVE SMOOTH"
);
},
{
closed = 1;
nodes = (
"193 266 LINE SMOOTH",
"242 414 OFFCURVE",
"278 485 OFFCURVE",
"321 504 CURVE",
"322 504 LINE",
"303 443 OFFCURVE",
"290 337 OFFCURVE",
"289 239 CURVE",
"184 239 LINE"
);
}
);
};
layerId = "0B1DFD06-3317-40CA-B510-4969A0718C16";
paths = (
{
closed = 1;
nodes = (
"375 -8 OFFCURVE",
"414 22 OFFCURVE",
"434 58 CURVE SMOOTH",
"438 65 OFFCURVE",
"439 69 OFFCURVE",
"439 73 CURVE SMOOTH",
"439 76 OFFCURVE",
"437 77 OFFCURVE",
"434 77 CURVE SMOOTH",
"423 77 OFFCURVE",
"398 50 OFFCURVE",
"378 50 CURVE SMOOTH",
"360 50 OFFCURVE",
"355 69 OFFCURVE",
"353 97 CURVE SMOOTH",
"350 124 OFFCURVE",
"348 200 OFFCURVE",
"348 255 CURVE SMOOTH",
"348 412 OFFCURVE",
"367 512 OFFCURVE",
"394 559 CURVE",
"394 560 LINE",
"378 554 OFFCURVE",
"366 551 OFFCURVE",
"350 551 CURVE SMOOTH",
"310 551 OFFCURVE",
"263 568 OFFCURVE",
"218 568 CURVE SMOOTH",
"141 568 OFFCURVE",
"78 524 OFFCURVE",
"62 459 CURVE SMOOTH",
"61 455 OFFCURVE",
"61 452 OFFCURVE",
"61 451 CURVE SMOOTH",
"61 447 OFFCURVE",
"62 444 OFFCURVE",
"66 444 CURVE SMOOTH",
"70 444 OFFCURVE",
"73 448 OFFCURVE",
"79 457 CURVE SMOOTH",
"113 506 OFFCURVE",
"149 526 OFFCURVE",
"207 526 CURVE SMOOTH",
"246 526 OFFCURVE",
"264 519 OFFCURVE",
"286 516 CURVE",
"286 515 LINE",
"217 471 OFFCURVE",
"181 370 OFFCURVE",
"143 262 CURVE SMOOTH",
"110 167 OFFCURVE",
"75 70 OFFCURVE",
"8 44 CURVE SMOOTH",
"-3 40 OFFCURVE",
"-4 42 OFFCURVE",
"-12 38 CURVE SMOOTH",
"-24 32 OFFCURVE",
"-34 14 OFFCURVE",
"-34 4 CURVE SMOOTH",
"-34 1 OFFCURVE",
"-32 0 OFFCURVE",
"-30 0 CURVE SMOOTH",
"-20 0 OFFCURVE",
"-10 13 OFFCURVE",
"11 13 CURVE SMOOTH",
"31 13 OFFCURVE",
"50 0 OFFCURVE",
"70 0 CURVE SMOOTH",
"87 0 OFFCURVE",
"107 9 OFFCURVE",
"125 27 CURVE SMOOTH",
"133 36 OFFCURVE",
"136 41 OFFCURVE",
"136 46 CURVE SMOOTH",
"136 49 OFFCURVE",
"134 50 OFFCURVE",
"131 50 CURVE SMOOTH",
"123 50 OFFCURVE",
"114 42 OFFCURVE",
"94 42 CURVE SMOOTH",
"88 42 OFFCURVE",
"83 43 OFFCURVE",
"74 47 CURVE",
"74 48 LINE",
"112 74 OFFCURVE",
"146 129 OFFCURVE",
"169 190 CURVE",
"268 190 LINE",
"288 206 LINE",
"288 148 OFFCURVE",
"289 86 OFFCURVE",
"295 47 CURVE SMOOTH",
"300 18 OFFCURVE",
"311 -8 OFFCURVE",
"342 -8 CURVE SMOOTH"
);
},
{
closed = 1;
nodes = (
"193 266 LINE SMOOTH",
"242 413 OFFCURVE",
"278 485 OFFCURVE",
"321 504 CURVE",
"322 504 LINE",
"303 443 OFFCURVE",
"290 337 OFFCURVE",
"289 239 CURVE",
"184 239 LINE"
);
}
);
width = 452;
}
);
leftKerningGroup = A;
note = A;
rightKerningGroup = A;
unicode = 0041;
},
{
glyphname = B;
lastChange = "2018-06-29 10:28:41 +0000";
layers = (
{
anchors = (
{
name = bottom;
position = "{217, 0}";
},
{
name = top;
position = "{281, 560}";
}
);
background = {
paths = (
{
closed = 1;
nodes = (
"65 0 OFFCURVE",
"95 15 OFFCURVE",
"129 15 CURVE SMOOTH",
"163 15 OFFCURVE",
"238 0 OFFCURVE",
"284 0 CURVE SMOOTH",
"416 0 OFFCURVE",
"555 84 OFFCURVE",
"555 221 CURVE SMOOTH",
"555 280 OFFCURVE",
"517 340 OFFCURVE",
"452 380 CURVE",
"523 422 OFFCURVE",
"566 484 OFFCURVE",
"566 554 CURVE SMOOTH",
"566 657 OFFCURVE",
"496 710 OFFCURVE",
"353 710 CURVE SMOOTH",
"215 710 OFFCURVE",
"97 643 OFFCURVE",
"53 545 CURVE SMOOTH",
"49 536 OFFCURVE",
"48 529 OFFCURVE",
"48 524 CURVE SMOOTH",
"48 516 OFFCURVE",
"52 511 OFFCURVE",
"60 511 CURVE SMOOTH",
"72 511 OFFCURVE",
"78 518 OFFCURVE",
"93 535 CURVE SMOOTH",
"150 600 OFFCURVE",
"229 634 OFFCURVE",
"322 634 CURVE SMOOTH",
"408 634 OFFCURVE",
"448 603 OFFCURVE",
"448 535 CURVE SMOOTH",
"448 467 OFFCURVE",
"409 411 OFFCURVE",
"350 397 CURVE",
"266 397 LINE",
"281 501 LINE SMOOTH",
"289 556 OFFCURVE",
"308 564 OFFCURVE",
"308 579 CURVE SMOOTH",
"308 587 OFFCURVE",
"304 593 OFFCURVE",
"289 593 CURVE SMOOTH",
"237 593 OFFCURVE",
"185 547 OFFCURVE",
"179 509 CURVE SMOOTH",
"123 140 LINE SMOOTH",
"120 120 OFFCURVE",
"115 101 OFFCURVE",
"84 79 CURVE SMOOTH",
"55 59 OFFCURVE",
"42 36 OFFCURVE",
"42 10 CURVE SMOOTH",
"42 4 OFFCURVE",
"46 0 OFFCURVE",
"52 0 CURVE SMOOTH"
);
},
{
closed = 1;
nodes = (
"266 88 OFFCURVE",
"231 92 OFFCURVE",
"212 98 CURVE",
"211 99 LINE",
"221 113 OFFCURVE",
"225 124 OFFCURVE",
"228 145 CURVE SMOOTH",
"253 319 LINE",
"357 319 LINE",
"409 292 OFFCURVE",
"439 247 OFFCURVE",
"439 198 CURVE SMOOTH",
"439 123 OFFCURVE",
"390 88 OFFCURVE",
"306 88 CURVE SMOOTH"
);
}
);
};
layerId = "56450C88-1299-454A-B666-E6F9AF06B23F";
paths = (
{
closed = 1;
nodes = (
"45 0 OFFCURVE",
"67 12 OFFCURVE",
"95 12 CURVE SMOOTH",
"123 12 OFFCURVE",
"179 0 OFFCURVE",
"222 0 CURVE SMOOTH",
"325 0 OFFCURVE",
"436 70 OFFCURVE",
"436 173 CURVE SMOOTH",
"436 227 OFFCURVE",
"405 272 OFFCURVE",
"354 304 CURVE",
"412 339 OFFCURVE",
"445 386 OFFCURVE",
"445 446 CURVE SMOOTH",
"445 526 OFFCURVE",
"384 568 OFFCURVE",
"280 568 CURVE SMOOTH",
"152 568 OFFCURVE",
"62 504 OFFCURVE",
"34 436 CURVE SMOOTH",
"32 430 OFFCURVE",
"30 424 OFFCURVE",
"30 419 CURVE SMOOTH",
"30 413 OFFCURVE",
"34 409 OFFCURVE",
"38 409 CURVE SMOOTH",
"45 409 OFFCURVE",
"52 414 OFFCURVE",
"65 428 CURVE SMOOTH",
"94 458 OFFCURVE",
"146 507 OFFCURVE",
"247 507 CURVE SMOOTH",
"318 507 OFFCURVE",
"350 483 OFFCURVE",
"350 428 CURVE SMOOTH",
"350 374 OFFCURVE",
"319 328 OFFCURVE",
"272 317 CURVE",
"205 317 LINE",
"217 401 LINE SMOOTH",
"224 450 OFFCURVE",
"236 454 OFFCURVE",
"236 466 CURVE SMOOTH",
"236 472 OFFCURVE",
"234 474 OFFCURVE",
"223 474 CURVE SMOOTH",
"184 474 OFFCURVE",
"140 438 OFFCURVE",
"135 407 CURVE SMOOTH",
"90 112 LINE SMOOTH",
"86 86 OFFCURVE",
"79 79 OFFCURVE",
"59 63 CURVE SMOOTH",
"43 50 OFFCURVE",
"26 35 OFFCURVE",
"26 11 CURVE SMOOTH",
"26 4 OFFCURVE",
"27 0 OFFCURVE",
"34 0 CURVE SMOOTH"
);
},
{
closed = 1;
nodes = (
"207 70 OFFCURVE",
"177 74 OFFCURVE",
"162 78 CURVE",
"161 79 LINE",
"169 90 OFFCURVE",
"172 99 OFFCURVE",
"174 116 CURVE SMOOTH",
"194 256 LINE",
"278 256 LINE",
"318 234 OFFCURVE",
"343 201 OFFCURVE",
"343 155 CURVE SMOOTH",
"343 98 OFFCURVE",
"304 70 OFFCURVE",
"232 70 CURVE SMOOTH"
);
}
);
width = 466;
},
{
anchors = (
{
name = bottom;
position = "{196, 0}";
},
{
name = top;
position = "{261, 560}";
}
);
background = {
paths = (
{
closed = 1;
nodes = (
"51 0 OFFCURVE",
"59 12 OFFCURVE",
"86 12 CURVE SMOOTH",
"113 12 OFFCURVE",
"154 0 OFFCURVE",
"205 0 CURVE SMOOTH",
"320 0 OFFCURVE",
"405 64 OFFCURVE",
"405 164 CURVE SMOOTH",
"405 222 OFFCURVE",
"376 268 OFFCURVE",
"315 302 CURVE",
"379 336 OFFCURVE",
"418 394 OFFCURVE",
"418 453 CURVE SMOOTH",
"418 526 OFFCURVE",
"356 568 OFFCURVE",
"260 568 CURVE SMOOTH",
"142 568 OFFCURVE",
"50 504 OFFCURVE",
"34 439 CURVE SMOOTH",
"34 436 OFFCURVE",
"34 434 OFFCURVE",
"34 431 CURVE SMOOTH",
"34 427 OFFCURVE",
"35 424 OFFCURVE",
"40 424 CURVE SMOOTH",
"46 424 OFFCURVE",
"52 431 OFFCURVE",
"59 441 CURVE SMOOTH",
"104 499 OFFCURVE",
"166 522 OFFCURVE",
"234 522 CURVE SMOOTH",
"315 522 OFFCURVE",
"359 490 OFFCURVE",
"359 435 CURVE SMOOTH",
"359 383 OFFCURVE",
"320 326 OFFCURVE",
"256 309 CURVE",
"186 309 LINE",
"204 430 LINE SMOOTH",
"210 469 OFFCURVE",
"224 474 OFFCURVE",
"224 481 CURVE SMOOTH",
"224 484 OFFCURVE",
"221 486 OFFCURVE",
"215 486 CURVE SMOOTH",
"190 486 OFFCURVE",
"151 452 OFFCURVE",
"147 426 CURVE SMOOTH",
"98 96 LINE SMOOTH",
"95 77 OFFCURVE",
"89 62 OFFCURVE",
"63 43 CURVE SMOOTH",
"46 31 OFFCURVE",
"34 19 OFFCURVE",
"34 6 CURVE SMOOTH",
"34 2 OFFCURVE",
"35 0 OFFCURVE",
"40 0 CURVE SMOOTH"
);
},
{
closed = 1;
nodes = (
"194 48 OFFCURVE",
"154 50 OFFCURVE",
"133 56 CURVE",
"133 57 LINE",
"146 70 OFFCURVE",
"152 83 OFFCURVE",
"156 110 CURVE SMOOTH",
"180 270 LINE",
"262 270 LINE",
"318 246 OFFCURVE",
"347 203 OFFCURVE",
"347 146 CURVE SMOOTH",
"347 78 OFFCURVE",
"306 48 OFFCURVE",
"218 48 CURVE SMOOTH"
);
}
);
};
layerId = "0B1DFD06-3317-40CA-B510-4969A0718C16";
paths = (
{
closed = 1;
nodes = (
"51 0 OFFCURVE",
"59 12 OFFCURVE",
"86 12 CURVE SMOOTH",
"113 12 OFFCURVE",
"154 0 OFFCURVE",
"205 0 CURVE SMOOTH",
"320 0 OFFCURVE",
"405 64 OFFCURVE",
"405 164 CURVE SMOOTH",
"405 222 OFFCURVE",
"376 268 OFFCURVE",
"315 302 CURVE",
"379 336 OFFCURVE",
"418 394 OFFCURVE",
"418 453 CURVE SMOOTH",
"418 526 OFFCURVE",
"356 568 OFFCURVE",
"260 568 CURVE SMOOTH",
"147 568 OFFCURVE",
"61 518 OFFCURVE",
"35 442 CURVE SMOOTH",
"33 435 OFFCURVE",
"33 433 OFFCURVE",
"33 431 CURVE SMOOTH",
"33 427 OFFCURVE",
"35 424 OFFCURVE",
"40 424 CURVE SMOOTH",
"46 424 OFFCURVE",
"51 431 OFFCURVE",
"59 441 CURVE SMOOTH",
"105 500 OFFCURVE",
"166 522 OFFCURVE",
"234 522 CURVE SMOOTH",
"315 522 OFFCURVE",
"359 490 OFFCURVE",
"359 435 CURVE SMOOTH",
"359 383 OFFCURVE",
"320 326 OFFCURVE",
"256 309 CURVE",
"186 309 LINE",
"204 430 LINE SMOOTH",
"210 469 OFFCURVE",
"224 474 OFFCURVE",
"224 481 CURVE SMOOTH",
"224 484 OFFCURVE",
"221 486 OFFCURVE",
"215 486 CURVE SMOOTH",
"190 486 OFFCURVE",
"151 452 OFFCURVE",
"147 426 CURVE SMOOTH",
"98 96 LINE SMOOTH",
"95 77 OFFCURVE",
"89 62 OFFCURVE",
"63 43 CURVE SMOOTH",
"46 31 OFFCURVE",
"34 19 OFFCURVE",
"34 6 CURVE SMOOTH",
"34 2 OFFCURVE",
"36 0 OFFCURVE",
"40 0 CURVE SMOOTH"
);
},
{
closed = 1;
nodes = (
"194 48 OFFCURVE",
"154 50 OFFCURVE",
"133 56 CURVE",
"133 57 LINE",
"146 70 OFFCURVE",
"152 83 OFFCURVE",
"156 110 CURVE SMOOTH",
"180 270 LINE",
"262 270 LINE",
"318 246 OFFCURVE",
"347 203 OFFCURVE",
"347 146 CURVE SMOOTH",
"347 78 OFFCURVE",
"306 48 OFFCURVE",
"218 48 CURVE SMOOTH"
);
}
);
width = 447;
}
);
note = B;
unicode = 0042;
},
{
glyphname = C;
lastChange = "2018-06-29 11:04:54 +0000";
layers = (
{
anchors = (
{
name = bottom;
position = "{204, 0}";
},
{
name = top;
position = "{356, 560}";
}
);
background = {
paths = (
{
closed = 1;
nodes = (
"379 -10 OFFCURVE",
"478 66 OFFCURVE",
"510 181 CURVE SMOOTH",
"519 213 OFFCURVE",
"518 224 OFFCURVE",
"505 224 CURVE SMOOTH",
"497 224 OFFCURVE",
"491 217 OFFCURVE",
"485 206 CURVE SMOOTH",
"438 121 OFFCURVE",
"382 82 OFFCURVE",
"308 82 CURVE SMOOTH",
"224 82 OFFCURVE",
"182 145 OFFCURVE",
"182 265 CURVE SMOOTH",
"182 486 OFFCURVE",
"273 634 OFFCURVE",
"409 634 CURVE SMOOTH",
"463 634 OFFCURVE",
"496 613 OFFCURVE",
"504 572 CURVE SMOOTH",
"511 537 OFFCURVE",
"513 526 OFFCURVE",
"530 526 CURVE SMOOTH",
"544 526 OFFCURVE",
"556 543 OFFCURVE",
"564 557 CURVE SMOOTH",
"577 580 OFFCURVE",
"583 599 OFFCURVE",
"583 624 CURVE SMOOTH",
"583 678 OFFCURVE",
"529 710 OFFCURVE",
"433 710 CURVE SMOOTH",
"260 710 OFFCURVE",
"62 537 OFFCURVE",
"62 235 CURVE SMOOTH",
"62 81 OFFCURVE",
"137 -10 OFFCURVE",
"263 -10 CURVE SMOOTH"
);
}
);
};
layerId = "56450C88-1299-454A-B666-E6F9AF06B23F";
paths = (
{
closed = 1;
nodes = (
"294 -8 OFFCURVE",
"372 50 OFFCURVE",
"400 145 CURVE SMOOTH",
"408 172 OFFCURVE",
"405 179 OFFCURVE",
"397 179 CURVE SMOOTH",
"390 179 OFFCURVE",
"385 174 OFFCURVE",
"380 165 CURVE SMOOTH",
"357 126 OFFCURVE",
"319 66 OFFCURVE",
"240 66 CURVE SMOOTH",
"167 66 OFFCURVE",
"138 116 OFFCURVE",
"138 222 CURVE SMOOTH",
"138 386 OFFCURVE",
"210 507 OFFCURVE",
"322 507 CURVE SMOOTH",
"359 507 OFFCURVE",
"388 494 OFFCURVE",
"397 458 CURVE SMOOTH",
"401 442 OFFCURVE",
"400 421 OFFCURVE",
"414 421 CURVE SMOOTH",
"426 421 OFFCURVE",
"435 434 OFFCURVE",
"442 446 CURVE SMOOTH",
"452 464 OFFCURVE",
"458 480 OFFCURVE",
"458 497 CURVE SMOOTH",
"458 542 OFFCURVE",
"412 568 OFFCURVE",
"346 568 CURVE SMOOTH",
"186 568 OFFCURVE",
"42 413 OFFCURVE",
"42 198 CURVE SMOOTH",
"42 60 OFFCURVE",
"102 -8 OFFCURVE",
"202 -8 CURVE SMOOTH"
);
}
);
width = 450;
},
{
anchors = (
{
name = bottom;
position = "{191, 0}";
},
{
name = top;
position = "{355, 560}";
}
);
background = {
anchors = (
{
name = bottom;
position = "{239, 0}";
},
{
name = top;
position = "{444, 700}";
}
);
paths = (
{
closed = 1;
nodes = (
"351 -10 OFFCURVE",
"452 66 OFFCURVE",
"483 175 CURVE SMOOTH",
"484 179 OFFCURVE",
"491 208 OFFCURVE",
"481 208 CURVE SMOOTH",
"475 208 OFFCURVE",
"470 199 OFFCURVE",
"469 196 CURVE SMOOTH",
"425 108 OFFCURVE",
"358 60 OFFCURVE",
"286 60 CURVE SMOOTH",
"196 60 OFFCURVE",
"148 136 OFFCURVE",
"148 265 CURVE SMOOTH",
"148 420 OFFCURVE",
"217 656 OFFCURVE",
"393 656 CURVE SMOOTH",
"456 656 OFFCURVE",
"488 626 OFFCURVE",
"496 582 CURVE SMOOTH",
"499 566 OFFCURVE",
"499 548 OFFCURVE",
"513 548 CURVE SMOOTH",
"520 548 OFFCURVE",
"525 553 OFFCURVE",
"532 563 CURVE SMOOTH",
"542 577 OFFCURVE",
"555 603 OFFCURVE",
"555 628 CURVE SMOOTH",
"555 687 OFFCURVE",
"482 710 OFFCURVE",
"424 710 CURVE SMOOTH",
"270 710 OFFCURVE",
"62 549 OFFCURVE",
"62 245 CURVE SMOOTH",
"62 74 OFFCURVE",
"128 -10 OFFCURVE",
"242 -10 CURVE SMOOTH"
);
}
);
};
layerId = "0B1DFD06-3317-40CA-B510-4969A0718C16";
paths = (
{
closed = 1;
nodes = (
"283 -8 OFFCURVE",
"362 53 OFFCURVE",
"386 140 CURVE SMOOTH",
"387 143 OFFCURVE",
"393 166 OFFCURVE",
"385 166 CURVE SMOOTH",
"380 166 OFFCURVE",
"376 159 OFFCURVE",
"375 157 CURVE SMOOTH",
"340 86 OFFCURVE",
"286 48 OFFCURVE",
"229 48 CURVE SMOOTH",
"157 48 OFFCURVE",
"118 109 OFFCURVE",
"118 212 CURVE SMOOTH",
"118 336 OFFCURVE",
"174 525 OFFCURVE",
"314 525 CURVE SMOOTH",
"365 525 OFFCURVE",
"390 501 OFFCURVE",
"397 466 CURVE SMOOTH",
"399 453 OFFCURVE",
"399 438 OFFCURVE",
"410 438 CURVE SMOOTH",
"416 438 OFFCURVE",
"420 442 OFFCURVE",
"426 450 CURVE SMOOTH",
"434 462 OFFCURVE",
"444 482 OFFCURVE",
"444 502 CURVE SMOOTH",
"444 550 OFFCURVE",
"386 568 OFFCURVE",
"339 568 CURVE SMOOTH",
"216 568 OFFCURVE",
"50 439 OFFCURVE",
"50 196 CURVE SMOOTH",
"50 59 OFFCURVE",
"104 -8 OFFCURVE",
"196 -8 CURVE SMOOTH"
);
}
);
width = 444;
}
);
leftKerningGroup = C;
note = C;
rightKerningGroup = C;
unicode = 0043;
},
{
glyphname = D;
lastChange = "2018-06-29 10:35:57 +0000";
layers = (
{
anchors = (
{
name = bottom;
position = "{204, 0}";
},
{
name = center;
position = "{222, 280}";
},
{
name = top;
position = "{294, 560}";
}
);
background = {
paths = (
{
closed = 1;
nodes = (
"62 0 OFFCURVE",
"80 14 OFFCURVE",
"116 14 CURVE SMOOTH",
"162 14 OFFCURVE",
"194 0 OFFCURVE",
"265 0 CURVE SMOOTH",
"478 0 OFFCURVE",
"620 169 OFFCURVE",
"620 423 CURVE SMOOTH",
"620 603 OFFCURVE",
"509 710 OFFCURVE",
"322 710 CURVE SMOOTH",
"197 710 OFFCURVE",
"89 649 OFFCURVE",
"51 557 CURVE SMOOTH",
"47 548 OFFCURVE",
"47 543 OFFCURVE",
"47 538 CURVE SMOOTH",
"47 530 OFFCURVE",
"51 525 OFFCURVE",
"59 525 CURVE SMOOTH",
"71 525 OFFCURVE",
"78 532 OFFCURVE",
"92 549 CURVE SMOOTH",
"139 606 OFFCURVE",
"211 638 OFFCURVE",
"288 638 CURVE SMOOTH",
"431 638 OFFCURVE",
"500 561 OFFCURVE",
"500 418 CURVE SMOOTH",
"500 207 OFFCURVE",
"417 83 OFFCURVE",
"276 83 CURVE SMOOTH",
"245 83 OFFCURVE",
"217 84 OFFCURVE",
"196 87 CURVE",
"196 88 LINE",
"205 100 OFFCURVE",
"210 115 OFFCURVE",
"213 130 CURVE SMOOTH",
"279 500 LINE SMOOTH",
"289 554 OFFCURVE",
"306 563 OFFCURVE",
"306 578 CURVE SMOOTH",
"306 586 OFFCURVE",
"302 592 OFFCURVE",
"287 592 CURVE SMOOTH",
"235 592 OFFCURVE",
"183 546 OFFCURVE",
"176 508 CURVE SMOOTH",
"112 146 LINE SMOOTH",
"108 126 OFFCURVE",
"104 94 OFFCURVE",
"67 71 CURVE SMOOTH",
"54 63 OFFCURVE",
"36 32 OFFCURVE",
"36 10 CURVE SMOOTH",
"36 4 OFFCURVE",
"40 0 OFFCURVE",
"46 0 CURVE SMOOTH"
);
}
);
};
layerId = "56450C88-1299-454A-B666-E6F9AF06B23F";
paths = (
{
closed = 1;
nodes = (
"42 0 OFFCURVE",
"54 11 OFFCURVE",
"86 11 CURVE SMOOTH",
"118 11 OFFCURVE",
"152 0 OFFCURVE",
"201 0 CURVE SMOOTH",
"378 0 OFFCURVE",
"488 144 OFFCURVE",
"488 324 CURVE SMOOTH",
"488 486 OFFCURVE",
"399 568 OFFCURVE",
"257 568 CURVE SMOOTH",
"146 568 OFFCURVE",
"62 518 OFFCURVE",
"33 446 CURVE SMOOTH",
"30 440 OFFCURVE",
"30 436 OFFCURVE",
"30 432 CURVE SMOOTH",
"30 424 OFFCURVE",
"32 420 OFFCURVE",
"39 420 CURVE SMOOTH",
"50 420 OFFCURVE",
"56 428 OFFCURVE",
"66 439 CURVE SMOOTH",
"106 486 OFFCURVE",
"158 510 OFFCURVE",
"228 510 CURVE SMOOTH",
"341 510 OFFCURVE",
"392 449 OFFCURVE",
"392 318 CURVE SMOOTH",
"392 170 OFFCURVE",
"326 66 OFFCURVE",
"206 66 CURVE SMOOTH",
"191 66 OFFCURVE",
"166 67 OFFCURVE",
"149 70 CURVE",
"149 70 LINE",
"158 82 OFFCURVE",
"162 99 OFFCURVE",
"162 104 CURVE SMOOTH",
"215 400 LINE SMOOTH",
"224 448 OFFCURVE",
"234 454 OFFCURVE",
"234 466 CURVE SMOOTH",
"234 471 OFFCURVE",
"232 474 OFFCURVE",
"222 474 CURVE SMOOTH",
"182 474 OFFCURVE",
"138 437 OFFCURVE",
"133 406 CURVE SMOOTH",
"82 117 LINE SMOOTH",
"74 80 OFFCURVE",
"72 78 OFFCURVE",
"46 57 CURVE SMOOTH",
"26 40 OFFCURVE",
"21 17 OFFCURVE",
"21 9 CURVE SMOOTH",
"21 3 OFFCURVE",
"23 0 OFFCURVE",
"30 0 CURVE SMOOTH"
);
}
);
width = 509;
},
{
anchors = (
{
name = bottom;
position = "{192, 0}";
},
{
name = center;
position = "{248, 280}";
},
{
name = top;
position = "{301, 560}";
}
);
background = {
paths = (
{
closed = 1;
nodes = (
"43 0 OFFCURVE",
"53 11 OFFCURVE",
"83 11 CURVE SMOOTH",
"114 11 OFFCURVE",
"150 0 OFFCURVE",
"195 0 CURVE SMOOTH",
"371 0 OFFCURVE",
"467 165 OFFCURVE",
"467 334 CURVE SMOOTH",
"467 493 OFFCURVE",
"384 568 OFFCURVE",
"254 568 CURVE SMOOTH",
"131 568 OFFCURVE",
"51 502 OFFCURVE",
"39 451 CURVE SMOOTH",
"38 448 OFFCURVE",
"38 446 OFFCURVE",
"38 443 CURVE SMOOTH",
"38 440 OFFCURVE",
"40 436 OFFCURVE",
"45 436 CURVE SMOOTH",
"50 436 OFFCURVE",
"54 442 OFFCURVE",
"64 453 CURVE SMOOTH",
"106 501 OFFCURVE",
"160 524 OFFCURVE",
"229 524 CURVE SMOOTH",
"345 524 OFFCURVE",
"398 459 OFFCURVE",
"398 324 CURVE SMOOTH",
"398 169 OFFCURVE",
"327 49 OFFCURVE",
"198 49 CURVE SMOOTH",
"179 49 OFFCURVE",
"145 51 OFFCURVE",
"128 55 CURVE",
"128 56 LINE",
"138 66 OFFCURVE",
"143 84 OFFCURVE",
"146 98 CURVE SMOOTH",
"201 431 LINE SMOOTH",
"207 470 OFFCURVE",
"221 475 OFFCURVE",
"221 482 CURVE SMOOTH",
"221 485 OFFCURVE",
"217 486 OFFCURVE",
"212 486 CURVE SMOOTH",
"187 486 OFFCURVE",
"149 453 OFFCURVE",
"144 426 CURVE SMOOTH",
"91 109 LINE SMOOTH",
"84 67 OFFCURVE",
"66 52 OFFCURVE",
"48 39 CURVE SMOOTH",
"38 32 OFFCURVE",
"29 14 OFFCURVE",
"29 5 CURVE SMOOTH",
"29 2 OFFCURVE",
"30 0 OFFCURVE",
"33 0 CURVE SMOOTH"
);
}
);
};
layerId = "0B1DFD06-3317-40CA-B510-4969A0718C16";
paths = (
{
closed = 1;
nodes = (
"43 0 OFFCURVE",
"53 11 OFFCURVE",
"83 11 CURVE SMOOTH",
"114 11 OFFCURVE",
"151 0 OFFCURVE",
"196 0 CURVE SMOOTH",
"372 0 OFFCURVE",
"467 163 OFFCURVE",
"467 332 CURVE SMOOTH",
"467 480 OFFCURVE",
"392 568 OFFCURVE",
"249 568 CURVE SMOOTH",
"154 568 OFFCURVE",
"77 528 OFFCURVE",
"43 461 CURVE SMOOTH",
"40 454 OFFCURVE",
"38 448 OFFCURVE",
"38 443 CURVE SMOOTH",
"38 439 OFFCURVE",
"40 436 OFFCURVE",
"44 436 CURVE SMOOTH",
"50 436 OFFCURVE",
"53 442 OFFCURVE",
"63 453 CURVE SMOOTH",
"105 501 OFFCURVE",
"160 524 OFFCURVE",
"229 524 CURVE SMOOTH",
"345 524 OFFCURVE",
"398 459 OFFCURVE",
"398 324 CURVE SMOOTH",
"398 169 OFFCURVE",
"327 49 OFFCURVE",
"198 49 CURVE SMOOTH",
"179 49 OFFCURVE",
"145 51 OFFCURVE",
"128 55 CURVE",
"128 56 LINE",
"138 66 OFFCURVE",
"143 84 OFFCURVE",
"146 98 CURVE SMOOTH",
"201 431 LINE SMOOTH",
"207 470 OFFCURVE",
"221 475 OFFCURVE",
"221 482 CURVE SMOOTH",
"221 485 OFFCURVE",
"217 486 OFFCURVE",
"212 486 CURVE SMOOTH",
"187 486 OFFCURVE",
"149 453 OFFCURVE",
"144 426 CURVE SMOOTH",
"91 109 LINE SMOOTH",
"84 67 OFFCURVE",
"66 52 OFFCURVE",
"48 39 CURVE SMOOTH",
"38 32 OFFCURVE",
"29 14 OFFCURVE",
"29 5 CURVE SMOOTH",
"29 2 OFFCURVE",
"30 0 OFFCURVE",
"33 0 CURVE SMOOTH"
);
}
);
width = 496;
}
);
leftKerningGroup = D;
note = D;
rightKerningGroup = D;
unicode = 0044;
},
{
glyphname = E;
lastChange = "2018-06-29 10:36:25 +0000";
layers = (
{
anchors = (
{
name = bottom;
position = "{186, 0}";
},
{
name = ogonek;
position = "{307, 26}";
},
{
name = top;
position = "{291, 560}";
},
{
name = topleft;
position = "{38, 478}";
}
);
background = {
anchors = (
{
name = bottom;
position = "{267, 0}";
},
{
name = ogonek;
position = "{519, 10}";
},
{
name = top;
position = "{267, 700}";
},
{
name = topleft;
position = "{-28, 700}";
}
);
paths = (
{
closed = 1;
nodes = (
"60 0 OFFCURVE",
"78 17 OFFCURVE",
"118 17 CURVE SMOOTH",
"167 17 OFFCURVE",
"227 0 OFFCURVE",
"289 0 CURVE SMOOTH",
"381 0 OFFCURVE",
"467 61 OFFCURVE",
"467 114 CURVE SMOOTH",
"467 122 OFFCURVE",
"463 128 OFFCURVE",
"457 128 CURVE SMOOTH",
"452 128 OFFCURVE",
"445 124 OFFCURVE",
"435 118 CURVE SMOOTH",
"410 103 OFFCURVE",
"368 88 OFFCURVE",
"293 88 CURVE SMOOTH",
"258 88 OFFCURVE",
"219 96 OFFCURVE",
"200 99 CURVE",
"200 100 LINE",
"207 116 OFFCURVE",
"209 128 OFFCURVE",
"211 138 CURVE SMOOTH",
"243 325 LINE",
"277 325 LINE SMOOTH",
"327 325 OFFCURVE",
"356 313 OFFCURVE",
"386 313 CURVE SMOOTH",
"416 313 OFFCURVE",
"461 376 OFFCURVE",
"461 390 CURVE SMOOTH",
"461 398 OFFCURVE",
"457 402 OFFCURVE",
"449 402 CURVE SMOOTH",
"256 402 LINE",
"290 610 LINE",
"355 610 OFFCURVE",
"386 602 OFFCURVE",
"431 602 CURVE SMOOTH",
"505 602 OFFCURVE",
"557 664 OFFCURVE",
"557 697 CURVE SMOOTH",
"557 705 OFFCURVE",
"552 710 OFFCURVE",
"544 710 CURVE SMOOTH",
"532 710 OFFCURVE",
"496 690 OFFCURVE",
"436 690 CURVE SMOOTH",
"345 690 OFFCURVE",
"305 700 OFFCURVE",
"234 700 CURVE SMOOTH",
"138 700 OFFCURVE",
"63 659 OFFCURVE",
"47 597 CURVE SMOOTH",
"46 593 OFFCURVE",
"45 588 OFFCURVE",
"45 584 CURVE SMOOTH",
"45 576 OFFCURVE",
"48 572 OFFCURVE",
"54 572 CURVE SMOOTH",
"66 572 OFFCURVE",
"95 613 OFFCURVE",
"178 613 CURVE SMOOTH",
"183 613 LINE",
"112 189 LINE SMOOTH",
"99 114 OFFCURVE",
"88 92 OFFCURVE",
"62 66 CURVE SMOOTH",
"45 49 OFFCURVE",
"36 25 OFFCURVE",
"36 10 CURVE SMOOTH",
"36 4 OFFCURVE",
"40 0 OFFCURVE",
"46 0 CURVE SMOOTH"
);
}
);
};
layerId = "56450C88-1299-454A-B666-E6F9AF06B23F";
paths = (
{
closed = 1;
nodes = (
"41 0 OFFCURVE",
"53 14 OFFCURVE",
"88 14 CURVE SMOOTH",
"122 14 OFFCURVE",
"177 0 OFFCURVE",
"221 0 CURVE SMOOTH",
"305 0 OFFCURVE",
"366 50 OFFCURVE",
"366 91 CURVE SMOOTH",
"366 99 OFFCURVE",
"363 101 OFFCURVE",
"359 101 CURVE SMOOTH",
"354 101 OFFCURVE",
"350 99 OFFCURVE",
"340 93 CURVE SMOOTH",
"319 81 OFFCURVE",
"284 69 OFFCURVE",
"231 69 CURVE SMOOTH",
"198 69 OFFCURVE",
"174 74 OFFCURVE",
"152 79 CURVE",
"152 80 LINE",
"154 86 OFFCURVE",
"158 94 OFFCURVE",
"161 110 CURVE SMOOTH",
"186 260 LINE",
"214 260 LINE SMOOTH",
"251 260 OFFCURVE",
"282 250 OFFCURVE",
"297 250 CURVE SMOOTH",
"330 250 OFFCURVE",
"361 303 OFFCURVE",
"361 314 CURVE SMOOTH",
"361 318 OFFCURVE",
"358 322 OFFCURVE",
"353 322 CURVE SMOOTH",
"197 322 LINE",
"224 488 LINE",
"273 488 OFFCURVE",
"307 483 OFFCURVE",
"330 483 CURVE SMOOTH",
"405 483 OFFCURVE",
"438 537 OFFCURVE",
"438 560 CURVE SMOOTH",
"438 566 OFFCURVE",
"435 568 OFFCURVE",
"430 568 CURVE SMOOTH",
"415 568 OFFCURVE",
"400 552 OFFCURVE",
"330 552 CURVE SMOOTH",
"282 552 OFFCURVE",
"226 560 OFFCURVE",
"184 560 CURVE SMOOTH",
"98 560 OFFCURVE",
"41 525 OFFCURVE",
"30 478 CURVE SMOOTH",
"29 474 OFFCURVE",
"28 470 OFFCURVE",
"28 466 CURVE SMOOTH",
"28 461 OFFCURVE",
"30 458 OFFCURVE",
"34 458 CURVE SMOOTH",
"46 458 OFFCURVE",
"63 490 OFFCURVE",
"134 490 CURVE SMOOTH",
"138 490 LINE",
"82 151 LINE SMOOTH",
"70 86 OFFCURVE",
"63 77 OFFCURVE",
"42 53 CURVE SMOOTH",
"28 38 OFFCURVE",
"21 22 OFFCURVE",
"21 10 CURVE SMOOTH",
"21 2 OFFCURVE",
"24 0 OFFCURVE",
"29 0 CURVE SMOOTH"
);
}
);
width = 412;
},
{
anchors = (
{
name = bottom;
position = "{174, 0}";
},
{
name = ogonek;
position = "{302, 30}";
},
{
name = top;
position = "{298, 560}";
},
{
name = topleft;
position = "{54, 494}";
}
);
background = {
paths = (
{
closed = 1;
nodes = (
"44 0 OFFCURVE",
"58 14 OFFCURVE",
"85 14 CURVE SMOOTH",
"111 14 OFFCURVE",
"173 0 OFFCURVE",
"211 0 CURVE SMOOTH",
"285 0 OFFCURVE",
"358 49 OFFCURVE",
"358 82 CURVE SMOOTH",
"358 86 OFFCURVE",
"356 90 OFFCURVE",
"352 90 CURVE SMOOTH",
"350 90 OFFCURVE",
"346 89 OFFCURVE",
"342 86 CURVE SMOOTH",
"309 65 OFFCURVE",
"265 51 OFFCURVE",
"214 51 CURVE SMOOTH",
"187 51 OFFCURVE",
"151 55 OFFCURVE",
"128 61 CURVE",
"128 62 LINE",
"135 70 OFFCURVE",
"143 89 OFFCURVE",
"146 108 CURVE SMOOTH",
"173 266 LINE",
"200 266 LINE SMOOTH",
"237 266 OFFCURVE",
"260 256 OFFCURVE",
"274 256 CURVE SMOOTH",
"305 256 OFFCURVE",
"338 300 OFFCURVE",
"338 310 CURVE SMOOTH",
"338 314 OFFCURVE",
"334 315 OFFCURVE",
"331 315 CURVE SMOOTH",
"180 315 LINE",
"211 510 LINE",
"242 510 OFFCURVE",
"285 504 OFFCURVE",
"315 504 CURVE SMOOTH",
"398 504 OFFCURVE",
"430 546 OFFCURVE",
"430 562 CURVE SMOOTH",
"430 566 OFFCURVE",
"428 568 OFFCURVE",
"423 568 CURVE SMOOTH",
"412 568 OFFCURVE",
"396 552 OFFCURVE",
"330 552 CURVE SMOOTH",
"282 552 OFFCURVE",
"225 560 OFFCURVE",
"182 560 CURVE SMOOTH",
"95 560 OFFCURVE",
"54 526 OFFCURVE",
"42 491 CURVE SMOOTH",
"41 488 OFFCURVE",
"41 486 OFFCURVE",
"41 483 CURVE SMOOTH",
"41 480 OFFCURVE",
"42 476 OFFCURVE",
"46 476 CURVE SMOOTH",
"56 476 OFFCURVE",
"67 509 OFFCURVE",
"147 509 CURVE SMOOTH",
"151 509 LINE",
"91 141 LINE SMOOTH",
"80 72 OFFCURVE",
"72 62 OFFCURVE",
"47 39 CURVE SMOOTH",
"36 29 OFFCURVE",
"29 18 OFFCURVE",
"29 6 CURVE SMOOTH",
"29 2 OFFCURVE",
"30 0 OFFCURVE",
"34 0 CURVE SMOOTH"
);
}
);
};
layerId = "0B1DFD06-3317-40CA-B510-4969A0718C16";
paths = (
{
closed = 1;
nodes = (
"44 0 OFFCURVE",
"58 14 OFFCURVE",
"85 14 CURVE SMOOTH",
"111 14 OFFCURVE",
"173 0 OFFCURVE",
"211 0 CURVE SMOOTH",
"285 0 OFFCURVE",
"358 49 OFFCURVE",
"358 82 CURVE SMOOTH",
"358 86 OFFCURVE",
"356 90 OFFCURVE",
"352 90 CURVE SMOOTH",
"349 90 OFFCURVE",
"347 89 OFFCURVE",
"342 86 CURVE SMOOTH",
"309 65 OFFCURVE",
"265 51 OFFCURVE",
"214 51 CURVE SMOOTH",
"187 51 OFFCURVE",
"151 55 OFFCURVE",
"128 61 CURVE",
"128 62 LINE",
"135 70 OFFCURVE",
"143 89 OFFCURVE",
"146 108 CURVE SMOOTH",
"173 266 LINE",
"200 266 LINE SMOOTH",
"237 266 OFFCURVE",
"260 256 OFFCURVE",
"274 256 CURVE SMOOTH",
"305 256 OFFCURVE",
"338 300 OFFCURVE",
"338 310 CURVE SMOOTH",
"338 313 OFFCURVE",
"336 315 OFFCURVE",
"331 315 CURVE SMOOTH",
"180 315 LINE",
"211 510 LINE",
"242 510 OFFCURVE",
"285 504 OFFCURVE",
"315 504 CURVE SMOOTH",
"398 504 OFFCURVE",
"430 546 OFFCURVE",
"430 562 CURVE SMOOTH",
"430 566 OFFCURVE",
"428 568 OFFCURVE",
"423 568 CURVE SMOOTH",
"412 568 OFFCURVE",
"396 552 OFFCURVE",
"330 552 CURVE SMOOTH",
"282 552 OFFCURVE",
"225 560 OFFCURVE",
"182 560 CURVE SMOOTH",
"96 560 OFFCURVE",
"54 529 OFFCURVE",
"43 495 CURVE SMOOTH",
"42 492 OFFCURVE",
"41 488 OFFCURVE",
"41 483 CURVE SMOOTH",
"41 480 OFFCURVE",
"42 476 OFFCURVE",
"46 476 CURVE SMOOTH",
"56 476 OFFCURVE",
"67 509 OFFCURVE",
"147 509 CURVE SMOOTH",
"151 509 LINE",
"91 141 LINE SMOOTH",
"80 72 OFFCURVE",
"72 62 OFFCURVE",
"47 39 CURVE SMOOTH",
"36 29 OFFCURVE",
"29 18 OFFCURVE",
"29 6 CURVE SMOOTH",
"29 2 OFFCURVE",
"30 0 OFFCURVE",
"34 0 CURVE SMOOTH"
);
}
);
width = 412;
}
);
leftKerningGroup = E;
note = E;
rightKerningGroup = E;
unicode = 0045;
},
{
glyphname = F;
lastChange = "2018-06-29 10:36:52 +0000";
layers = (
{
anchors = (
{
name = bottom;
position = "{103, 0}";
},
{
name = top;
position = "{294, 560}";
}
);
background = {
paths = (
{
closed = 1;
nodes = (
"53 0 OFFCURVE",
"71 16 OFFCURVE",
"106 16 CURVE SMOOTH",
"138 16 OFFCURVE",
"169 0 OFFCURVE",
"197 0 CURVE SMOOTH",
"221 0 OFFCURVE",
"240 11 OFFCURVE",
"275 53 CURVE SMOOTH",
"284 64 OFFCURVE",
"287 71 OFFCURVE",
"287 80 CURVE SMOOTH",
"287 85 OFFCURVE",
"284 89 OFFCURVE",
"279 89 CURVE SMOOTH",
"268 89 OFFCURVE",
"257 78 OFFCURVE",
"231 78 CURVE SMOOTH",
"219 78 OFFCURVE",
"204 81 OFFCURVE",
"192 87 CURVE",
"192 88 LINE",
"203 98 OFFCURVE",
"212 115 OFFCURVE",
"215 133 CURVE SMOOTH",
"244 305 LINE",
"278 305 LINE SMOOTH",
"328 305 OFFCURVE",
"357 293 OFFCURVE",
"387 293 CURVE SMOOTH",
"417 293 OFFCURVE",
"462 356 OFFCURVE",
"462 370 CURVE SMOOTH",
"462 378 OFFCURVE",
"458 382 OFFCURVE",
"450 382 CURVE SMOOTH",
"257 382 LINE",
"295 610 LINE",
"360 610 OFFCURVE",
"391 602 OFFCURVE",
"436 602 CURVE SMOOTH",
"510 602 OFFCURVE",
"562 664 OFFCURVE",
"562 697 CURVE SMOOTH",
"562 705 OFFCURVE",
"557 710 OFFCURVE",
"549 710 CURVE SMOOTH",
"537 710 OFFCURVE",
"501 690 OFFCURVE",
"441 690 CURVE SMOOTH",
"350 690 OFFCURVE",
"310 700 OFFCURVE",
"239 700 CURVE SMOOTH",
"143 700 OFFCURVE",
"68 659 OFFCURVE",
"52 597 CURVE SMOOTH",
"51 593 OFFCURVE",
"50 588 OFFCURVE",
"50 584 CURVE SMOOTH",
"50 576 OFFCURVE",
"53 572 OFFCURVE",
"59 572 CURVE SMOOTH",
"71 572 OFFCURVE",
"100 613 OFFCURVE",
"183 613 CURVE SMOOTH",
"188 613 LINE",
"115 177 LINE SMOOTH",
"104 110 OFFCURVE",
"94 87 OFFCURVE",
"68 65 CURVE SMOOTH",
"49 48 OFFCURVE",
"36 30 OFFCURVE",
"36 10 CURVE SMOOTH",
"36 4 OFFCURVE",
"39 0 OFFCURVE",
"44 0 CURVE SMOOTH"
);
}
);
};
layerId = "56450C88-1299-454A-B666-E6F9AF06B23F";
paths = (
{
closed = 1;
nodes = (
"34 0 OFFCURVE",
"50 13 OFFCURVE",
"77 13 CURVE SMOOTH",
"103 13 OFFCURVE",
"127 0 OFFCURVE",
"149 0 CURVE SMOOTH",
"166 0 OFFCURVE",
"186 8 OFFCURVE",
"212 42 CURVE SMOOTH",
"218 50 OFFCURVE",
"222 56 OFFCURVE",
"222 64 CURVE SMOOTH",
"222 69 OFFCURVE",
"220 71 OFFCURVE",
"215 71 CURVE SMOOTH",
"206 71 OFFCURVE",
"197 62 OFFCURVE",
"178 62 CURVE SMOOTH",
"167 62 OFFCURVE",
"155 65 OFFCURVE",
"146 70 CURVE",
"146 70 LINE",
"154 78 OFFCURVE",
"162 92 OFFCURVE",
"164 106 CURVE SMOOTH",
"187 244 LINE",
"214 244 LINE SMOOTH",
"252 244 OFFCURVE",
"283 234 OFFCURVE",
"298 234 CURVE SMOOTH",
"330 234 OFFCURVE",
"362 288 OFFCURVE",
"362 298 CURVE SMOOTH",
"362 302 OFFCURVE",
"358 306 OFFCURVE",
"354 306 CURVE SMOOTH",
"198 306 LINE",
"228 488 LINE",
"277 488 OFFCURVE",
"311 483 OFFCURVE",
"334 483 CURVE SMOOTH",
"409 483 OFFCURVE",
"442 537 OFFCURVE",
"442 560 CURVE SMOOTH",
"442 566 OFFCURVE",
"439 568 OFFCURVE",
"434 568 CURVE SMOOTH",
"419 568 OFFCURVE",
"404 552 OFFCURVE",
"334 552 CURVE SMOOTH",
"286 552 OFFCURVE",
"230 560 OFFCURVE",
"188 560 CURVE SMOOTH",
"102 560 OFFCURVE",
"45 525 OFFCURVE",
"34 478 CURVE SMOOTH",
"33 474 OFFCURVE",
"32 470 OFFCURVE",
"32 466 CURVE SMOOTH",
"32 461 OFFCURVE",
"34 458 OFFCURVE",
"38 458 CURVE SMOOTH",
"50 458 OFFCURVE",
"67 490 OFFCURVE",
"138 490 CURVE SMOOTH",
"142 490 LINE",
"84 142 LINE SMOOTH",
"74 81 OFFCURVE",
"68 73 OFFCURVE",
"46 52 CURVE SMOOTH",
"32 38 OFFCURVE",
"21 25 OFFCURVE",
"21 10 CURVE SMOOTH",
"21 2 OFFCURVE",
"23 0 OFFCURVE",
"26 0 CURVE SMOOTH"
);
}
);
width = 408;
},
{
anchors = (
{
name = bottom;
position = "{92, 0}";
},
{
name = top;
position = "{288, 560}";
}
);
background = {
paths = (
{
closed = 1;
nodes = (
"39 0 OFFCURVE",
"54 14 OFFCURVE",
"74 14 CURVE SMOOTH",
"94 14 OFFCURVE",
"118 0 OFFCURVE",
"134 0 CURVE SMOOTH",
"143 0 OFFCURVE",
"159 5 OFFCURVE",
"186 33 CURVE SMOOTH",
"195 42 OFFCURVE",
"197 47 OFFCURVE",
"197 51 CURVE SMOOTH",
"197 54 OFFCURVE",
"195 56 OFFCURVE",
"192 56 CURVE SMOOTH",
"185 56 OFFCURVE",
"175 47 OFFCURVE",
"158 47 CURVE SMOOTH",
"149 47 OFFCURVE",
"138 50 OFFCURVE",
"126 54 CURVE",
"126 55 LINE",
"134 63 OFFCURVE",
"141 75 OFFCURVE",
"143 89 CURVE SMOOTH",
"171 252 LINE",
"198 252 LINE SMOOTH",
"235 252 OFFCURVE",
"258 242 OFFCURVE",
"273 242 CURVE SMOOTH",
"303 242 OFFCURVE",
"337 286 OFFCURVE",
"337 297 CURVE SMOOTH",
"337 300 OFFCURVE",
"333 302 OFFCURVE",
"330 302 CURVE SMOOTH",
"178 302 LINE",
"212 510 LINE",
"242 510 OFFCURVE",
"286 504 OFFCURVE",
"316 504 CURVE SMOOTH",
"398 504 OFFCURVE",
"430 546 OFFCURVE",
"430 562 CURVE SMOOTH",
"430 566 OFFCURVE",
"429 568 OFFCURVE",
"425 568 CURVE SMOOTH",
"414 568 OFFCURVE",
"397 552 OFFCURVE",
"330 552 CURVE SMOOTH",
"283 552 OFFCURVE",
"226 560 OFFCURVE",
"182 560 CURVE SMOOTH",
"96 560 OFFCURVE",
"56 529 OFFCURVE",
"44 495 CURVE SMOOTH",
"43 492 OFFCURVE",
"42 488 OFFCURVE",
"42 483 CURVE SMOOTH",
"42 480 OFFCURVE",
"43 476 OFFCURVE",
"47 476 CURVE SMOOTH",
"57 476 OFFCURVE",
"68 509 OFFCURVE",
"148 509 CURVE SMOOTH",
"152 509 LINE",
"92 142 LINE SMOOTH",
"80 70 OFFCURVE",
"79 70 OFFCURVE",
"46 41 CURVE SMOOTH",
"33 29 OFFCURVE",
"29 17 OFFCURVE",
"29 7 CURVE SMOOTH",
"29 3 OFFCURVE",
"30 0 OFFCURVE",
"33 0 CURVE SMOOTH"
);
}
);
};
layerId = "0B1DFD06-3317-40CA-B510-4969A0718C16";
paths = (
{
closed = 1;
nodes = (
"39 0 OFFCURVE",
"54 14 OFFCURVE",
"74 14 CURVE SMOOTH",
"94 14 OFFCURVE",
"118 0 OFFCURVE",
"134 0 CURVE SMOOTH",
"143 0 OFFCURVE",
"159 5 OFFCURVE",
"186 33 CURVE SMOOTH",
"195 42 OFFCURVE",
"197 47 OFFCURVE",
"197 51 CURVE SMOOTH",
"197 54 OFFCURVE",
"195 56 OFFCURVE",
"192 56 CURVE SMOOTH",
"185 56 OFFCURVE",
"175 47 OFFCURVE",
"158 47 CURVE SMOOTH",
"149 47 OFFCURVE",
"138 50 OFFCURVE",
"126 54 CURVE",
"126 55 LINE",
"134 63 OFFCURVE",
"141 75 OFFCURVE",
"143 89 CURVE SMOOTH",
"171 252 LINE",
"198 252 LINE SMOOTH",
"235 252 OFFCURVE",
"258 242 OFFCURVE",
"273 242 CURVE SMOOTH",
"303 242 OFFCURVE",
"337 286 OFFCURVE",
"337 297 CURVE SMOOTH",
"337 300 OFFCURVE",
"335 302 OFFCURVE",
"330 302 CURVE SMOOTH",
"178 302 LINE",
"212 510 LINE",
"242 510 OFFCURVE",
"286 504 OFFCURVE",
"316 504 CURVE SMOOTH",
"398 504 OFFCURVE",
"430 546 OFFCURVE",
"430 562 CURVE SMOOTH",
"430 566 OFFCURVE",
"429 568 OFFCURVE",
"425 568 CURVE SMOOTH",
"414 568 OFFCURVE",
"397 552 OFFCURVE",
"330 552 CURVE SMOOTH",
"283 552 OFFCURVE",
"226 560 OFFCURVE",
"182 560 CURVE SMOOTH",
"96 560 OFFCURVE",
"56 529 OFFCURVE",
"44 495 CURVE SMOOTH",
"43 492 OFFCURVE",
"42 488 OFFCURVE",
"42 483 CURVE SMOOTH",
"42 480 OFFCURVE",
"43 476 OFFCURVE",
"47 476 CURVE SMOOTH",
"57 476 OFFCURVE",
"68 509 OFFCURVE",
"148 509 CURVE SMOOTH",
"152 509 LINE",
"92 142 LINE SMOOTH",
"80 70 OFFCURVE",
"79 70 OFFCURVE",
"46 41 CURVE SMOOTH",
"33 29 OFFCURVE",
"29 17 OFFCURVE",
"29 7 CURVE SMOOTH",
"29 3 OFFCURVE",
"30 0 OFFCURVE",
"33 0 CURVE SMOOTH"
);
}
);
width = 405;
}
);
leftKerningGroup = E;
note = F;
unicode = 0046;
},
{
glyphname = G;
lastChange = "2018-06-29 10:37:37 +0000";
layers = (
{
anchors = (
{
name = bottom;
position = "{198, -200}";
},
{
name = top;
position = "{333, 560}";
}
);
background = {
paths = (
{
closed = 1;
nodes = (
"382 -258 OFFCURVE",
"474 -145 OFFCURVE",
"509 71 CURVE",
"536 306 LINE SMOOTH",
"545 361 OFFCURVE",
"563 369 OFFCURVE",
"563 384 CURVE SMOOTH",
"563 392 OFFCURVE",
"559 398 OFFCURVE",
"544 398 CURVE SMOOTH",
"492 398 OFFCURVE",
"446 352 OFFCURVE",
"441 314 CURVE SMOOTH",
"420 163 LINE",
"397 120 OFFCURVE",
"352 92 OFFCURVE",
"308 92 CURVE SMOOTH",
"224 92 OFFCURVE",
"182 145 OFFCURVE",
"182 265 CURVE SMOOTH",
"182 486 OFFCURVE",
"273 634 OFFCURVE",
"409 634 CURVE SMOOTH",
"463 634 OFFCURVE",
"496 613 OFFCURVE",
"504 572 CURVE SMOOTH",
"511 537 OFFCURVE",
"513 526 OFFCURVE",
"530 526 CURVE SMOOTH",
"544 526 OFFCURVE",
"556 543 OFFCURVE",
"564 557 CURVE SMOOTH",
"577 580 OFFCURVE",
"583 599 OFFCURVE",
"583 624 CURVE SMOOTH",
"583 678 OFFCURVE",
"529 710 OFFCURVE",
"433 710 CURVE SMOOTH",
"260 710 OFFCURVE",
"62 537 OFFCURVE",
"62 235 CURVE SMOOTH",
"62 81 OFFCURVE",
"137 0 OFFCURVE",
"263 0 CURVE SMOOTH",
"312 0 OFFCURVE",
"371 26 OFFCURVE",
"406 63 CURVE",
"399 12 LINE SMOOTH",
"379 -134 OFFCURVE",
"350 -184 OFFCURVE",
"285 -184 CURVE SMOOTH",
"233 -184 OFFCURVE",
"200 -155 OFFCURVE",
"182 -93 CURVE SMOOTH",
"174 -65 OFFCURVE",
"95 -146 OFFCURVE",
"95 -178 CURVE SMOOTH",
"95 -216 OFFCURVE",
"154 -258 OFFCURVE",
"243 -258 CURVE SMOOTH"
);
}
);
};
layerId = "56450C88-1299-454A-B666-E6F9AF06B23F";
paths = (
{
closed = 1;
nodes = (
"302 -206 OFFCURVE",
"372 -110 OFFCURVE",
"399 57 CURVE SMOOTH",
"421 245 LINE SMOOTH",
"426 290 OFFCURVE",
"442 296 OFFCURVE",
"442 310 CURVE SMOOTH",
"442 316 OFFCURVE",
"438 318 OFFCURVE",
"430 318 CURVE SMOOTH",
"401 318 OFFCURVE",
"351 294 OFFCURVE",
"345 250 CURVE SMOOTH",
"328 130 LINE",
"308 95 OFFCURVE",
"278 74 OFFCURVE",
"233 74 CURVE SMOOTH",
"170 74 OFFCURVE",
"138 115 OFFCURVE",
"138 223 CURVE SMOOTH",
"138 382 OFFCURVE",
"208 507 OFFCURVE",
"322 507 CURVE SMOOTH",
"359 507 OFFCURVE",
"388 494 OFFCURVE",
"397 458 CURVE SMOOTH",
"401 442 OFFCURVE",
"400 421 OFFCURVE",
"414 421 CURVE SMOOTH",
"426 421 OFFCURVE",
"435 434 OFFCURVE",
"442 446 CURVE SMOOTH",
"452 464 OFFCURVE",
"458 480 OFFCURVE",
"458 497 CURVE SMOOTH",
"458 542 OFFCURVE",
"413 568 OFFCURVE",
"347 568 CURVE SMOOTH",
"183 568 OFFCURVE",
"42 409 OFFCURVE",
"42 199 CURVE SMOOTH",
"42 63 OFFCURVE",
"102 0 OFFCURVE",
"194 0 CURVE SMOOTH",
"252 0 OFFCURVE",
"290 24 OFFCURVE",
"317 50 CURVE",
"311 10 LINE SMOOTH",
"295 -108 OFFCURVE",
"274 -147 OFFCURVE",
"220 -147 CURVE SMOOTH",
"163 -147 OFFCURVE",
"147 -104 OFFCURVE",
"138 -74 CURVE SMOOTH",
"137 -71 OFFCURVE",
"135 -70 OFFCURVE",
"132 -70 CURVE SMOOTH",
"114 -70 OFFCURVE",
"68 -119 OFFCURVE",
"68 -145 CURVE SMOOTH",
"68 -171 OFFCURVE",
"115 -206 OFFCURVE",
"186 -206 CURVE SMOOTH"
);
}
);
width = 476;
},
{
anchors = (
{
name = bottom;
position = "{189, -200}";
},
{
name = top;
position = "{347, 560}";
}
);
background = {
paths = (
{
closed = 1;
nodes = (
"280 -206 OFFCURVE",
"351 -114 OFFCURVE",
"378 49 CURVE",
"403 255 LINE SMOOTH",
"408 294 OFFCURVE",
"423 301 OFFCURVE",
"423 307 CURVE SMOOTH",
"423 310 OFFCURVE",
"420 312 OFFCURVE",
"414 312 CURVE SMOOTH",
"390 312 OFFCURVE",
"356 279 OFFCURVE",
"353 253 CURVE SMOOTH",
"337 134 LINE",
"308 75 OFFCURVE",
"262 56 OFFCURVE",
"223 56 CURVE SMOOTH",
"159 56 OFFCURVE",
"118 109 OFFCURVE",
"118 214 CURVE SMOOTH",
"118 336 OFFCURVE",
"174 525 OFFCURVE",
"314 525 CURVE SMOOTH",
"362 525 OFFCURVE",
"391 503 OFFCURVE",
"397 466 CURVE SMOOTH",
"399 450 OFFCURVE",
"401 438 OFFCURVE",
"410 438 CURVE SMOOTH",
"416 438 OFFCURVE",
"420 442 OFFCURVE",
"426 450 CURVE SMOOTH",
"443 476 OFFCURVE",
"444 497 OFFCURVE",
"444 502 CURVE SMOOTH",
"444 549 OFFCURVE",
"387 568 OFFCURVE",
"339 568 CURVE SMOOTH",
"208 568 OFFCURVE",
"50 427 OFFCURVE",
"50 201 CURVE SMOOTH",
"50 68 OFFCURVE",
"104 0 OFFCURVE",
"186 0 CURVE SMOOTH",
"230 0 OFFCURVE",
"278 19 OFFCURVE",
"325 65 CURVE",
"314 -1 LINE SMOOTH",
"295 -122 OFFCURVE",
"269 -165 OFFCURVE",
"213 -165 CURVE SMOOTH",
"175 -165 OFFCURVE",
"149 -146 OFFCURVE",
"130 -91 CURVE SMOOTH",
"129 -86 OFFCURVE",
"127 -84 OFFCURVE",
"124 -84 CURVE SMOOTH",
"110 -84 OFFCURVE",
"74 -124 OFFCURVE",
"74 -151 CURVE SMOOTH",
"74 -182 OFFCURVE",
"122 -206 OFFCURVE",
"175 -206 CURVE SMOOTH"
);
}
);
};
layerId = "0B1DFD06-3317-40CA-B510-4969A0718C16";
paths = (
{
closed = 1;
nodes = (
"280 -206 OFFCURVE",
"351 -114 OFFCURVE",
"378 49 CURVE",
"403 255 LINE SMOOTH",
"408 294 OFFCURVE",
"423 301 OFFCURVE",
"423 307 CURVE SMOOTH",
"423 310 OFFCURVE",
"420 312 OFFCURVE",
"414 312 CURVE SMOOTH",
"390 312 OFFCURVE",
"356 279 OFFCURVE",
"353 253 CURVE SMOOTH",
"337 134 LINE",
"308 75 OFFCURVE",
"262 56 OFFCURVE",
"223 56 CURVE SMOOTH",
"159 56 OFFCURVE",
"118 109 OFFCURVE",
"118 214 CURVE SMOOTH",
"118 336 OFFCURVE",
"174 525 OFFCURVE",
"314 525 CURVE SMOOTH",
"363 525 OFFCURVE",
"389 506 OFFCURVE",
"397 466 CURVE SMOOTH",
"400 450 OFFCURVE",
"401 438 OFFCURVE",
"410 438 CURVE SMOOTH",
"416 438 OFFCURVE",
"420 442 OFFCURVE",
"426 450 CURVE SMOOTH",
"443 476 OFFCURVE",
"444 497 OFFCURVE",
"444 502 CURVE SMOOTH",
"444 549 OFFCURVE",
"387 568 OFFCURVE",
"339 568 CURVE SMOOTH",
"208 568 OFFCURVE",
"50 427 OFFCURVE",
"50 201 CURVE SMOOTH",
"50 68 OFFCURVE",
"104 0 OFFCURVE",
"186 0 CURVE SMOOTH",
"230 0 OFFCURVE",
"278 19 OFFCURVE",
"325 65 CURVE",
"314 -1 LINE SMOOTH",
"295 -122 OFFCURVE",
"269 -165 OFFCURVE",
"213 -165 CURVE SMOOTH",
"175 -165 OFFCURVE",
"149 -146 OFFCURVE",
"130 -91 CURVE SMOOTH",
"129 -86 OFFCURVE",
"127 -84 OFFCURVE",
"124 -84 CURVE SMOOTH",
"110 -84 OFFCURVE",
"74 -124 OFFCURVE",
"74 -151 CURVE SMOOTH",
"74 -182 OFFCURVE",
"122 -206 OFFCURVE",
"175 -206 CURVE SMOOTH"
);
}
);
width = 470;
}
);
leftKerningGroup = C;
note = G;
rightKerningGroup = G;
unicode = 0047;
},
{
glyphname = H;
lastChange = "2018-06-29 11:00:04 +0000";
layers = (
{
anchors = (
{
name = bottom;
position = "{255, 0}";
},
{
name = center;
position = "{296, 280}";
},
{
name = top;
position = "{337, 560}";
}
);
background = {
paths = (
{
closed = 1;
nodes = (
"573 -10 OFFCURVE",
"658 76 OFFCURVE",
"658 122 CURVE SMOOTH",
"658 130 OFFCURVE",
"655 134 OFFCURVE",
"648 134 CURVE SMOOTH",
"635 134 OFFCURVE",
"612 90 OFFCURVE",
"576 90 CURVE SMOOTH",
"563 90 OFFCURVE",
"560 101 OFFCURVE",
"565 131 CURVE SMOOTH",
"635 579 LINE SMOOTH",
"664 760 OFFCURVE",
"710 822 OFFCURVE",
"817 822 CURVE SMOOTH",
"852 822 OFFCURVE",
"895 851 OFFCURVE",
"895 880 CURVE SMOOTH",
"895 888 OFFCURVE",
"892 895 OFFCURVE",
"883 895 CURVE SMOOTH",
"880 895 OFFCURVE",
"877 894 OFFCURVE",
"872 892 CURVE SMOOTH",
"864 889 OFFCURVE",
"853 885 OFFCURVE",
"833 885 CURVE SMOOTH",
"653 885 OFFCURVE",
"564 790 OFFCURVE",
"522 552 CURVE SMOOTH",
"498 415 LINE",
"280 415 LINE",
"302 555 LINE SMOOTH",
"309 602 OFFCURVE",
"324 656 OFFCURVE",
"340 700 CURVE",
"320 700 OFFCURVE",
"301 695 OFFCURVE",
"269 695 CURVE SMOOTH",
"235 695 OFFCURVE",
"209 700 OFFCURVE",
"184 700 CURVE SMOOTH",
"104 700 OFFCURVE",
"52 662 OFFCURVE",
"34 589 CURVE SMOOTH",
"33 585 OFFCURVE",
"32 578 OFFCURVE",
"32 574 CURVE SMOOTH",
"32 567 OFFCURVE",
"35 562 OFFCURVE",
"40 562 CURVE SMOOTH",
"46 562 OFFCURVE",
"52 569 OFFCURVE",
"59 579 CURVE SMOOTH",
"77 604 OFFCURVE",
"103 615 OFFCURVE",
"145 615 CURVE SMOOTH",
"176 615 OFFCURVE",
"192 610 OFFCURVE",
"205 610 CURVE",
"134 177 LINE SMOOTH",
"123 110 OFFCURVE",
"113 87 OFFCURVE",
"87 65 CURVE SMOOTH",
"68 49 OFFCURVE",
"55 30 OFFCURVE",
"55 10 CURVE SMOOTH",
"55 4 OFFCURVE",
"58 0 OFFCURVE",
"63 0 CURVE SMOOTH",
"72 0 OFFCURVE",
"90 16 OFFCURVE",
"125 16 CURVE SMOOTH",
"157 16 OFFCURVE",
"187 0 OFFCURVE",
"215 0 CURVE SMOOTH",
"239 0 OFFCURVE",
"256 11 OFFCURVE",
"288 53 CURVE SMOOTH",
"296 64 OFFCURVE",
"300 71 OFFCURVE",
"300 80 CURVE SMOOTH",
"300 85 OFFCURVE",
"297 89 OFFCURVE",
"292 89 CURVE SMOOTH",
"280 89 OFFCURVE",
"272 78 OFFCURVE",
"247 78 CURVE SMOOTH",
"233 78 OFFCURVE",
"218 81 OFFCURVE",
"210 85 CURVE",
"210 86 LINE",
"221 96 OFFCURVE",
"230 113 OFFCURVE",
"233 131 CURVE SMOOTH",
"267 328 LINE",
"484 328 LINE",
"451 105 LINE SMOOTH",
"439 24 OFFCURVE",
"462 -10 OFFCURVE",
"500 -10 CURVE SMOOTH"
);
}
);
};
layerId = "56450C88-1299-454A-B666-E6F9AF06B23F";
paths = (
{
closed = 1;
nodes = (
"449 -8 OFFCURVE",
"518 62 OFFCURVE",
"518 98 CURVE SMOOTH",
"518 104 OFFCURVE",
"517 107 OFFCURVE",
"513 107 CURVE SMOOTH",
"500 107 OFFCURVE",
"481 72 OFFCURVE",
"454 72 CURVE SMOOTH",
"444 72 OFFCURVE",
"439 77 OFFCURVE",
"444 105 CURVE SMOOTH",
"500 463 LINE SMOOTH",
"532 666 OFFCURVE",
"595 650 OFFCURVE",
"646 658 CURVE SMOOTH",
"693 665 OFFCURVE",
"708 691 OFFCURVE",
"708 707 CURVE SMOOTH",
"708 713 OFFCURVE",
"706 716 OFFCURVE",
"702 716 CURVE SMOOTH",
"698 716 OFFCURVE",
"695 714 OFFCURVE",
"686 711 CURVE SMOOTH",
"678 709 OFFCURVE",
"667 708 OFFCURVE",
"658 708 CURVE SMOOTH",
"512 702 OFFCURVE",
"444 639 OFFCURVE",
"410 442 CURVE SMOOTH",
"390 331 LINE",
"216 331 LINE",
"234 444 LINE SMOOTH",
"240 486 OFFCURVE",
"253 529 OFFCURVE",
"264 560 CURVE",
"248 560 OFFCURVE",
"234 556 OFFCURVE",
"207 556 CURVE SMOOTH",
"180 556 OFFCURVE",
"160 560 OFFCURVE",
"138 560 CURVE SMOOTH",
"74 560 OFFCURVE",
"30 525 OFFCURVE",
"19 471 CURVE SMOOTH",
"18 466 OFFCURVE",
"18 462 OFFCURVE",
"18 458 CURVE SMOOTH",
"18 452 OFFCURVE",
"20 450 OFFCURVE",
"24 450 CURVE SMOOTH",
"29 450 OFFCURVE",
"34 455 OFFCURVE",
"40 463 CURVE SMOOTH",
"59 487 OFFCURVE",
"79 493 OFFCURVE",
"108 493 CURVE SMOOTH",
"134 493 OFFCURVE",
"146 488 OFFCURVE",
"156 488 CURVE",
"99 142 LINE SMOOTH",
"89 81 OFFCURVE",
"83 73 OFFCURVE",
"62 52 CURVE SMOOTH",
"49 40 OFFCURVE",
"36 26 OFFCURVE",
"36 10 CURVE SMOOTH",
"36 2 OFFCURVE",
"38 0 OFFCURVE",
"42 0 CURVE SMOOTH",
"50 0 OFFCURVE",
"65 13 OFFCURVE",
"92 13 CURVE SMOOTH",
"118 13 OFFCURVE",
"142 0 OFFCURVE",
"163 0 CURVE SMOOTH",
"181 0 OFFCURVE",
"198 9 OFFCURVE",
"222 42 CURVE SMOOTH",
"229 51 OFFCURVE",
"232 58 OFFCURVE",
"232 64 CURVE SMOOTH",
"232 69 OFFCURVE",
"230 71 OFFCURVE",
"226 71 CURVE SMOOTH",
"216 71 OFFCURVE",
"210 62 OFFCURVE",
"190 62 CURVE SMOOTH",
"178 62 OFFCURVE",
"166 65 OFFCURVE",
"160 68 CURVE",
"160 69 LINE",
"169 77 OFFCURVE",
"176 90 OFFCURVE",
"178 105 CURVE SMOOTH",
"206 262 LINE",
"379 262 LINE",
"353 84 LINE SMOOTH",
"343 18 OFFCURVE",
"361 -8 OFFCURVE",
"394 -8 CURVE SMOOTH"
);
}
);
width = 567;
},
{
anchors = (
{
name = bottom;
position = "{250, 0}";
},
{
name = center;
position = "{291, 280}";
},
{
name = top;
position = "{336, 560}";
}
);
background = {
paths = (
{
closed = 1;
nodes = (
"407 -8 OFFCURVE",
"483 51 OFFCURVE",
"483 82 CURVE SMOOTH",
"483 87 OFFCURVE",
"481 90 OFFCURVE",
"478 90 CURVE SMOOTH",
"470 90 OFFCURVE",
"449 61 OFFCURVE",
"426 61 CURVE SMOOTH",
"415 61 OFFCURVE",
"412 66 OFFCURVE",
"417 97 CURVE SMOOTH",
"474 466 LINE SMOOTH",
"503 657 OFFCURVE",
"566 666 OFFCURVE",
"632 674 CURVE SMOOTH",
"674 680 OFFCURVE",
"682 704 OFFCURVE",
"682 710 CURVE SMOOTH",
"682 714 OFFCURVE",
"681 716 OFFCURVE",
"678 716 CURVE SMOOTH",
"676 716 OFFCURVE",
"674 715 OFFCURVE",
"668 713 CURVE SMOOTH",
"657 710 OFFCURVE",
"655 710 OFFCURVE",
"645 709 CURVE SMOOTH",
"492 698 OFFCURVE",
"436 602 OFFCURVE",
"409 442 CURVE SMOOTH",
"389 324 LINE",
"195 324 LINE",
"217 462 LINE SMOOTH",
"221 486 OFFCURVE",
"224 515 OFFCURVE",
"238 560 CURVE",
"222 560 OFFCURVE",
"214 557 OFFCURVE",
"190 557 CURVE SMOOTH",
"166 557 OFFCURVE",
"145 560 OFFCURVE",
"127 560 CURVE SMOOTH",
"76 560 OFFCURVE",
"39 534 OFFCURVE",
"27 489 CURVE SMOOTH",
"26 485 OFFCURVE",
"25 480 OFFCURVE",
"25 475 CURVE SMOOTH",
"25 471 OFFCURVE",
"27 468 OFFCURVE",
"30 468 CURVE SMOOTH",
"34 468 OFFCURVE",
"36 474 OFFCURVE",
"42 482 CURVE SMOOTH",
"57 502 OFFCURVE",
"79 512 OFFCURVE",
"110 512 CURVE SMOOTH",
"129 512 OFFCURVE",
"152 508 OFFCURVE",
"164 508 CURVE",
"105 139 LINE SMOOTH",
"94 77 OFFCURVE",
"109 91 OFFCURVE",
"61 41 CURVE SMOOTH",
"49 29 OFFCURVE",
"43 20 OFFCURVE",
"43 8 CURVE SMOOTH",
"43 3 OFFCURVE",
"44 0 OFFCURVE",
"47 0 CURVE SMOOTH",
"54 0 OFFCURVE",
"68 14 OFFCURVE",
"88 14 CURVE SMOOTH",
"108 14 OFFCURVE",
"132 0 OFFCURVE",
"148 0 CURVE SMOOTH",
"154 0 OFFCURVE",
"168 2 OFFCURVE",
"197 33 CURVE SMOOTH",
"206 42 OFFCURVE",
"207 46 OFFCURVE",
"207 50 CURVE SMOOTH",
"207 54 OFFCURVE",
"205 56 OFFCURVE",
"202 56 CURVE SMOOTH",
"194 56 OFFCURVE",
"186 47 OFFCURVE",
"169 47 CURVE SMOOTH",
"159 47 OFFCURVE",
"153 50 OFFCURVE",
"141 54 CURVE",
"141 55 LINE",
"148 63 OFFCURVE",
"154 75 OFFCURVE",
"156 89 CURVE SMOOTH",
"187 270 LINE",
"380 270 LINE",
"351 74 LINE SMOOTH",
"344 22 OFFCURVE",
"355 -8 OFFCURVE",
"377 -8 CURVE SMOOTH"
);
}
);
};
layerId = "0B1DFD06-3317-40CA-B510-4969A0718C16";
paths = (
{
closed = 1;
nodes = (
"407 -8 OFFCURVE",
"483 51 OFFCURVE",
"483 82 CURVE SMOOTH",
"483 87 OFFCURVE",
"481 90 OFFCURVE",
"478 90 CURVE SMOOTH",
"470 90 OFFCURVE",
"449 61 OFFCURVE",
"426 61 CURVE SMOOTH",
"415 61 OFFCURVE",
"412 66 OFFCURVE",
"417 97 CURVE SMOOTH",
"474 466 LINE SMOOTH",
"497 614 OFFCURVE",
"533 662 OFFCURVE",
"632 674 CURVE SMOOTH",
"674 680 OFFCURVE",
"682 704 OFFCURVE",
"682 711 CURVE SMOOTH",
"682 714 OFFCURVE",
"681 716 OFFCURVE",
"678 716 CURVE SMOOTH",
"676 716 OFFCURVE",
"674 715 OFFCURVE",
"668 713 CURVE SMOOTH",
"661 711 OFFCURVE",
"652 710 OFFCURVE",
"642 709 CURVE SMOOTH",
"504 699 OFFCURVE",
"440 626 OFFCURVE",
"411 454 CURVE SMOOTH",
"389 324 LINE",
"195 324 LINE",
"217 462 LINE SMOOTH",
"221 486 OFFCURVE",
"224 515 OFFCURVE",
"238 560 CURVE",
"224 560 OFFCURVE",
"214 557 OFFCURVE",
"190 557 CURVE SMOOTH",
"166 557 OFFCURVE",
"145 560 OFFCURVE",
"127 560 CURVE SMOOTH",
"76 560 OFFCURVE",
"39 534 OFFCURVE",
"27 489 CURVE SMOOTH",
"26 485 OFFCURVE",
"25 480 OFFCURVE",
"25 475 CURVE SMOOTH",
"25 471 OFFCURVE",
"26 468 OFFCURVE",
"29 468 CURVE SMOOTH",
"33 468 OFFCURVE",
"36 474 OFFCURVE",
"42 482 CURVE SMOOTH",
"57 503 OFFCURVE",
"79 512 OFFCURVE",
"110 512 CURVE SMOOTH",
"129 512 OFFCURVE",
"152 508 OFFCURVE",
"164 508 CURVE",
"105 139 LINE SMOOTH",
"94 77 OFFCURVE",
"109 91 OFFCURVE",
"61 41 CURVE SMOOTH",
"49 29 OFFCURVE",
"43 20 OFFCURVE",
"43 8 CURVE SMOOTH",
"43 3 OFFCURVE",
"44 0 OFFCURVE",
"47 0 CURVE SMOOTH",
"54 0 OFFCURVE",
"68 14 OFFCURVE",
"88 14 CURVE SMOOTH",
"108 14 OFFCURVE",
"132 0 OFFCURVE",
"148 0 CURVE SMOOTH",
"154 0 OFFCURVE",
"168 2 OFFCURVE",
"197 33 CURVE SMOOTH",
"206 42 OFFCURVE",
"207 46 OFFCURVE",
"207 50 CURVE SMOOTH",
"207 54 OFFCURVE",
"205 56 OFFCURVE",
"202 56 CURVE SMOOTH",
"194 56 OFFCURVE",
"186 47 OFFCURVE",
"169 47 CURVE SMOOTH",
"159 47 OFFCURVE",
"153 50 OFFCURVE",
"141 54 CURVE",
"141 55 LINE",
"148 63 OFFCURVE",
"154 75 OFFCURVE",
"156 89 CURVE SMOOTH",
"187 270 LINE",
"380 270 LINE",
"351 74 LINE SMOOTH",
"344 22 OFFCURVE",
"355 -8 OFFCURVE",
"377 -8 CURVE SMOOTH"
);
}
);
width = 549;
}
);
leftKerningGroup = H;
note = H;
rightKerningGroup = H;
unicode = 0048;
},
{
glyphname = I;
lastChange = "2018-06-29 11:13:26 +0000";
layers = (
{
anchors = (
{
name = bottom;
position = "{113, 0}";
},
{
name = ogonek;
position = "{196, 8}";
},
{
name = top;
position = "{209, 560}";
},
{
name = topleft;
position = "{80, 529}";
}
);
background = {
paths = (
{
closed = 0;
nodes = (
"296 615 LINE",
"312 618 OFFCURVE",
"324 620 OFFCURVE",
"338 620 CURVE SMOOTH",
"362 620 OFFCURVE",
"371 610 OFFCURVE",
"380 610 CURVE SMOOTH",
"386 610 OFFCURVE",
"388 613 OFFCURVE",
"388 620 CURVE SMOOTH",
"388 633 OFFCURVE",
"379 652 OFFCURVE",
"355 676 CURVE SMOOTH",
"336 695 OFFCURVE",
"324 700 OFFCURVE",
"306 700 CURVE SMOOTH",
"288 700 OFFCURVE",
"208 682 OFFCURVE",
"161 682 CURVE SMOOTH",
"120 682 OFFCURVE",
"110 690 OFFCURVE",
"91 690 CURVE SMOOTH",
"83 690 OFFCURVE",
"81 688 OFFCURVE",
"81 680 CURVE SMOOTH",
"81 662 OFFCURVE",
"114 603 OFFCURVE",
"147 603 CURVE SMOOTH",
"159 603 OFFCURVE",
"178 606 OFFCURVE",
"188 607 CURVE"
);
}
);
};
layerId = "56450C88-1299-454A-B666-E6F9AF06B23F";
paths = (
{
closed = 1;
nodes = (
"38 0 OFFCURVE",
"55 13 OFFCURVE",
"93 13 CURVE SMOOTH",
"130 13 OFFCURVE",
"152 0 OFFCURVE",
"174 0 CURVE SMOOTH",
"193 0 OFFCURVE",
"216 9 OFFCURVE",
"238 40 CURVE SMOOTH",
"246 53 OFFCURVE",
"248 59 OFFCURVE",
"248 64 CURVE SMOOTH",
"248 68 OFFCURVE",
"246 71 OFFCURVE",
"242 71 CURVE SMOOTH",
"234 71 OFFCURVE",
"229 63 OFFCURVE",
"206 63 CURVE SMOOTH",
"193 63 OFFCURVE",
"181 66 OFFCURVE",
"165 68 CURVE",
"165 69 LINE",
"172 75 OFFCURVE",
"181 96 OFFCURVE",
"183 112 CURVE SMOOTH",
"239 502 LINE",
"251 503 OFFCURVE",
"267 503 OFFCURVE",
"279 505 CURVE SMOOTH",
"305 508 OFFCURVE",
"305 515 OFFCURVE",
"319 541 CURVE SMOOTH",
"324 549 OFFCURVE",
"326 553 OFFCURVE",
"326 558 CURVE SMOOTH",
"326 562 OFFCURVE",
"325 565 OFFCURVE",
"320 566 CURVE SMOOTH",
"314 568 OFFCURVE",
"312 564 OFFCURVE",
"265 562 CURVE SMOOTH",
"238 562 OFFCURVE",
"195 559 OFFCURVE",
"136 560 CURVE SMOOTH",
"104 560 OFFCURVE",
"82 545 OFFCURVE",
"68 518 CURVE SMOOTH",
"62 507 OFFCURVE",
"62 501 OFFCURVE",
"62 497 CURVE SMOOTH",
"62 490 OFFCURVE",
"63 488 OFFCURVE",
"68 488 CURVE SMOOTH",
"74 488 OFFCURVE",
"94 494 OFFCURVE",
"122 496 CURVE SMOOTH",
"139 498 OFFCURVE",
"145 497 OFFCURVE",
"153 498 CURVE",
"102 142 LINE SMOOTH",
"98 110 OFFCURVE",
"94 85 OFFCURVE",
"83 76 CURVE SMOOTH",
"77 70 OFFCURVE",
"58 63 OFFCURVE",
"52 60 CURVE SMOOTH",
"33 50 OFFCURVE",
"21 21 OFFCURVE",
"21 8 CURVE SMOOTH",
"21 3 OFFCURVE",
"22 0 OFFCURVE",
"27 0 CURVE SMOOTH"
);
}
);
width = 317;
},
{
anchors = (
{
name = bottom;
position = "{104, 0}";
},
{
name = ogonek;
position = "{167, 5}";
},
{
name = top;
position = "{204, 560}";
},
{
name = topleft;
position = "{90, 537}";
}
);
background = {
paths = (
{
closed = 1;
nodes = (
"42 0 OFFCURVE",
"66 13 OFFCURVE",
"90 13 CURVE SMOOTH",
"114 13 OFFCURVE",
"145 0 OFFCURVE",
"162 0 CURVE SMOOTH",
"178 0 OFFCURVE",
"198 10 OFFCURVE",
"218 32 CURVE SMOOTH",
"227 43 OFFCURVE",
"228 46 OFFCURVE",
"228 50 CURVE SMOOTH",
"228 54 OFFCURVE",
"226 56 OFFCURVE",
"223 56 CURVE SMOOTH",
"216 56 OFFCURVE",
"212 46 OFFCURVE",
"191 46 CURVE SMOOTH",
"177 46 OFFCURVE",
"161 51 OFFCURVE",
"146 53 CURVE",
"146 54 LINE",
"154 62 OFFCURVE",
"159 76 OFFCURVE",
"161 86 CURVE SMOOTH",
"222 515 LINE",
"236 515 OFFCURVE",
"250 517 OFFCURVE",
"262 518 CURVE SMOOTH",
"286 519 OFFCURVE",
"290 529 OFFCURVE",
"300 546 CURVE SMOOTH",
"303 551 OFFCURVE",
"305 557 OFFCURVE",
"306 560 CURVE SMOOTH",
"306 565 OFFCURVE",
"304 567 OFFCURVE",
"301 567 CURVE SMOOTH",
"294 567 OFFCURVE",
"286 561 OFFCURVE",
"254 560 CURVE SMOOTH",
"230 559 OFFCURVE",
"176 558 OFFCURVE",
"140 557 CURVE SMOOTH",
"114 556 OFFCURVE",
"99 545 OFFCURVE",
"86 526 CURVE SMOOTH",
"82 520 OFFCURVE",
"79 514 OFFCURVE",
"79 511 CURVE SMOOTH",
"79 506 OFFCURVE",
"81 504 OFFCURVE",
"84 504 CURVE SMOOTH",
"91 504 OFFCURVE",
"104 510 OFFCURVE",
"131 511 CURVE SMOOTH",
"146 512 OFFCURVE",
"147 513 OFFCURVE",
"162 513 CURVE",
"108 131 LINE SMOOTH",
"102 89 OFFCURVE",
"98 69 OFFCURVE",
"83 59 CURVE SMOOTH",
"79 57 OFFCURVE",
"80 57 OFFCURVE",
"60 49 CURVE SMOOTH",
"42 42 OFFCURVE",
"29 18 OFFCURVE",
"29 6 CURVE SMOOTH",
"29 2 OFFCURVE",
"30 0 OFFCURVE",
"34 0 CURVE SMOOTH"
);
}
);
};
layerId = "0B1DFD06-3317-40CA-B510-4969A0718C16";
paths = (
{
closed = 1;
nodes = (
"42 0 OFFCURVE",
"66 13 OFFCURVE",
"90 13 CURVE SMOOTH",
"114 13 OFFCURVE",
"145 0 OFFCURVE",
"162 0 CURVE SMOOTH",
"178 0 OFFCURVE",
"198 10 OFFCURVE",
"218 32 CURVE SMOOTH",
"227 43 OFFCURVE",
"228 48 OFFCURVE",
"228 51 CURVE SMOOTH",
"228 54 OFFCURVE",
"227 56 OFFCURVE",
"224 56 CURVE SMOOTH",
"218 56 OFFCURVE",
"211 46 OFFCURVE",
"191 46 CURVE SMOOTH",
"176 46 OFFCURVE",
"161 51 OFFCURVE",
"146 53 CURVE",
"146 54 LINE",
"154 62 OFFCURVE",
"160 75 OFFCURVE",
"161 86 CURVE SMOOTH",
"222 515 LINE",
"234 516 OFFCURVE",
"250 517 OFFCURVE",
"262 518 CURVE SMOOTH",
"286 519 OFFCURVE",
"290 529 OFFCURVE",
"300 546 CURVE SMOOTH",
"303 551 OFFCURVE",
"306 557 OFFCURVE",
"306 562 CURVE SMOOTH",
"306 565 OFFCURVE",
"304 567 OFFCURVE",
"301 567 CURVE SMOOTH",
"294 567 OFFCURVE",
"286 561 OFFCURVE",
"254 560 CURVE SMOOTH",
"230 559 OFFCURVE",
"176 558 OFFCURVE",
"140 557 CURVE SMOOTH",
"114 556 OFFCURVE",
"99 545 OFFCURVE",
"86 526 CURVE SMOOTH",
"82 520 OFFCURVE",
"79 514 OFFCURVE",
"79 509 CURVE SMOOTH",
"79 505 OFFCURVE",
"81 504 OFFCURVE",
"84 504 CURVE SMOOTH",
"91 504 OFFCURVE",
"104 510 OFFCURVE",
"131 512 CURVE SMOOTH",
"146 513 OFFCURVE",
"147 513 OFFCURVE",
"162 513 CURVE",
"108 131 LINE SMOOTH",
"102 89 OFFCURVE",
"98 69 OFFCURVE",
"83 59 CURVE SMOOTH",
"79 57 OFFCURVE",
"80 57 OFFCURVE",
"60 49 CURVE SMOOTH",
"42 42 OFFCURVE",
"29 17 OFFCURVE",
"29 6 CURVE SMOOTH",
"29 2 OFFCURVE",
"30 0 OFFCURVE",
"34 0 CURVE SMOOTH"
);
}
);
width = 310;
}
);
leftKerningGroup = I;
note = I;
rightKerningGroup = I;
unicode = 0049;
},
{
glyphname = J;
lastChange = "2018-06-29 11:13:26 +0000";
layers = (
{
anchors = (
{
name = bottom;
position = "{73, -170}";
},
{
name = top;
position = "{275, 560}";
}
);
background = {
paths = (
{
closed = 1;
nodes = (
"190 -170 OFFCURVE",
"278 -62 OFFCURVE",
"303 117 CURVE SMOOTH",
"349 444 LINE SMOOTH",
"354 478 OFFCURVE",
"364 522 OFFCURVE",
"378 560 CURVE",
"361 556 OFFCURVE",
"344 552 OFFCURVE",
"317 552 CURVE SMOOTH",
"278 552 OFFCURVE",
"220 560 OFFCURVE",
"187 560 CURVE SMOOTH",
"120 560 OFFCURVE",
"65 527 OFFCURVE",
"51 473 CURVE SMOOTH",
"50 469 OFFCURVE",
"49 464 OFFCURVE",
"49 459 CURVE SMOOTH",
"49 454 OFFCURVE",
"50 450 OFFCURVE",
"55 450 CURVE SMOOTH",
"61 450 OFFCURVE",
"66 457 OFFCURVE",
"73 463 CURVE SMOOTH",
"100 487 OFFCURVE",
"131 491 OFFCURVE",
"159 491 CURVE SMOOTH",
"207 491 OFFCURVE",
"237 479 OFFCURVE",
"264 479 CURVE SMOOTH",
"269 479 LINE",
"210 70 LINE SMOOTH",
"192 -58 OFFCURVE",
"166 -109 OFFCURVE",
"113 -109 CURVE SMOOTH",
"67 -109 OFFCURVE",
"46 -72 OFFCURVE",
"37 -2 CURVE SMOOTH",
"36 6 OFFCURVE",
"34 9 OFFCURVE",
"29 9 CURVE SMOOTH",
"10 9 OFFCURVE",
"-46 -35 OFFCURVE",
"-45 -66 CURVE SMOOTH",
"-44 -87 OFFCURVE",
"-19 -170 OFFCURVE",
"78 -170 CURVE SMOOTH"
);
}
);
};
layerId = "56450C88-1299-454A-B666-E6F9AF06B23F";
paths = (
{
closed = 1;
nodes = (
"190 -170 OFFCURVE",
"278 -62 OFFCURVE",
"303 117 CURVE SMOOTH",
"349 444 LINE SMOOTH",
"354 478 OFFCURVE",
"364 522 OFFCURVE",
"378 560 CURVE",
"361 556 OFFCURVE",
"344 552 OFFCURVE",
"317 552 CURVE SMOOTH",
"278 552 OFFCURVE",
"220 560 OFFCURVE",
"187 560 CURVE SMOOTH",
"120 560 OFFCURVE",
"65 527 OFFCURVE",
"51 473 CURVE SMOOTH",
"50 469 OFFCURVE",
"49 464 OFFCURVE",
"49 459 CURVE SMOOTH",
"49 454 OFFCURVE",
"50 450 OFFCURVE",
"55 450 CURVE SMOOTH",
"61 450 OFFCURVE",
"66 457 OFFCURVE",
"73 463 CURVE SMOOTH",
"100 487 OFFCURVE",
"131 491 OFFCURVE",
"159 491 CURVE SMOOTH",
"207 491 OFFCURVE",
"237 479 OFFCURVE",
"264 479 CURVE SMOOTH",
"269 479 LINE",
"210 70 LINE SMOOTH",
"192 -58 OFFCURVE",
"166 -109 OFFCURVE",
"113 -109 CURVE SMOOTH",
"67 -109 OFFCURVE",
"46 -72 OFFCURVE",
"37 -2 CURVE SMOOTH",
"36 6 OFFCURVE",
"34 9 OFFCURVE",
"29 9 CURVE SMOOTH",
"10 9 OFFCURVE",
"-46 -35 OFFCURVE",
"-45 -66 CURVE SMOOTH",
"-44 -87 OFFCURVE",
"-19 -170 OFFCURVE",
"78 -170 CURVE SMOOTH"
);
}
);
width = 382;
},
{
anchors = (
{
name = bottom;
position = "{86, -170}";
},
{
name = top;
position = "{259, 560}";
}
);
background = {
paths = (
{
closed = 1;
nodes = (
"179 -170 OFFCURVE",
"254 -73 OFFCURVE",
"282 108 CURVE SMOOTH",
"338 470 LINE SMOOTH",
"342 494 OFFCURVE",
"343 516 OFFCURVE",
"358 560 CURVE",
"342 554 OFFCURVE",
"332 552 OFFCURVE",
"308 552 CURVE SMOOTH",
"263 552 OFFCURVE",
"237 560 OFFCURVE",
"195 560 CURVE SMOOTH",
"118 560 OFFCURVE",
"76 534 OFFCURVE",
"62 477 CURVE SMOOTH",
"61 472 OFFCURVE",
"61 471 OFFCURVE",
"61 468 CURVE SMOOTH",
"61 465 OFFCURVE",
"63 462 OFFCURVE",
"67 462 CURVE SMOOTH",
"71 462 OFFCURVE",
"75 465 OFFCURVE",
"82 474 CURVE SMOOTH",
"95 491 OFFCURVE",
"117 512 OFFCURVE",
"174 512 CURVE SMOOTH",
"218 512 OFFCURVE",
"248 499 OFFCURVE",
"278 499 CURVE SMOOTH",
"283 499 LINE",
"214 59 LINE SMOOTH",
"192 -78 OFFCURVE",
"164 -126 OFFCURVE",
"105 -126 CURVE SMOOTH",
"37 -126 OFFCURVE",
"29 -62 OFFCURVE",
"25 -22 CURVE SMOOTH",
"24 -13 OFFCURVE",
"23 -12 OFFCURVE",
"14 -15 CURVE SMOOTH",
"-9 -24 OFFCURVE",
"-37 -47 OFFCURVE",
"-36 -75 CURVE SMOOTH",
"-35 -103 OFFCURVE",
"-5 -170 OFFCURVE",
"78 -170 CURVE SMOOTH"
);
}
);
};
layerId = "0B1DFD06-3317-40CA-B510-4969A0718C16";
paths = (
{
closed = 1;
nodes = (
"179 -170 OFFCURVE",
"254 -73 OFFCURVE",
"282 108 CURVE SMOOTH",
"338 470 LINE SMOOTH",
"342 494 OFFCURVE",
"343 516 OFFCURVE",
"358 560 CURVE",
"342 554 OFFCURVE",
"332 552 OFFCURVE",
"308 552 CURVE SMOOTH",
"263 552 OFFCURVE",
"237 560 OFFCURVE",
"195 560 CURVE SMOOTH",
"116 560 OFFCURVE",
"74 534 OFFCURVE",
"62 477 CURVE SMOOTH",
"61 472 OFFCURVE",
"61 471 OFFCURVE",
"61 468 CURVE SMOOTH",
"61 465 OFFCURVE",
"63 462 OFFCURVE",
"67 462 CURVE SMOOTH",
"71 462 OFFCURVE",
"74 465 OFFCURVE",
"82 474 CURVE SMOOTH",
"96 490 OFFCURVE",
"117 512 OFFCURVE",
"174 512 CURVE SMOOTH",
"218 512 OFFCURVE",
"249 499 OFFCURVE",
"279 499 CURVE SMOOTH",
"283 499 LINE",
"214 59 LINE SMOOTH",
"192 -78 OFFCURVE",
"164 -126 OFFCURVE",
"105 -126 CURVE SMOOTH",
"37 -126 OFFCURVE",
"29 -62 OFFCURVE",
"25 -22 CURVE SMOOTH",
"24 -13 OFFCURVE",
"23 -12 OFFCURVE",
"14 -15 CURVE SMOOTH",
"-9 -24 OFFCURVE",
"-37 -47 OFFCURVE",
"-36 -75 CURVE SMOOTH",
"-35 -103 OFFCURVE",
"-5 -170 OFFCURVE",
"78 -170 CURVE SMOOTH"
);
}
);
width = 371;
}
);
leftKerningGroup = J;
note = J;
rightKerningGroup = J;
unicode = 004A;
},
{
glyphname = K;
lastChange = "2018-06-29 11:13:26 +0000";
layers = (
{
anchors = (
{
name = bottom;
position = "{296, 0}";
},
{
name = top;
position = "{350, 700}";
}
);
background = {
paths = (
{
closed = 1;
nodes = (
"257 318 LINE",
"350 142 LINE SMOOTH",
"404 40 OFFCURVE",
"434 -10 OFFCURVE",
"479 -10 CURVE SMOOTH",
"527 -10 OFFCURVE",
"604 95 OFFCURVE",
"604 158 CURVE SMOOTH",
"604 165 OFFCURVE",
"601 170 OFFCURVE",
"594 170 CURVE SMOOTH",
"585 170 OFFCURVE",
"581 164 OFFCURVE",
"572 149 CURVE SMOOTH",
"562 133 OFFCURVE",
"540 97 OFFCURVE",
"514 97 CURVE SMOOTH",
"493 97 OFFCURVE",
"481 117 OFFCURVE",
"459 156 CURVE SMOOTH",
"331 388 LINE",
"523 620 LINE SMOOTH",
"616 732 OFFCURVE",
"703 813 OFFCURVE",
"798 813 CURVE SMOOTH",
"833 813 OFFCURVE",
"876 846 OFFCURVE",
"876 875 CURVE SMOOTH",
"876 882 OFFCURVE",
"874 886 OFFCURVE",
"867 886 CURVE SMOOTH",
"863 886 OFFCURVE",
"856 882 OFFCURVE",
"848 880 CURVE SMOOTH",
"840 878 OFFCURVE",
"829 876 OFFCURVE",
"814 876 CURVE SMOOTH",
"673 876 OFFCURVE",
"578 815 OFFCURVE",
"411 613 CURVE SMOOTH",
"280 455 LINE",
"298 565 LINE SMOOTH",
"306 617 OFFCURVE",
"316 659 OFFCURVE",
"329 700 CURVE",
"309 700 OFFCURVE",
"292 695 OFFCURVE",
"263 695 CURVE SMOOTH",
"229 695 OFFCURVE",
"203 700 OFFCURVE",
"178 700 CURVE SMOOTH",
"98 700 OFFCURVE",
"44 663 OFFCURVE",
"28 589 CURVE SMOOTH",
"27 583 OFFCURVE",
"26 578 OFFCURVE",
"26 572 CURVE SMOOTH",
"26 565 OFFCURVE",
"29 562 OFFCURVE",
"34 562 CURVE SMOOTH",
"40 562 OFFCURVE",
"46 569 OFFCURVE",
"54 579 CURVE SMOOTH",
"76 607 OFFCURVE",
"100 616 OFFCURVE",
"139 616 CURVE SMOOTH",
"168 616 OFFCURVE",
"188 610 OFFCURVE",
"202 610 CURVE",
"132 177 LINE SMOOTH",
"121 110 OFFCURVE",
"111 87 OFFCURVE",
"85 65 CURVE SMOOTH",
"66 49 OFFCURVE",
"53 30 OFFCURVE",
"53 10 CURVE SMOOTH",
"53 4 OFFCURVE",
"56 0 OFFCURVE",
"61 0 CURVE SMOOTH",
"70 0 OFFCURVE",
"88 16 OFFCURVE",
"123 16 CURVE SMOOTH",
"155 16 OFFCURVE",
"181 0 OFFCURVE",
"209 0 CURVE SMOOTH",
"233 0 OFFCURVE",
"251 10 OFFCURVE",
"282 53 CURVE SMOOTH",
"290 64 OFFCURVE",
"294 72 OFFCURVE",
"294 81 CURVE SMOOTH",
"294 86 OFFCURVE",
"291 89 OFFCURVE",
"286 89 CURVE SMOOTH",
"274 89 OFFCURVE",
"266 78 OFFCURVE",
"241 78 CURVE SMOOTH",
"227 78 OFFCURVE",
"212 81 OFFCURVE",
"204 85 CURVE",
"204 86 LINE",
"215 96 OFFCURVE",
"224 113 OFFCURVE",
"227 131 CURVE SMOOTH"
);
}
);
};
layerId = "56450C88-1299-454A-B666-E6F9AF06B23F";
paths = (
{
closed = 1;
nodes = (
"422 -10 OFFCURVE",
"480 78 OFFCURVE",
"480 123 CURVE SMOOTH",
"480 131 OFFCURVE",
"479 135 OFFCURVE",
"473 135 CURVE SMOOTH",
"466 135 OFFCURVE",
"462 130 OFFCURVE",
"455 118 CURVE SMOOTH",
"447 106 OFFCURVE",
"429 76 OFFCURVE",
"407 76 CURVE SMOOTH",
"391 76 OFFCURVE",
"381 92 OFFCURVE",
"364 123 CURVE SMOOTH",
"261 310 LINE",
"415 496 LINE SMOOTH",
"455 544 OFFCURVE",
"494 585 OFFCURVE",
"533 613 CURVE SMOOTH",
"577 645 OFFCURVE",
"602 649 OFFCURVE",
"636 651 CURVE SMOOTH",
"672 653 OFFCURVE",
"699 681 OFFCURVE",
"699 701 CURVE SMOOTH",
"699 706 OFFCURVE",
"697 710 OFFCURVE",
"692 710 CURVE SMOOTH",
"688 710 OFFCURVE",
"685 707 OFFCURVE",
"676 705 CURVE SMOOTH",
"667 702 OFFCURVE",
"659 702 OFFCURVE",
"649 702 CURVE SMOOTH",
"606 700 OFFCURVE",
"561 698 OFFCURVE",
"504 662 CURVE SMOOTH",
"439 623 OFFCURVE",
"385 562 OFFCURVE",
"325 490 CURVE SMOOTH",
"220 363 LINE",
"234 452 LINE SMOOTH",
"242 496 OFFCURVE",
"247 522 OFFCURVE",
"259 560 CURVE",
"243 560 OFFCURVE",
"231 556 OFFCURVE",
"206 556 CURVE SMOOTH",
"180 556 OFFCURVE",
"159 560 OFFCURVE",
"136 560 CURVE SMOOTH",
"72 560 OFFCURVE",
"28 527 OFFCURVE",
"18 471 CURVE SMOOTH",
"17 466 OFFCURVE",
"16 462 OFFCURVE",
"16 458 CURVE SMOOTH",
"16 452 OFFCURVE",
"18 449 OFFCURVE",
"22 449 CURVE SMOOTH",
"27 449 OFFCURVE",
"32 455 OFFCURVE",
"38 463 CURVE SMOOTH",
"58 487 OFFCURVE",
"78 493 OFFCURVE",
"105 493 CURVE SMOOTH",
"131 493 OFFCURVE",
"145 488 OFFCURVE",
"157 488 CURVE",
"101 140 LINE SMOOTH",
"92 86 OFFCURVE",
"86 72 OFFCURVE",
"63 50 CURVE SMOOTH",
"51 38 OFFCURVE",
"38 25 OFFCURVE",
"38 8 CURVE SMOOTH",
"38 0 OFFCURVE",
"40 -2 OFFCURVE",
"43 -2 CURVE SMOOTH",
"51 -2 OFFCURVE",
"67 11 OFFCURVE",
"94 11 CURVE SMOOTH",
"120 11 OFFCURVE",
"140 -2 OFFCURVE",
"163 -2 CURVE SMOOTH",
"181 -2 OFFCURVE",
"197 5 OFFCURVE",
"222 41 CURVE SMOOTH",
"228 49 OFFCURVE",
"231 56 OFFCURVE",
"231 62 CURVE SMOOTH",
"231 67 OFFCURVE",
"230 70 OFFCURVE",
"225 70 CURVE SMOOTH",
"215 70 OFFCURVE",
"209 61 OFFCURVE",
"189 61 CURVE SMOOTH",
"177 61 OFFCURVE",
"165 63 OFFCURVE",
"159 66 CURVE",
"159 67 LINE",
"168 75 OFFCURVE",
"175 89 OFFCURVE",
"177 103 CURVE SMOOTH",
"202 253 LINE",
"276 112 LINE SMOOTH",
"316 37 OFFCURVE",
"344 -10 OFFCURVE",
"377 -10 CURVE SMOOTH"
);
}
);
width = 634;
},
{
anchors = (
{
name = bottom;
position = "{218, 0}";
},
{
name = top;
position = "{271, 560}";
}
);
background = {
paths = (
{
closed = 1;
nodes = (
"398 -8 OFFCURVE",
"451 72 OFFCURVE",
"451 100 CURVE SMOOTH",
"451 104 OFFCURVE",
"450 109 OFFCURVE",
"445 109 CURVE SMOOTH",
"439 109 OFFCURVE",
"436 103 OFFCURVE",
"430 95 CURVE SMOOTH",
"418 79 OFFCURVE",
"400 60 OFFCURVE",
"385 60 CURVE SMOOTH",
"370 60 OFFCURVE",
"361 76 OFFCURVE",
"342 113 CURVE SMOOTH",
"240 310 LINE",
"342 458 LINE SMOOTH",
"412 560 OFFCURVE",
"459 612 OFFCURVE",
"495 636 CURVE SMOOTH",
"542 668 OFFCURVE",
"571 656 OFFCURVE",
"619 666 CURVE SMOOTH",
"657 674 OFFCURVE",
"669 688 OFFCURVE",
"669 702 CURVE SMOOTH",
"669 707 OFFCURVE",
"666 708 OFFCURVE",
"664 708 CURVE SMOOTH",
"662 708 OFFCURVE",
"660 707 OFFCURVE",
"655 705 CURVE SMOOTH",
"650 703 OFFCURVE",
"648 702 OFFCURVE",
"632 701 CURVE SMOOTH",
"567 697 OFFCURVE",
"518 692 OFFCURVE",
"472 669 CURVE SMOOTH",
"413 640 OFFCURVE",
"370 586 OFFCURVE",
"298 482 CURVE SMOOTH",
"189 324 LINE",
"210 462 LINE SMOOTH",
"215 496 OFFCURVE",
"224 531 OFFCURVE",
"234 560 CURVE",
"217 560 OFFCURVE",
"209 557 OFFCURVE",
"186 557 CURVE SMOOTH",
"162 557 OFFCURVE",
"141 560 OFFCURVE",
"123 560 CURVE SMOOTH",
"72 560 OFFCURVE",
"34 534 OFFCURVE",
"23 489 CURVE SMOOTH",
"22 485 OFFCURVE",
"21 480 OFFCURVE",
"21 475 CURVE SMOOTH",
"21 471 OFFCURVE",
"22 468 OFFCURVE",
"25 468 CURVE SMOOTH",
"29 468 OFFCURVE",
"32 474 OFFCURVE",
"38 482 CURVE SMOOTH",
"53 502 OFFCURVE",
"75 512 OFFCURVE",
"106 512 CURVE SMOOTH",
"125 512 OFFCURVE",
"146 508 OFFCURVE",
"158 508 CURVE",
"99 139 LINE SMOOTH",
"89 78 OFFCURVE",
"103 91 OFFCURVE",
"55 41 CURVE SMOOTH",
"43 29 OFFCURVE",
"38 20 OFFCURVE",
"38 8 CURVE SMOOTH",
"38 3 OFFCURVE",
"39 0 OFFCURVE",
"43 0 CURVE SMOOTH",
"49 0 OFFCURVE",
"62 14 OFFCURVE",
"82 14 CURVE SMOOTH",
"102 14 OFFCURVE",
"126 0 OFFCURVE",
"142 0 CURVE SMOOTH",
"149 0 OFFCURVE",
"162 2 OFFCURVE",
"191 33 CURVE SMOOTH",
"200 42 OFFCURVE",
"202 46 OFFCURVE",
"202 50 CURVE SMOOTH",
"202 54 OFFCURVE",
"199 56 OFFCURVE",
"196 56 CURVE SMOOTH",
"189 56 OFFCURVE",
"181 47 OFFCURVE",
"163 47 CURVE SMOOTH",
"154 47 OFFCURVE",
"147 50 OFFCURVE",
"135 54 CURVE",
"135 55 LINE",
"142 62 OFFCURVE",
"148 74 OFFCURVE",
"150 89 CURVE SMOOTH",
"183 288 LINE",
"275 108 LINE SMOOTH",
"309 42 OFFCURVE",
"335 -8 OFFCURVE",
"363 -8 CURVE SMOOTH"
);
}
);
};
layerId = "0B1DFD06-3317-40CA-B510-4969A0718C16";
paths = (
{
closed = 1;
nodes = (
"398 -8 OFFCURVE",
"451 72 OFFCURVE",
"451 100 CURVE SMOOTH",
"451 104 OFFCURVE",
"450 109 OFFCURVE",
"445 109 CURVE SMOOTH",
"440 109 OFFCURVE",
"436 103 OFFCURVE",
"430 95 CURVE SMOOTH",
"418 79 OFFCURVE",
"400 60 OFFCURVE",
"385 60 CURVE SMOOTH",
"370 60 OFFCURVE",
"361 76 OFFCURVE",
"342 113 CURVE SMOOTH",
"240 310 LINE",
"342 458 LINE SMOOTH",
"412 560 OFFCURVE",
"457 614 OFFCURVE",
"493 636 CURVE SMOOTH",
"540 665 OFFCURVE",
"571 659 OFFCURVE",
"619 666 CURVE SMOOTH",
"657 672 OFFCURVE",
"669 689 OFFCURVE",
"669 703 CURVE SMOOTH",
"669 707 OFFCURVE",
"667 708 OFFCURVE",
"665 708 CURVE SMOOTH",
"662 708 OFFCURVE",
"661 707 OFFCURVE",
"655 705 CURVE SMOOTH",
"649 703 OFFCURVE",
"646 702 OFFCURVE",
"632 701 CURVE SMOOTH",
"567 696 OFFCURVE",
"518 692 OFFCURVE",
"472 669 CURVE SMOOTH",
"413 640 OFFCURVE",
"370 586 OFFCURVE",
"298 482 CURVE SMOOTH",
"189 324 LINE",
"210 462 LINE SMOOTH",
"215 496 OFFCURVE",
"224 531 OFFCURVE",
"234 560 CURVE",
"217 560 OFFCURVE",
"209 557 OFFCURVE",
"186 557 CURVE SMOOTH",
"162 557 OFFCURVE",
"141 560 OFFCURVE",
"123 560 CURVE SMOOTH",
"72 560 OFFCURVE",
"34 534 OFFCURVE",
"23 489 CURVE SMOOTH",
"22 485 OFFCURVE",
"21 480 OFFCURVE",
"21 475 CURVE SMOOTH",
"21 471 OFFCURVE",
"22 468 OFFCURVE",
"25 468 CURVE SMOOTH",
"29 468 OFFCURVE",
"32 474 OFFCURVE",
"38 482 CURVE SMOOTH",
"53 502 OFFCURVE",
"75 512 OFFCURVE",
"106 512 CURVE SMOOTH",
"125 512 OFFCURVE",
"146 508 OFFCURVE",
"158 508 CURVE",
"99 139 LINE SMOOTH",
"89 78 OFFCURVE",
"103 91 OFFCURVE",
"55 41 CURVE SMOOTH",
"43 29 OFFCURVE",
"38 20 OFFCURVE",
"38 8 CURVE SMOOTH",
"38 3 OFFCURVE",
"39 0 OFFCURVE",
"42 0 CURVE SMOOTH",
"48 0 OFFCURVE",
"62 14 OFFCURVE",
"82 14 CURVE SMOOTH",
"102 14 OFFCURVE",
"126 0 OFFCURVE",
"142 0 CURVE SMOOTH",
"149 0 OFFCURVE",
"162 2 OFFCURVE",
"191 33 CURVE SMOOTH",
"200 42 OFFCURVE",
"202 47 OFFCURVE",
"202 51 CURVE SMOOTH",
"202 54 OFFCURVE",
"200 56 OFFCURVE",
"197 56 CURVE SMOOTH",
"190 56 OFFCURVE",
"181 47 OFFCURVE",
"163 47 CURVE SMOOTH",
"154 47 OFFCURVE",
"147 50 OFFCURVE",
"135 54 CURVE",
"135 55 LINE",
"142 62 OFFCURVE",
"148 74 OFFCURVE",
"150 89 CURVE SMOOTH",
"183 288 LINE",
"275 108 LINE SMOOTH",
"309 42 OFFCURVE",
"335 -8 OFFCURVE",
"363 -8 CURVE SMOOTH"
);
}
);
width = 491;
}
);
leftKerningGroup = H;
note = K;
rightKerningGroup = K;
unicode = 004B;
},
{
glyphname = L;
lastChange = "2018-06-29 11:13:26 +0000";
layers = (
{
anchors = (
{
name = bottom;
position = "{157, 0}";
},
{
name = center;
position = "{291, 280}";
},
{
name = top;
position = "{303, 600}";
},
{
name = topright;
position = "{436, 600}";
}
);
background = {
paths = (
{
closed = 1;
nodes = (
"-14 0 OFFCURVE",
"-1 17 OFFCURVE",
"46 17 CURVE SMOOTH",
"128 17 OFFCURVE",
"195 0 OFFCURVE",
"277 0 CURVE SMOOTH",
"379 0 OFFCURVE",
"480 64 OFFCURVE",
"480 123 CURVE SMOOTH",
"480 131 OFFCURVE",
"477 137 OFFCURVE",
"470 137 CURVE SMOOTH",
"463 137 OFFCURVE",
"456 131 OFFCURVE",
"450 127 CURVE SMOOTH",
"414 103 OFFCURVE",
"391 88 OFFCURVE",
"287 88 CURVE SMOOTH",
"262 88 OFFCURVE",
"198 92 OFFCURVE",
"167 97 CURVE",
"167 98 LINE",
"184 116 OFFCURVE",
"195 142 OFFCURVE",
"202 183 CURVE SMOOTH",
"264 559 LINE SMOOTH",
"281 660 OFFCURVE",
"310 700 OFFCURVE",
"366 700 CURVE SMOOTH",
"402 700 OFFCURVE",
"414 688 OFFCURVE",
"434 688 CURVE SMOOTH",
"455 688 OFFCURVE",
"514 726 OFFCURVE",
"514 741 CURVE SMOOTH",
"514 749 OFFCURVE",
"506 751 OFFCURVE",
"498 754 CURVE SMOOTH",
"475 763 OFFCURVE",
"439 770 OFFCURVE",
"407 770 CURVE SMOOTH",
"348 770 OFFCURVE",
"294 745 OFFCURVE",
"246 700 CURVE SMOOTH",
"190 648 OFFCURVE",
"164 601 OFFCURVE",
"154 541 CURVE SMOOTH",
"99 208 LINE SMOOTH",
"91 157 OFFCURVE",
"80 124 OFFCURVE",
"66 104 CURVE",
"61 104 OFFCURVE",
"51 104 OFFCURVE",
"44 104 CURVE SMOOTH",
"5 104 OFFCURVE",
"-36 61 OFFCURVE",
"-36 11 CURVE SMOOTH",
"-36 4 OFFCURVE",
"-33 0 OFFCURVE",
"-27 0 CURVE SMOOTH"
);
}
);
};
layerId = "56450C88-1299-454A-B666-E6F9AF06B23F";
paths = (
{
closed = 1;
nodes = (
"-18 0 OFFCURVE",
"-15 14 OFFCURVE",
"34 14 CURVE SMOOTH",
"84 14 OFFCURVE",
"158 0 OFFCURVE",
"206 0 CURVE SMOOTH",
"305 0 OFFCURVE",
"376 56 OFFCURVE",
"376 98 CURVE SMOOTH",
"376 106 OFFCURVE",
"374 110 OFFCURVE",
"370 110 CURVE SMOOTH",
"364 110 OFFCURVE",
"355 104 OFFCURVE",
"352 102 CURVE SMOOTH",
"324 82 OFFCURVE",
"299 70 OFFCURVE",
"232 70 CURVE SMOOTH",
"197 70 OFFCURVE",
"150 74 OFFCURVE",
"126 78 CURVE",
"126 78 LINE",
"138 92 OFFCURVE",
"148 113 OFFCURVE",
"154 146 CURVE SMOOTH",
"203 447 LINE SMOOTH",
"213 506 OFFCURVE",
"224 533 OFFCURVE",
"246 549 CURVE SMOOTH",
"256 557 OFFCURVE",
"269 560 OFFCURVE",
"285 560 CURVE SMOOTH",
"313 560 OFFCURVE",
"326 550 OFFCURVE",
"337 550 CURVE SMOOTH",
"357 550 OFFCURVE",
"403 581 OFFCURVE",
"403 594 CURVE SMOOTH",
"403 599 OFFCURVE",
"394 602 OFFCURVE",
"390 603 CURVE SMOOTH",
"370 610 OFFCURVE",
"346 616 OFFCURVE",
"319 616 CURVE SMOOTH",
"266 616 OFFCURVE",
"226 594 OFFCURVE",
"189 560 CURVE SMOOTH",
"146 521 OFFCURVE",
"123 481 OFFCURVE",
"115 433 CURVE SMOOTH",
"71 166 LINE SMOOTH",
"65 126 OFFCURVE",
"57 101 OFFCURVE",
"45 83 CURVE",
"41 83 OFFCURVE",
"33 83 OFFCURVE",
"27 83 CURVE SMOOTH",
"-4 83 OFFCURVE",
"-37 46 OFFCURVE",
"-37 10 CURVE SMOOTH",
"-37 2 OFFCURVE",
"-35 0 OFFCURVE",
"-30 0 CURVE SMOOTH"
);
}
);
width = 408;
},
{
anchors = (
{
name = bottom;
position = "{147, 0}";
},
{
name = center;
position = "{285, 280}";
},
{
name = top;
position = "{326, 600}";
},
{
name = topright;
position = "{412, 600}";
}
);
background = {
paths = (
{
closed = 1;
nodes = (
"-13 0 OFFCURVE",
"-11 14 OFFCURVE",
"41 14 CURVE SMOOTH",
"93 14 OFFCURVE",
"158 0 OFFCURVE",
"203 0 CURVE SMOOTH",
"293 0 OFFCURVE",
"364 54 OFFCURVE",
"364 83 CURVE SMOOTH",
"364 88 OFFCURVE",
"362 92 OFFCURVE",
"358 92 CURVE SMOOTH",
"356 92 OFFCURVE",
"353 90 OFFCURVE",
"348 87 CURVE SMOOTH",
"315 66 OFFCURVE",
"271 53 OFFCURVE",
"221 53 CURVE SMOOTH",
"194 53 OFFCURVE",
"125 57 OFFCURVE",
"102 62 CURVE",
"102 63 LINE",
"115 75 OFFCURVE",
"126 98 OFFCURVE",
"130 120 CURVE SMOOTH",
"189 457 LINE SMOOTH",
"197 506 OFFCURVE",
"210 540 OFFCURVE",
"233 559 CURVE SMOOTH",
"246 571 OFFCURVE",
"264 578 OFFCURVE",
"286 578 CURVE SMOOTH",
"310 578 OFFCURVE",
"325 570 OFFCURVE",
"334 570 CURVE SMOOTH",
"347 570 OFFCURVE",
"382 585 OFFCURVE",
"382 595 CURVE SMOOTH",
"382 599 OFFCURVE",
"377 602 OFFCURVE",
"372 605 CURVE SMOOTH",
"357 612 OFFCURVE",
"334 616 OFFCURVE",
"313 616 CURVE SMOOTH",
"268 616 OFFCURVE",
"230 598 OFFCURVE",
"193 562 CURVE SMOOTH",
"150 520 OFFCURVE",
"134 482 OFFCURVE",
"127 441 CURVE SMOOTH",
"78 154 LINE SMOOTH",
"69 102 OFFCURVE",
"58 82 OFFCURVE",
"46 66 CURVE",
"40 66 OFFCURVE",
"36 66 OFFCURVE",
"27 66 CURVE SMOOTH",
"2 66 OFFCURVE",
"-29 29 OFFCURVE",
"-29 7 CURVE SMOOTH",
"-29 3 OFFCURVE",
"-27 0 OFFCURVE",
"-23 0 CURVE SMOOTH"
);
}
);
};
layerId = "0B1DFD06-3317-40CA-B510-4969A0718C16";
paths = (
{
closed = 1;
nodes = (
"-14 0 OFFCURVE",
"-11 14 OFFCURVE",
"41 14 CURVE SMOOTH",
"93 14 OFFCURVE",
"158 0 OFFCURVE",
"203 0 CURVE SMOOTH",
"293 0 OFFCURVE",
"364 54 OFFCURVE",
"364 83 CURVE SMOOTH",
"364 88 OFFCURVE",
"363 92 OFFCURVE",
"359 92 CURVE SMOOTH",
"357 92 OFFCURVE",
"353 90 OFFCURVE",
"348 87 CURVE SMOOTH",
"315 66 OFFCURVE",
"271 53 OFFCURVE",
"221 53 CURVE SMOOTH",
"194 53 OFFCURVE",
"125 57 OFFCURVE",
"102 62 CURVE",
"102 63 LINE",
"115 75 OFFCURVE",
"126 98 OFFCURVE",
"130 120 CURVE SMOOTH",
"189 457 LINE SMOOTH",
"197 506 OFFCURVE",
"210 540 OFFCURVE",
"233 559 CURVE SMOOTH",
"246 571 OFFCURVE",
"264 578 OFFCURVE",
"286 578 CURVE SMOOTH",
"310 578 OFFCURVE",
"325 570 OFFCURVE",
"334 570 CURVE SMOOTH",
"347 570 OFFCURVE",
"382 585 OFFCURVE",
"382 595 CURVE SMOOTH",
"382 598 OFFCURVE",
"380 601 OFFCURVE",
"372 605 CURVE SMOOTH",
"358 612 OFFCURVE",
"334 616 OFFCURVE",
"313 616 CURVE SMOOTH",
"268 616 OFFCURVE",
"230 598 OFFCURVE",
"193 562 CURVE SMOOTH",
"150 520 OFFCURVE",
"134 482 OFFCURVE",
"127 441 CURVE SMOOTH",
"78 154 LINE SMOOTH",
"69 102 OFFCURVE",
"58 82 OFFCURVE",
"46 66 CURVE",
"40 66 OFFCURVE",
"36 66 OFFCURVE",
"27 66 CURVE SMOOTH",
"2 66 OFFCURVE",
"-29 29 OFFCURVE",
"-29 7 CURVE SMOOTH",
"-29 4 OFFCURVE",
"-28 0 OFFCURVE",
"-24 0 CURVE SMOOTH"
);
}
);
width = 395;
}
);
leftKerningGroup = L;
note = L;
rightKerningGroup = L;
unicode = 004C;
},
{
glyphname = M;
lastChange = "2018-06-29 11:13:26 +0000";
layers = (
{
anchors = (
{
name = bottom;
position = "{275, 0}";
},
{
name = top;
position = "{372, 560}";
}
);
background = {
paths = (
{
closed = 1;
nodes = (
"59 0 OFFCURVE",
"77 16 OFFCURVE",
"112 16 CURVE SMOOTH",
"144 16 OFFCURVE",
"160 0 OFFCURVE",
"188 0 CURVE SMOOTH",
"212 0 OFFCURVE",
"231 10 OFFCURVE",
"262 53 CURVE SMOOTH",
"270 64 OFFCURVE",
"274 71 OFFCURVE",
"274 80 CURVE SMOOTH",
"274 85 OFFCURVE",
"271 89 OFFCURVE",
"266 89 CURVE SMOOTH",
"254 89 OFFCURVE",
"247 78 OFFCURVE",
"225 78 CURVE SMOOTH",
"211 78 OFFCURVE",
"195 81 OFFCURVE",
"187 85 CURVE",
"187 86 LINE",
"198 96 OFFCURVE",
"203 116 OFFCURVE",
"207 134 CURVE SMOOTH",
"268 436 LINE",
"269 435 LINE",
"278 392 LINE SMOOTH",
"298 298 OFFCURVE",
"349 189 OFFCURVE",
"343 50 CURVE SMOOTH",
"343 41 OFFCURVE",
"345 39 OFFCURVE",
"350 38 CURVE SMOOTH",
"364 38 OFFCURVE",
"415 101 OFFCURVE",
"441 145 CURVE",
"480 244 OFFCURVE",
"548 375 OFFCURVE",
"603 463 CURVE",
"604 463 LINE",
"591 361 OFFCURVE",
"575 214 OFFCURVE",
"566 111 CURVE SMOOTH",
"564 88 OFFCURVE",
"549 81 OFFCURVE",
"526 65 CURVE SMOOTH",
"505 51 OFFCURVE",
"494 30 OFFCURVE",
"494 10 CURVE SMOOTH",
"494 4 OFFCURVE",
"497 0 OFFCURVE",
"502 0 CURVE SMOOTH",
"511 0 OFFCURVE",
"529 16 OFFCURVE",
"564 16 CURVE SMOOTH",
"596 16 OFFCURVE",
"627 0 OFFCURVE",
"655 0 CURVE SMOOTH",
"679 0 OFFCURVE",
"698 11 OFFCURVE",
"733 53 CURVE SMOOTH",
"742 64 OFFCURVE",
"745 71 OFFCURVE",
"745 80 CURVE SMOOTH",
"745 85 OFFCURVE",
"742 89 OFFCURVE",
"737 89 CURVE SMOOTH",
"726 89 OFFCURVE",
"715 78 OFFCURVE",
"689 78 CURVE SMOOTH",
"677 78 OFFCURVE",
"662 81 OFFCURVE",
"650 87 CURVE",
"650 88 LINE",
"661 98 OFFCURVE",
"671 121 OFFCURVE",
"674 147 CURVE SMOOTH",
"700 374 OFFCURVE",
"705 494 OFFCURVE",
"721 600 CURVE SMOOTH",
"747 778 OFFCURVE",
"785 822 OFFCURVE",
"909 822 CURVE SMOOTH",
"944 822 OFFCURVE",
"987 851 OFFCURVE",
"987 880 CURVE SMOOTH",
"987 888 OFFCURVE",
"984 895 OFFCURVE",
"975 895 CURVE SMOOTH",
"972 895 OFFCURVE",
"969 894 OFFCURVE",
"964 892 CURVE SMOOTH",
"956 889 OFFCURVE",
"945 885 OFFCURVE",
"925 885 CURVE SMOOTH",
"771 885 OFFCURVE",
"712 842 OFFCURVE",
"630 670 CURVE SMOOTH",
"567 533 OFFCURVE",
"484 386 OFFCURVE",
"416 263 CURVE",
"415 269 OFFCURVE",
"411 286 OFFCURVE",
"408 297 CURVE SMOOTH",
"376 431 LINE SMOOTH",
"351 534 OFFCURVE",
"338 603 OFFCURVE",
"338 654 CURVE SMOOTH",
"338 668 OFFCURVE",
"339 686 OFFCURVE",
"340 700 CURVE",
"320 700 OFFCURVE",
"301 695 OFFCURVE",
"269 695 CURVE SMOOTH",
"235 695 OFFCURVE",
"209 700 OFFCURVE",
"184 700 CURVE SMOOTH",
"104 700 OFFCURVE",
"52 662 OFFCURVE",
"34 589 CURVE SMOOTH",
"33 585 OFFCURVE",
"32 578 OFFCURVE",
"32 574 CURVE SMOOTH",
"32 567 OFFCURVE",
"35 562 OFFCURVE",
"40 562 CURVE SMOOTH",
"46 562 OFFCURVE",
"52 569 OFFCURVE",
"59 579 CURVE SMOOTH",
"77 604 OFFCURVE",
"103 615 OFFCURVE",
"145 615 CURVE SMOOTH",
"176 615 OFFCURVE",
"192 610 OFFCURVE",
"205 610 CURVE SMOOTH",
"215 610 LINE",
"122 169 LINE SMOOTH",
"108 102 OFFCURVE",
"100 87 OFFCURVE",
"74 65 CURVE SMOOTH",
"55 49 OFFCURVE",
"42 30 OFFCURVE",
"42 10 CURVE SMOOTH",
"42 4 OFFCURVE",
"45 0 OFFCURVE",
"50 0 CURVE SMOOTH"
);
}
);
};
layerId = "56450C88-1299-454A-B666-E6F9AF06B23F";
paths = (
{
closed = 1;
nodes = (
"39 0 OFFCURVE",
"54 13 OFFCURVE",
"82 13 CURVE SMOOTH",
"108 13 OFFCURVE",
"119 0 OFFCURVE",
"142 0 CURVE SMOOTH",
"162 0 OFFCURVE",
"177 8 OFFCURVE",
"202 42 CURVE SMOOTH",
"208 51 OFFCURVE",
"211 57 OFFCURVE",
"211 63 CURVE SMOOTH",
"211 69 OFFCURVE",
"209 71 OFFCURVE",
"205 71 CURVE SMOOTH",
"197 71 OFFCURVE",
"190 62 OFFCURVE",
"171 62 CURVE SMOOTH",
"161 62 OFFCURVE",
"148 65 OFFCURVE",
"142 68 CURVE",
"142 69 LINE",
"150 76 OFFCURVE",
"156 100 OFFCURVE",
"158 107 CURVE SMOOTH",
"207 352 LINE",
"208 351 LINE",
"210 340 OFFCURVE",
"238 215 OFFCURVE",
"240 207 CURVE SMOOTH",
"258 126 OFFCURVE",
"260 102 OFFCURVE",
"266 40 CURVE SMOOTH",
"267 33 OFFCURVE",
"268 30 OFFCURVE",
"271 30 CURVE SMOOTH",
"284 30 OFFCURVE",
"323 80 OFFCURVE",
"345 116 CURVE",
"376 195 OFFCURVE",
"430 300 OFFCURVE",
"474 370 CURVE",
"475 370 LINE",
"458 228 OFFCURVE",
"466 314 OFFCURVE",
"445 89 CURVE SMOOTH",
"443 69 OFFCURVE",
"434 69 OFFCURVE",
"413 52 CURVE SMOOTH",
"394 37 OFFCURVE",
"387 24 OFFCURVE",
"387 10 CURVE SMOOTH",
"387 2 OFFCURVE",
"390 0 OFFCURVE",
"393 0 CURVE SMOOTH",
"401 0 OFFCURVE",
"416 13 OFFCURVE",
"443 13 CURVE SMOOTH",
"470 13 OFFCURVE",
"494 0 OFFCURVE",
"515 0 CURVE SMOOTH",
"530 0 OFFCURVE",
"550 6 OFFCURVE",
"578 42 CURVE SMOOTH",
"586 51 OFFCURVE",
"588 58 OFFCURVE",
"588 63 CURVE SMOOTH",
"588 69 OFFCURVE",
"586 71 OFFCURVE",
"582 71 CURVE SMOOTH",
"574 71 OFFCURVE",
"563 62 OFFCURVE",
"544 62 CURVE SMOOTH",
"534 62 OFFCURVE",
"522 65 OFFCURVE",
"512 70 CURVE",
"512 70 LINE",
"521 78 OFFCURVE",
"529 97 OFFCURVE",
"531 118 CURVE SMOOTH",
"552 299 OFFCURVE",
"554 386 OFFCURVE",
"569 480 CURVE SMOOTH",
"583 578 OFFCURVE",
"602 625 OFFCURVE",
"643 645 CURVE SMOOTH",
"666 656 OFFCURVE",
"688 657 OFFCURVE",
"719 658 CURVE SMOOTH",
"750 658 OFFCURVE",
"782 685 OFFCURVE",
"782 707 CURVE SMOOTH",
"782 712 OFFCURVE",
"780 716 OFFCURVE",
"774 716 CURVE SMOOTH",
"771 716 OFFCURVE",
"773 715 OFFCURVE",
"759 711 CURVE SMOOTH",
"752 709 OFFCURVE",
"749 708 OFFCURVE",
"732 708 CURVE SMOOTH",
"689 707 OFFCURVE",
"652 705 OFFCURVE",
"617 688 CURVE SMOOTH",
"566 663 OFFCURVE",
"537 620 OFFCURVE",
"496 536 CURVE SMOOTH",
"461 464 OFFCURVE",
"472 476 OFFCURVE",
"325 210 CURVE",
"324 217 OFFCURVE",
"321 229 OFFCURVE",
"318 238 CURVE SMOOTH",
"293 345 LINE SMOOTH",
"274 425 OFFCURVE",
"262 480 OFFCURVE",
"262 523 CURVE SMOOTH",
"262 534 OFFCURVE",
"263 549 OFFCURVE",
"264 560 CURVE",
"248 560 OFFCURVE",
"234 556 OFFCURVE",
"207 556 CURVE SMOOTH",
"180 556 OFFCURVE",
"160 560 OFFCURVE",
"138 560 CURVE SMOOTH",
"74 560 OFFCURVE",
"30 525 OFFCURVE",
"19 471 CURVE SMOOTH",
"18 466 OFFCURVE",
"18 462 OFFCURVE",
"18 458 CURVE SMOOTH",
"18 452 OFFCURVE",
"20 450 OFFCURVE",
"24 450 CURVE SMOOTH",
"29 450 OFFCURVE",
"34 455 OFFCURVE",
"40 463 CURVE SMOOTH",
"59 487 OFFCURVE",
"79 493 OFFCURVE",
"108 493 CURVE SMOOTH",
"134 493 OFFCURVE",
"146 488 OFFCURVE",
"159 488 CURVE SMOOTH",
"164 488 LINE",
"90 135 LINE SMOOTH",
"78 78 OFFCURVE",
"73 73 OFFCURVE",
"51 52 CURVE SMOOTH",
"35 37 OFFCURVE",
"26 25 OFFCURVE",
"26 10 CURVE SMOOTH",
"26 2 OFFCURVE",
"28 0 OFFCURVE",
"31 0 CURVE SMOOTH"
);
}
);
width = 641;
},
{
anchors = (
{
name = bottom;
position = "{266, 0}";
},
{
name = top;
position = "{354, 560}";
}
);
background = {
paths = (
{
closed = 1;
nodes = (
"36 0 OFFCURVE",
"50 14 OFFCURVE",
"70 14 CURVE SMOOTH",
"90 14 OFFCURVE",
"107 0 OFFCURVE",
"123 0 CURVE SMOOTH",
"130 0 OFFCURVE",
"143 2 OFFCURVE",
"172 33 CURVE SMOOTH",
"181 42 OFFCURVE",
"182 46 OFFCURVE",
"182 50 CURVE SMOOTH",
"182 54 OFFCURVE",
"180 56 OFFCURVE",
"177 56 CURVE SMOOTH",
"170 56 OFFCURVE",
"166 47 OFFCURVE",
"148 47 CURVE SMOOTH",
"138 47 OFFCURVE",
"128 50 OFFCURVE",
"116 54 CURVE",
"116 55 LINE",
"125 65 OFFCURVE",
"129 77 OFFCURVE",
"131 89 CURVE SMOOTH",
"198 414 LINE",
"198 414 LINE",
"209 360 OFFCURVE",
"223 294 OFFCURVE",
"234 241 CURVE SMOOTH",
"257 130 OFFCURVE",
"260 102 OFFCURVE",
"263 42 CURVE SMOOTH",
"263 35 OFFCURVE",
"266 34 OFFCURVE",
"269 34 CURVE SMOOTH",
"281 34 OFFCURVE",
"308 82 OFFCURVE",
"321 110 CURVE",
"354 198 OFFCURVE",
"424 330 OFFCURVE",
"482 426 CURVE",
"482 426 LINE",
"474 349 OFFCURVE",
"462 242 OFFCURVE",
"445 91 CURVE SMOOTH",
"442 69 OFFCURVE",
"435 63 OFFCURVE",
"406 41 CURVE SMOOTH",
"392 30 OFFCURVE",
"386 16 OFFCURVE",
"386 7 CURVE SMOOTH",
"386 3 OFFCURVE",
"387 0 OFFCURVE",
"390 0 CURVE SMOOTH",
"397 0 OFFCURVE",
"419 14 OFFCURVE",
"439 14 CURVE SMOOTH",
"459 14 OFFCURVE",
"491 0 OFFCURVE",
"507 0 CURVE SMOOTH",
"514 0 OFFCURVE",
"527 2 OFFCURVE",
"556 33 CURVE SMOOTH",
"565 42 OFFCURVE",
"566 46 OFFCURVE",
"566 50 CURVE SMOOTH",
"566 54 OFFCURVE",
"564 56 OFFCURVE",
"561 56 CURVE SMOOTH",
"554 56 OFFCURVE",
"543 47 OFFCURVE",
"524 47 CURVE SMOOTH",
"514 47 OFFCURVE",
"502 50 OFFCURVE",
"490 54 CURVE",
"490 55 LINE",
"497 62 OFFCURVE",
"503 74 OFFCURVE",
"506 89 CURVE SMOOTH",
"532 249 OFFCURVE",
"531 340 OFFCURVE",
"546 442 CURVE SMOOTH",
"563 566 OFFCURVE",
"590 621 OFFCURVE",
"623 647 CURVE SMOOTH",
"650 668 OFFCURVE",
"686 669 OFFCURVE",
"706 674 CURVE SMOOTH",
"730 680 OFFCURVE",
"756 690 OFFCURVE",
"756 710 CURVE SMOOTH",
"756 715 OFFCURVE",
"754 716 OFFCURVE",
"751 716 CURVE SMOOTH",
"750 716 OFFCURVE",
"747 715 OFFCURVE",
"744 714 CURVE SMOOTH",
"736 710 OFFCURVE",
"733 710 OFFCURVE",
"719 709 CURVE SMOOTH",
"671 706 OFFCURVE",
"635 698 OFFCURVE",
"602 677 CURVE SMOOTH",
"565 652 OFFCURVE",
"534 612 OFFCURVE",
"492 532 CURVE SMOOTH",
"468 486 OFFCURVE",
"330 216 OFFCURVE",
"309 174 CURVE",
"306 193 OFFCURVE",
"305 205 OFFCURVE",
"298 233 CURVE SMOOTH",
"273 350 LINE SMOOTH",
"254 434 OFFCURVE",
"242 491 OFFCURVE",
"242 529 CURVE SMOOTH",
"242 538 OFFCURVE",
"242 552 OFFCURVE",
"245 560 CURVE",
"228 560 OFFCURVE",
"218 557 OFFCURVE",
"195 557 CURVE SMOOTH",
"171 557 OFFCURVE",
"150 560 OFFCURVE",
"132 560 CURVE SMOOTH",
"79 560 OFFCURVE",
"42 532 OFFCURVE",
"31 485 CURVE SMOOTH",
"30 482 OFFCURVE",
"30 478 OFFCURVE",
"30 475 CURVE SMOOTH",
"30 472 OFFCURVE",
"32 468 OFFCURVE",
"36 468 CURVE SMOOTH",
"40 468 OFFCURVE",
"42 474 OFFCURVE",
"47 482 CURVE SMOOTH",
"56 495 OFFCURVE",
"76 512 OFFCURVE",
"114 512 CURVE SMOOTH",
"134 512 OFFCURVE",
"156 508 OFFCURVE",
"168 508 CURVE SMOOTH",
"173 508 LINE",
"90 120 LINE SMOOTH",
"80 71 OFFCURVE",
"78 70 OFFCURVE",
"43 41 CURVE SMOOTH",
"32 32 OFFCURVE",
"26 18 OFFCURVE",
"26 7 CURVE SMOOTH",
"26 3 OFFCURVE",
"26 0 OFFCURVE",
"30 0 CURVE SMOOTH"
);
}
);
};
layerId = "0B1DFD06-3317-40CA-B510-4969A0718C16";
paths = (
{
closed = 1;
nodes = (
"37 0 OFFCURVE",
"50 14 OFFCURVE",
"70 14 CURVE SMOOTH",
"90 14 OFFCURVE",
"107 0 OFFCURVE",
"123 0 CURVE SMOOTH",
"130 0 OFFCURVE",
"143 2 OFFCURVE",
"172 33 CURVE SMOOTH",
"181 42 OFFCURVE",
"182 47 OFFCURVE",
"182 51 CURVE SMOOTH",
"182 54 OFFCURVE",
"181 56 OFFCURVE",
"178 56 CURVE SMOOTH",
"172 56 OFFCURVE",
"164 47 OFFCURVE",
"148 47 CURVE SMOOTH",
"138 47 OFFCURVE",
"128 50 OFFCURVE",
"116 54 CURVE",
"116 55 LINE",
"125 65 OFFCURVE",
"129 77 OFFCURVE",
"131 89 CURVE SMOOTH",
"198 414 LINE",
"199 414 LINE",
"209 360 OFFCURVE",
"223 294 OFFCURVE",
"234 241 CURVE SMOOTH",
"257 130 OFFCURVE",
"260 102 OFFCURVE",
"263 42 CURVE SMOOTH",
"263 35 OFFCURVE",
"266 34 OFFCURVE",
"269 34 CURVE SMOOTH",
"281 34 OFFCURVE",
"308 82 OFFCURVE",
"321 110 CURVE",
"354 198 OFFCURVE",
"427 330 OFFCURVE",
"481 426 CURVE",
"482 426 LINE",
"474 349 OFFCURVE",
"462 242 OFFCURVE",
"445 91 CURVE SMOOTH",
"442 69 OFFCURVE",
"435 63 OFFCURVE",
"406 41 CURVE SMOOTH",
"392 30 OFFCURVE",
"386 16 OFFCURVE",
"386 7 CURVE SMOOTH",
"386 3 OFFCURVE",
"387 0 OFFCURVE",
"391 0 CURVE SMOOTH",
"397 0 OFFCURVE",
"417 14 OFFCURVE",
"439 14 CURVE SMOOTH",
"459 14 OFFCURVE",
"491 0 OFFCURVE",
"507 0 CURVE SMOOTH",
"514 0 OFFCURVE",
"528 1 OFFCURVE",
"556 33 CURVE SMOOTH",
"564 42 OFFCURVE",
"566 47 OFFCURVE",
"566 51 CURVE SMOOTH",
"566 54 OFFCURVE",
"565 56 OFFCURVE",
"562 56 CURVE SMOOTH",
"555 56 OFFCURVE",
"543 47 OFFCURVE",
"524 47 CURVE SMOOTH",
"514 47 OFFCURVE",
"502 50 OFFCURVE",
"490 54 CURVE",
"490 55 LINE",
"497 62 OFFCURVE",
"504 74 OFFCURVE",
"506 89 CURVE SMOOTH",
"532 249 OFFCURVE",
"531 340 OFFCURVE",
"546 442 CURVE SMOOTH",
"563 566 OFFCURVE",
"590 621 OFFCURVE",
"623 647 CURVE SMOOTH",
"650 668 OFFCURVE",
"686 671 OFFCURVE",
"706 674 CURVE SMOOTH",
"730 678 OFFCURVE",
"756 688 OFFCURVE",
"756 710 CURVE SMOOTH",
"756 713 OFFCURVE",
"755 716 OFFCURVE",
"752 716 CURVE SMOOTH",
"750 716 OFFCURVE",
"747 714 OFFCURVE",
"744 713 CURVE SMOOTH",
"736 710 OFFCURVE",
"723 709 OFFCURVE",
"709 708 CURVE SMOOTH",
"665 705 OFFCURVE",
"635 698 OFFCURVE",
"602 677 CURVE SMOOTH",
"565 652 OFFCURVE",
"532 612 OFFCURVE",
"490 532 CURVE SMOOTH",
"466 486 OFFCURVE",
"330 216 OFFCURVE",
"309 174 CURVE",
"306 193 OFFCURVE",
"303 210 OFFCURVE",
"298 233 CURVE SMOOTH",
"273 350 LINE SMOOTH",
"254 434 OFFCURVE",
"242 491 OFFCURVE",
"242 529 CURVE SMOOTH",
"242 538 OFFCURVE",
"243 552 OFFCURVE",
"245 560 CURVE",
"228 560 OFFCURVE",
"218 557 OFFCURVE",
"195 557 CURVE SMOOTH",
"171 557 OFFCURVE",
"150 560 OFFCURVE",
"132 560 CURVE SMOOTH",
"81 560 OFFCURVE",
"43 534 OFFCURVE",
"32 489 CURVE SMOOTH",
"31 485 OFFCURVE",
"30 480 OFFCURVE",
"30 475 CURVE SMOOTH",
"30 471 OFFCURVE",
"31 468 OFFCURVE",
"34 468 CURVE SMOOTH",
"38 468 OFFCURVE",
"41 474 OFFCURVE",
"47 482 CURVE SMOOTH",
"62 502 OFFCURVE",
"84 512 OFFCURVE",
"115 512 CURVE SMOOTH",
"134 512 OFFCURVE",
"156 508 OFFCURVE",
"168 508 CURVE SMOOTH",
"173 508 LINE",
"90 120 LINE SMOOTH",
"80 71 OFFCURVE",
"78 70 OFFCURVE",
"43 41 CURVE SMOOTH",
"32 32 OFFCURVE",
"26 18 OFFCURVE",
"26 7 CURVE SMOOTH",
"26 3 OFFCURVE",
"27 0 OFFCURVE",
"31 0 CURVE SMOOTH"
);
}
);
width = 623;
}
);
leftKerningGroup = H;
note = M;
rightKerningGroup = H;
unicode = 004D;
},
{
glyphname = N;
lastChange = "2018-06-29 11:13:26 +0000";
layers = (
{
anchors = (
{
name = bottom;
position = "{250, 0}";
},
{
name = top;
position = "{346, 560}";
}
);
background = {
paths = (
{
closed = 1;
nodes = (
"502 -10 OFFCURVE",
"556 62 OFFCURVE",
"566 120 CURVE SMOOTH",
"646 579 LINE SMOOTH",
"675 760 OFFCURVE",
"721 822 OFFCURVE",
"828 822 CURVE SMOOTH",
"863 822 OFFCURVE",
"906 851 OFFCURVE",
"906 880 CURVE SMOOTH",
"906 888 OFFCURVE",
"903 895 OFFCURVE",
"894 895 CURVE SMOOTH",
"891 895 OFFCURVE",
"888 894 OFFCURVE",
"883 892 CURVE SMOOTH",
"875 889 OFFCURVE",
"864 885 OFFCURVE",
"844 885 CURVE SMOOTH",
"669 885 OFFCURVE",
"584 793 OFFCURVE",
"546 562 CURVE SMOOTH",
"497 259 LINE",
"496 259 LINE",
"487 280 OFFCURVE",
"477 299 OFFCURVE",
"467 319 CURVE SMOOTH",
"415 424 LINE SMOOTH",
"365 525 OFFCURVE",
"332 587 OFFCURVE",
"332 652 CURVE SMOOTH",
"332 670 OFFCURVE",
"334 683 OFFCURVE",
"340 700 CURVE",
"320 700 OFFCURVE",
"301 695 OFFCURVE",
"269 695 CURVE SMOOTH",
"235 695 OFFCURVE",
"209 700 OFFCURVE",
"184 700 CURVE SMOOTH",
"104 700 OFFCURVE",
"52 662 OFFCURVE",
"34 589 CURVE SMOOTH",
"33 585 OFFCURVE",
"32 578 OFFCURVE",
"32 574 CURVE SMOOTH",
"32 567 OFFCURVE",
"35 562 OFFCURVE",
"40 562 CURVE SMOOTH",
"46 562 OFFCURVE",
"52 569 OFFCURVE",
"59 579 CURVE SMOOTH",
"77 604 OFFCURVE",
"103 615 OFFCURVE",
"145 615 CURVE SMOOTH",
"176 615 OFFCURVE",
"192 610 OFFCURVE",
"205 610 CURVE SMOOTH",
"214 610 LINE",
"140 177 LINE SMOOTH",
"129 110 OFFCURVE",
"119 87 OFFCURVE",
"93 65 CURVE SMOOTH",
"74 49 OFFCURVE",
"61 30 OFFCURVE",
"61 10 CURVE SMOOTH",
"61 4 OFFCURVE",
"64 0 OFFCURVE",
"69 0 CURVE SMOOTH",
"78 0 OFFCURVE",
"96 16 OFFCURVE",
"131 16 CURVE SMOOTH",
"163 16 OFFCURVE",
"186 0 OFFCURVE",
"214 0 CURVE SMOOTH",
"238 0 OFFCURVE",
"257 10 OFFCURVE",
"288 53 CURVE SMOOTH",
"296 64 OFFCURVE",
"300 71 OFFCURVE",
"300 80 CURVE SMOOTH",
"300 85 OFFCURVE",
"297 89 OFFCURVE",
"292 89 CURVE SMOOTH",
"280 89 OFFCURVE",
"272 78 OFFCURVE",
"248 78 CURVE SMOOTH",
"234 78 OFFCURVE",
"221 81 OFFCURVE",
"213 85 CURVE",
"213 86 LINE",
"224 96 OFFCURVE",
"230 113 OFFCURVE",
"233 131 CURVE SMOOTH",
"288 464 LINE",
"289 464 LINE",
"295 445 OFFCURVE",
"307 414 OFFCURVE",
"321 387 CURVE SMOOTH",
"385 260 LINE SMOOTH",
"404 222 OFFCURVE",
"427 180 OFFCURVE",
"442 149 CURVE SMOOTH",
"472 87 OFFCURVE",
"441 30 OFFCURVE",
"441 2 CURVE SMOOTH",
"441 -5 OFFCURVE",
"447 -10 OFFCURVE",
"455 -10 CURVE SMOOTH"
);
}
);
};
layerId = "56450C88-1299-454A-B666-E6F9AF06B23F";
paths = (
{
closed = 1;
nodes = (
"391 -8 OFFCURVE",
"437 50 OFFCURVE",
"445 96 CURVE SMOOTH",
"508 463 LINE SMOOTH",
"522 541 OFFCURVE",
"538 594 OFFCURVE",
"566 625 CURVE SMOOTH",
"591 652 OFFCURVE",
"615 655 OFFCURVE",
"654 658 CURVE SMOOTH",
"686 659 OFFCURVE",
"717 682 OFFCURVE",
"717 704 CURVE SMOOTH",
"717 710 OFFCURVE",
"714 716 OFFCURVE",
"707 716 CURVE SMOOTH",
"705 716 OFFCURVE",
"702 715 OFFCURVE",
"698 714 CURVE SMOOTH",
"688 710 OFFCURVE",
"684 709 OFFCURVE",
"667 708 CURVE SMOOTH",
"615 706 OFFCURVE",
"569 702 OFFCURVE",
"525 665 CURVE SMOOTH",
"481 628 OFFCURVE",
"448 568 OFFCURVE",
"429 450 CURVE SMOOTH",
"390 207 LINE",
"389 207 LINE",
"369 250 OFFCURVE",
"386 212 OFFCURVE",
"366 255 CURVE SMOOTH",
"324 339 LINE SMOOTH",
"284 420 OFFCURVE",
"258 470 OFFCURVE",
"258 523 CURVE SMOOTH",
"258 536 OFFCURVE",
"259 546 OFFCURVE",
"264 560 CURVE",
"248 560 OFFCURVE",
"234 556 OFFCURVE",
"207 556 CURVE SMOOTH",
"180 556 OFFCURVE",
"160 560 OFFCURVE",
"138 560 CURVE SMOOTH",
"71 560 OFFCURVE",
"29 522 OFFCURVE",
"19 471 CURVE SMOOTH",
"18 466 OFFCURVE",
"18 462 OFFCURVE",
"18 458 CURVE SMOOTH",
"18 452 OFFCURVE",
"20 450 OFFCURVE",
"24 450 CURVE SMOOTH",
"29 450 OFFCURVE",
"34 455 OFFCURVE",
"40 463 CURVE SMOOTH",
"59 487 OFFCURVE",
"79 493 OFFCURVE",
"108 493 CURVE SMOOTH",
"134 493 OFFCURVE",
"145 488 OFFCURVE",
"158 488 CURVE SMOOTH",
"163 488 LINE",
"104 142 LINE SMOOTH",
"94 82 OFFCURVE",
"90 74 OFFCURVE",
"66 52 CURVE SMOOTH",
"54 40 OFFCURVE",
"41 26 OFFCURVE",
"41 10 CURVE SMOOTH",
"41 2 OFFCURVE",
"43 0 OFFCURVE",
"46 0 CURVE SMOOTH",
"54 0 OFFCURVE",
"70 13 OFFCURVE",
"97 13 CURVE SMOOTH",
"123 13 OFFCURVE",
"141 0 OFFCURVE",
"164 0 CURVE SMOOTH",
"182 0 OFFCURVE",
"198 7 OFFCURVE",
"222 42 CURVE SMOOTH",
"229 51 OFFCURVE",
"232 58 OFFCURVE",
"232 64 CURVE SMOOTH",
"232 69 OFFCURVE",
"230 71 OFFCURVE",
"226 71 CURVE SMOOTH",
"216 71 OFFCURVE",
"210 62 OFFCURVE",
"190 62 CURVE SMOOTH",
"178 62 OFFCURVE",
"166 65 OFFCURVE",
"160 68 CURVE",
"160 69 LINE",
"169 77 OFFCURVE",
"176 90 OFFCURVE",
"178 105 CURVE SMOOTH",
"222 371 LINE",
"223 371 LINE",
"229 354 OFFCURVE",
"238 330 OFFCURVE",
"249 310 CURVE SMOOTH",
"300 208 LINE SMOOTH",
"309 190 OFFCURVE",
"338 134 OFFCURVE",
"346 119 CURVE SMOOTH",
"354 101 OFFCURVE",
"356 86 OFFCURVE",
"356 73 CURVE SMOOTH",
"356 38 OFFCURVE",
"345 13 OFFCURVE",
"345 1 CURVE SMOOTH",
"345 -5 OFFCURVE",
"347 -8 OFFCURVE",
"355 -8 CURVE SMOOTH"
);
}
);
width = 555;
},
{
anchors = (
{
name = bottom;
position = "{234, 0}";
},
{
name = top;
position = "{356, 560}";
}
);
background = {
paths = (
{
closed = 1;
nodes = (
"378 -8 OFFCURVE",
"419 52 OFFCURVE",
"425 88 CURVE SMOOTH",
"488 474 LINE SMOOTH",
"499 545 OFFCURVE",
"517 606 OFFCURVE",
"554 646 CURVE SMOOTH",
"585 678 OFFCURVE",
"614 680 OFFCURVE",
"646 682 CURVE SMOOTH",
"671 684 OFFCURVE",
"696 702 OFFCURVE",
"696 718 CURVE SMOOTH",
"696 722 OFFCURVE",
"694 724 OFFCURVE",
"691 724 CURVE SMOOTH",
"690 724 OFFCURVE",
"687 723 OFFCURVE",
"684 722 CURVE SMOOTH",
"676 718 OFFCURVE",
"670 718 OFFCURVE",
"659 717 CURVE SMOOTH",
"617 714 OFFCURVE",
"574 711 OFFCURVE",
"529 671 CURVE SMOOTH",
"474 622 OFFCURVE",
"447 545 OFFCURVE",
"433 450 CURVE SMOOTH",
"390 167 LINE",
"389 167 LINE",
"381 187 OFFCURVE",
"370 210 OFFCURVE",
"347 252 CURVE SMOOTH",
"302 337 LINE SMOOTH",
"257 420 OFFCURVE",
"234 479 OFFCURVE",
"234 526 CURVE SMOOTH",
"234 540 OFFCURVE",
"236 552 OFFCURVE",
"238 560 CURVE",
"224 560 OFFCURVE",
"214 557 OFFCURVE",
"190 557 CURVE SMOOTH",
"166 557 OFFCURVE",
"146 560 OFFCURVE",
"128 560 CURVE SMOOTH",
"77 560 OFFCURVE",
"39 534 OFFCURVE",
"28 489 CURVE SMOOTH",
"27 485 OFFCURVE",
"26 480 OFFCURVE",
"26 475 CURVE SMOOTH",
"26 471 OFFCURVE",
"27 468 OFFCURVE",
"30 468 CURVE SMOOTH",
"34 468 OFFCURVE",
"37 474 OFFCURVE",
"43 482 CURVE SMOOTH",
"58 503 OFFCURVE",
"79 512 OFFCURVE",
"110 512 CURVE SMOOTH",
"129 512 OFFCURVE",
"155 508 OFFCURVE",
"169 508 CURVE",
"108 121 LINE SMOOTH",
"100 70 OFFCURVE",
"98 69 OFFCURVE",
"65 41 CURVE SMOOTH",
"54 32 OFFCURVE",
"47 18 OFFCURVE",
"47 7 CURVE SMOOTH",
"47 3 OFFCURVE",
"48 0 OFFCURVE",
"51 0 CURVE SMOOTH",
"58 0 OFFCURVE",
"72 14 OFFCURVE",
"92 14 CURVE SMOOTH",
"112 14 OFFCURVE",
"129 0 OFFCURVE",
"145 0 CURVE SMOOTH",
"151 0 OFFCURVE",
"166 2 OFFCURVE",
"195 33 CURVE SMOOTH",
"204 42 OFFCURVE",
"206 47 OFFCURVE",
"206 51 CURVE SMOOTH",
"206 53 OFFCURVE",
"205 56 OFFCURVE",
"202 56 CURVE SMOOTH",
"195 56 OFFCURVE",
"188 47 OFFCURVE",
"170 47 CURVE SMOOTH",
"161 47 OFFCURVE",
"150 50 OFFCURVE",
"138 54 CURVE",
"138 55 LINE",
"144 62 OFFCURVE",
"149 74 OFFCURVE",
"151 89 CURVE SMOOTH",
"202 410 LINE",
"203 410 LINE",
"221 370 OFFCURVE",
"238 330 OFFCURVE",
"270 271 CURVE SMOOTH",
"302 213 LINE SMOOTH",
"322 178 OFFCURVE",
"342 137 OFFCURVE",
"351 110 CURVE SMOOTH",
"356 96 OFFCURVE",
"358 85 OFFCURVE",
"358 72 CURVE SMOOTH",
"358 42 OFFCURVE",
"348 11 OFFCURVE",
"348 2 CURVE SMOOTH",
"348 -4 OFFCURVE",
"352 -8 OFFCURVE",
"358 -8 CURVE SMOOTH"
);
}
);
};
layerId = "0B1DFD06-3317-40CA-B510-4969A0718C16";
paths = (
{
closed = 1;
nodes = (
"378 -8 OFFCURVE",
"419 52 OFFCURVE",
"425 88 CURVE SMOOTH",
"488 474 LINE SMOOTH",
"499 545 OFFCURVE",
"517 606 OFFCURVE",
"554 646 CURVE SMOOTH",
"585 678 OFFCURVE",
"614 678 OFFCURVE",
"646 682 CURVE SMOOTH",
"688 687 OFFCURVE",
"696 712 OFFCURVE",
"696 719 CURVE SMOOTH",
"696 722 OFFCURVE",
"695 724 OFFCURVE",
"692 724 CURVE SMOOTH",
"690 724 OFFCURVE",
"688 723 OFFCURVE",
"682 721 CURVE SMOOTH",
"675 719 OFFCURVE",
"669 718 OFFCURVE",
"659 717 CURVE SMOOTH",
"594 711 OFFCURVE",
"562 699 OFFCURVE",
"528 671 CURVE SMOOTH",
"481 633 OFFCURVE",
"451 568 OFFCURVE",
"435 463 CURVE SMOOTH",
"390 167 LINE",
"389 167 LINE",
"381 187 OFFCURVE",
"370 210 OFFCURVE",
"347 252 CURVE SMOOTH",
"302 337 LINE SMOOTH",
"257 420 OFFCURVE",
"234 479 OFFCURVE",
"234 526 CURVE SMOOTH",
"234 540 OFFCURVE",
"236 552 OFFCURVE",
"238 560 CURVE",
"224 560 OFFCURVE",
"214 557 OFFCURVE",
"190 557 CURVE SMOOTH",
"166 557 OFFCURVE",
"146 560 OFFCURVE",
"128 560 CURVE SMOOTH",
"77 560 OFFCURVE",
"39 534 OFFCURVE",
"28 489 CURVE SMOOTH",
"27 485 OFFCURVE",
"26 480 OFFCURVE",
"26 475 CURVE SMOOTH",
"26 471 OFFCURVE",
"27 468 OFFCURVE",
"30 468 CURVE SMOOTH",
"34 468 OFFCURVE",
"37 474 OFFCURVE",
"43 482 CURVE SMOOTH",
"58 503 OFFCURVE",
"79 512 OFFCURVE",
"110 512 CURVE SMOOTH",
"129 512 OFFCURVE",
"155 508 OFFCURVE",
"169 508 CURVE",
"108 121 LINE SMOOTH",
"100 70 OFFCURVE",
"98 69 OFFCURVE",
"65 41 CURVE SMOOTH",
"54 32 OFFCURVE",
"47 18 OFFCURVE",
"47 7 CURVE SMOOTH",
"47 3 OFFCURVE",
"48 0 OFFCURVE",
"51 0 CURVE SMOOTH",
"58 0 OFFCURVE",
"72 14 OFFCURVE",
"92 14 CURVE SMOOTH",
"112 14 OFFCURVE",
"129 0 OFFCURVE",
"145 0 CURVE SMOOTH",
"151 0 OFFCURVE",
"166 2 OFFCURVE",
"195 33 CURVE SMOOTH",
"204 42 OFFCURVE",
"206 47 OFFCURVE",
"206 51 CURVE SMOOTH",
"206 53 OFFCURVE",
"205 56 OFFCURVE",
"202 56 CURVE SMOOTH",
"195 56 OFFCURVE",
"188 47 OFFCURVE",
"170 47 CURVE SMOOTH",
"161 47 OFFCURVE",
"150 50 OFFCURVE",
"138 54 CURVE",
"138 55 LINE",
"144 62 OFFCURVE",
"149 74 OFFCURVE",
"151 89 CURVE SMOOTH",
"202 410 LINE",
"203 410 LINE",
"221 370 OFFCURVE",
"238 330 OFFCURVE",
"270 271 CURVE SMOOTH",
"302 213 LINE SMOOTH",
"322 178 OFFCURVE",
"342 137 OFFCURVE",
"351 110 CURVE SMOOTH",
"356 96 OFFCURVE",
"358 85 OFFCURVE",
"358 72 CURVE SMOOTH",
"358 42 OFFCURVE",
"348 11 OFFCURVE",
"348 2 CURVE SMOOTH",
"348 -4 OFFCURVE",
"352 -8 OFFCURVE",
"358 -8 CURVE SMOOTH"
);
}
);
width = 542;
}
);
leftKerningGroup = H;
note = N;
rightKerningGroup = N;
unicode = 004E;
},
{
glyphname = O;
lastChange = "2018-06-29 11:13:26 +0000";
layers = (
{
anchors = (
{
name = bottom;
position = "{195, 0}";
},
{
name = center;
position = "{260, 280}";
},
{
name = ogonek;
position = "{260, 7}";
},
{
name = top;
position = "{335, 560}";
},
{
name = topright;
position = "{454, 478}";
}
);
background = {
anchors = (
{
name = bottom;
position = "{335, 0}";
},
{
name = center;
position = "{335, 350}";
},
{
name = ogonek;
position = "{575, 10}";
},
{
name = top;
position = "{435, 700}";
},
{
name = topleft;
position = "{55, 700}";
},
{
name = topright;
position = "{615, 700}";
}
);
paths = (
{
closed = 1;
nodes = (
"437 -10 OFFCURVE",
"608 205 OFFCURVE",
"608 454 CURVE SMOOTH",
"608 608 OFFCURVE",
"536 710 OFFCURVE",
"429 710 CURVE SMOOTH",
"199 710 OFFCURVE",
"62 435 OFFCURVE",
"62 232 CURVE SMOOTH",
"62 87 OFFCURVE",
"134 -10 OFFCURVE",
"242 -10 CURVE SMOOTH"
);
},
{
closed = 1;
nodes = (
"220 68 OFFCURVE",
"182 135 OFFCURVE",
"182 268 CURVE SMOOTH",
"182 462 OFFCURVE",
"265 632 OFFCURVE",
"383 632 CURVE SMOOTH",
"452 632 OFFCURVE",
"488 556 OFFCURVE",
"488 407 CURVE SMOOTH",
"488 273 OFFCURVE",
"426 68 OFFCURVE",
"294 68 CURVE SMOOTH"
);
}
);
};
layerId = "56450C88-1299-454A-B666-E6F9AF06B23F";
paths = (
{
closed = 1;
nodes = (
"338 -8 OFFCURVE",
"478 164 OFFCURVE",
"478 364 CURVE SMOOTH",
"478 486 OFFCURVE",
"426 568 OFFCURVE",
"324 568 CURVE SMOOTH",
"157 568 OFFCURVE",
"42 348 OFFCURVE",
"42 184 CURVE SMOOTH",
"42 78 OFFCURVE",
"90 -8 OFFCURVE",
"193 -8 CURVE SMOOTH"
);
},
{
closed = 1;
nodes = (
"168 54 OFFCURVE",
"138 108 OFFCURVE",
"138 213 CURVE SMOOTH",
"138 370 OFFCURVE",
"206 506 OFFCURVE",
"294 506 CURVE SMOOTH",
"354 506 OFFCURVE",
"382 442 OFFCURVE",
"382 341 CURVE SMOOTH",
"382 205 OFFCURVE",
"330 54 OFFCURVE",
"229 54 CURVE SMOOTH"
);
}
);
width = 499;
},
{
anchors = (
{
name = bottom;
position = "{189, 0}";
},
{
name = center;
position = "{245, 280}";
},
{
name = ogonek;
position = "{253, 10}";
},
{
name = top;
position = "{338, 560}";
},
{
name = topright;
position = "{434, 486}";
}
);
background = {
paths = (
{
closed = 1;
nodes = (
"331 -8 OFFCURVE",
"461 168 OFFCURVE",
"461 368 CURVE SMOOTH",
"461 467 OFFCURVE",
"429 568 OFFCURVE",
"322 568 CURVE SMOOTH",
"162 568 OFFCURVE",
"50 346 OFFCURVE",
"50 186 CURVE SMOOTH",
"50 126 OFFCURVE",
"66 -8 OFFCURVE",
"190 -8 CURVE SMOOTH"
);
},
{
closed = 1;
nodes = (
"157 37 OFFCURVE",
"118 100 OFFCURVE",
"118 217 CURVE SMOOTH",
"118 396 OFFCURVE",
"209 523 OFFCURVE",
"294 523 CURVE SMOOTH",
"362 523 OFFCURVE",
"392 441 OFFCURVE",
"392 342 CURVE SMOOTH",
"392 200 OFFCURVE",
"330 37 OFFCURVE",
"223 37 CURVE SMOOTH"
);
}
);
};
layerId = "0B1DFD06-3317-40CA-B510-4969A0718C16";
paths = (
{
closed = 1;
nodes = (
"331 -8 OFFCURVE",
"461 168 OFFCURVE",
"461 368 CURVE SMOOTH",
"461 467 OFFCURVE",
"429 568 OFFCURVE",
"322 568 CURVE SMOOTH",
"162 568 OFFCURVE",
"50 346 OFFCURVE",
"50 186 CURVE SMOOTH",
"50 126 OFFCURVE",
"66 -8 OFFCURVE",
"190 -8 CURVE SMOOTH"
);
},
{
closed = 1;
nodes = (
"157 37 OFFCURVE",
"118 100 OFFCURVE",
"118 217 CURVE SMOOTH",
"118 396 OFFCURVE",
"209 523 OFFCURVE",
"294 523 CURVE SMOOTH",
"362 523 OFFCURVE",
"392 441 OFFCURVE",
"392 342 CURVE SMOOTH",
"392 200 OFFCURVE",
"330 37 OFFCURVE",
"223 37 CURVE SMOOTH"
);
}
);
width = 490;
}
);
leftKerningGroup = O;
note = O;
rightKerningGroup = O;
unicode = 004F;
},
{
glyphname = P;
lastChange = "2018-06-29 11:13:26 +0000";
layers = (
{
anchors = (
{
name = bottom;
position = "{118, 0}";
},
{
name = top;
position = "{262, 560}";
}
);
background = {
paths = (
{
closed = 1;
nodes = (
"123 110 OFFCURVE",
"114 87 OFFCURVE",
"88 65 CURVE SMOOTH",
"69 49 OFFCURVE",
"56 30 OFFCURVE",
"56 10 CURVE SMOOTH",
"56 4 OFFCURVE",
"59 0 OFFCURVE",
"64 0 CURVE SMOOTH",
"73 0 OFFCURVE",
"91 16 OFFCURVE",
"126 16 CURVE SMOOTH",
"158 16 OFFCURVE",
"189 0 OFFCURVE",
"217 0 CURVE SMOOTH",
"241 0 OFFCURVE",
"260 10 OFFCURVE",
"295 53 CURVE SMOOTH",
"304 64 OFFCURVE",
"307 72 OFFCURVE",
"307 81 CURVE SMOOTH",
"307 86 OFFCURVE",
"304 89 OFFCURVE",
"299 89 CURVE SMOOTH",
"288 89 OFFCURVE",
"277 78 OFFCURVE",
"251 78 CURVE SMOOTH",
"239 78 OFFCURVE",
"224 81 OFFCURVE",
"212 87 CURVE",
"212 88 LINE",
"223 98 OFFCURVE",
"232 115 OFFCURVE",
"235 133 CURVE SMOOTH",
"257 266 LINE",
"416 279 OFFCURVE",
"569 403 OFFCURVE",
"569 540 CURVE SMOOTH",
"569 647 OFFCURVE",
"481 710 OFFCURVE",
"331 710 CURVE SMOOTH",
"210 710 OFFCURVE",
"102 649 OFFCURVE",
"61 558 CURVE SMOOTH",
"57 549 OFFCURVE",
"56 543 OFFCURVE",
"56 538 CURVE SMOOTH",
"56 530 OFFCURVE",
"60 525 OFFCURVE",
"68 525 CURVE SMOOTH",
"80 525 OFFCURVE",
"85 533 OFFCURVE",
"101 549 CURVE SMOOTH",
"156 604 OFFCURVE",
"230 633 OFFCURVE",
"315 633 CURVE SMOOTH",
"412 629 OFFCURVE",
"463 587 OFFCURVE",
"463 510 CURVE SMOOTH",
"463 404 OFFCURVE",
"403 342 OFFCURVE",
"301 342 CURVE SMOOTH",
"291 342 OFFCURVE",
"278 344 OFFCURVE",
"268 346 CURVE",
"292 500 LINE SMOOTH",
"300 554 OFFCURVE",
"319 563 OFFCURVE",
"319 578 CURVE SMOOTH",
"319 586 OFFCURVE",
"315 592 OFFCURVE",
"300 592 CURVE SMOOTH",
"248 592 OFFCURVE",
"193 546 OFFCURVE",
"187 508 CURVE SMOOTH",
"134 177 LINE SMOOTH"
);
}
);
};
layerId = "56450C88-1299-454A-B666-E6F9AF06B23F";
paths = (
{
closed = 1;
nodes = (
"50 0 OFFCURVE",
"66 13 OFFCURVE",
"93 13 CURVE SMOOTH",
"119 13 OFFCURVE",
"143 0 OFFCURVE",
"165 0 CURVE SMOOTH",
"182 0 OFFCURVE",
"202 8 OFFCURVE",
"228 42 CURVE SMOOTH",
"234 50 OFFCURVE",
"238 56 OFFCURVE",
"238 64 CURVE SMOOTH",
"238 69 OFFCURVE",
"236 71 OFFCURVE",
"231 71 CURVE SMOOTH",
"222 71 OFFCURVE",
"213 62 OFFCURVE",
"194 62 CURVE SMOOTH",
"183 62 OFFCURVE",
"171 65 OFFCURVE",
"162 70 CURVE",
"162 70 LINE",
"170 78 OFFCURVE",
"178 92 OFFCURVE",
"180 106 CURVE SMOOTH",
"198 213 LINE",
"341 218 OFFCURVE",
"447 322 OFFCURVE",
"447 432 CURVE SMOOTH",
"447 518 OFFCURVE",
"373 568 OFFCURVE",
"263 568 CURVE SMOOTH",
"142 568 OFFCURVE",
"66 506 OFFCURVE",
"41 446 CURVE SMOOTH",
"38 439 OFFCURVE",
"37 434 OFFCURVE",
"37 430 CURVE SMOOTH",
"37 424 OFFCURVE",
"38 420 OFFCURVE",
"45 420 CURVE SMOOTH",
"54 420 OFFCURVE",
"59 427 OFFCURVE",
"73 440 CURVE SMOOTH",
"115 480 OFFCURVE",
"171 506 OFFCURVE",
"242 506 CURVE SMOOTH",
"322 506 OFFCURVE",
"362 473 OFFCURVE",
"362 403 CURVE SMOOTH",
"362 327 OFFCURVE",
"314 274 OFFCURVE",
"237 274 CURVE SMOOTH",
"223 274 OFFCURVE",
"214 275 OFFCURVE",
"206 277 CURVE",
"226 400 LINE SMOOTH",
"234 454 OFFCURVE",
"245 454 OFFCURVE",
"245 466 CURVE SMOOTH",
"245 471 OFFCURVE",
"242 474 OFFCURVE",
"232 474 CURVE SMOOTH",
"194 474 OFFCURVE",
"147 438 OFFCURVE",
"142 406 CURVE SMOOTH",
"99 142 LINE SMOOTH",
"90 81 OFFCURVE",
"82 71 OFFCURVE",
"62 52 CURVE SMOOTH",
"50 40 OFFCURVE",
"37 26 OFFCURVE",
"37 10 CURVE SMOOTH",
"37 2 OFFCURVE",
"39 0 OFFCURVE",
"42 0 CURVE SMOOTH"
);
}
);
width = 460;
},
{
anchors = (
{
name = bottom;
position = "{116, 0}";
},
{
name = top;
position = "{258, 560}";
}
);
background = {
paths = (
{
closed = 1;
nodes = (
"58 0 OFFCURVE",
"72 14 OFFCURVE",
"92 14 CURVE SMOOTH",
"112 14 OFFCURVE",
"136 0 OFFCURVE",
"152 0 CURVE SMOOTH",
"158 0 OFFCURVE",
"172 2 OFFCURVE",
"201 33 CURVE SMOOTH",
"210 42 OFFCURVE",
"211 46 OFFCURVE",
"211 50 CURVE SMOOTH",
"211 54 OFFCURVE",
"209 56 OFFCURVE",
"206 56 CURVE SMOOTH",
"198 56 OFFCURVE",
"190 47 OFFCURVE",
"173 47 CURVE SMOOTH",
"163 47 OFFCURVE",
"157 50 OFFCURVE",
"145 54 CURVE",
"145 55 LINE",
"152 63 OFFCURVE",
"158 75 OFFCURVE",
"160 89 CURVE SMOOTH",
"184 229 LINE",
"302 238 OFFCURVE",
"426 329 OFFCURVE",
"426 439 CURVE SMOOTH",
"426 521 OFFCURVE",
"358 568 OFFCURVE",
"258 568 CURVE SMOOTH",
"143 568 OFFCURVE",
"58 505 OFFCURVE",
"46 451 CURVE SMOOTH",
"45 448 OFFCURVE",
"45 446 OFFCURVE",
"45 443 CURVE SMOOTH",
"45 440 OFFCURVE",
"46 436 OFFCURVE",
"51 436 CURVE SMOOTH",
"57 436 OFFCURVE",
"61 442 OFFCURVE",
"70 453 CURVE SMOOTH",
"112 501 OFFCURVE",
"168 524 OFFCURVE",
"232 524 CURVE SMOOTH",
"315 524 OFFCURVE",
"363 486 OFFCURVE",
"363 412 CURVE SMOOTH",
"363 334 OFFCURVE",
"309 274 OFFCURVE",
"230 274 CURVE SMOOTH",
"218 274 OFFCURVE",
"201 275 OFFCURVE",
"194 277 CURVE",
"218 431 LINE SMOOTH",
"224 470 OFFCURVE",
"238 474 OFFCURVE",
"238 482 CURVE SMOOTH",
"238 485 OFFCURVE",
"234 486 OFFCURVE",
"229 486 CURVE SMOOTH",
"204 486 OFFCURVE",
"162 453 OFFCURVE",
"157 426 CURVE SMOOTH",
"108 139 LINE SMOOTH",
"97 75 OFFCURVE",
"110 88 OFFCURVE",
"65 41 CURVE SMOOTH",
"53 29 OFFCURVE",
"47 20 OFFCURVE",
"47 8 CURVE SMOOTH",
"47 3 OFFCURVE",
"48 0 OFFCURVE",
"51 0 CURVE SMOOTH"
);
}
);
};
layerId = "0B1DFD06-3317-40CA-B510-4969A0718C16";
paths = (
{
closed = 1;
nodes = (
"58 0 OFFCURVE",
"72 14 OFFCURVE",
"92 14 CURVE SMOOTH",
"112 14 OFFCURVE",
"136 0 OFFCURVE",
"152 0 CURVE SMOOTH",
"158 0 OFFCURVE",
"172 2 OFFCURVE",
"201 33 CURVE SMOOTH",
"210 42 OFFCURVE",
"211 46 OFFCURVE",
"211 50 CURVE SMOOTH",
"211 54 OFFCURVE",
"209 56 OFFCURVE",
"206 56 CURVE SMOOTH",
"198 56 OFFCURVE",
"190 47 OFFCURVE",
"173 47 CURVE SMOOTH",
"163 47 OFFCURVE",
"157 50 OFFCURVE",
"145 54 CURVE",
"145 55 LINE",
"152 63 OFFCURVE",
"158 75 OFFCURVE",
"160 89 CURVE SMOOTH",
"184 229 LINE",
"302 238 OFFCURVE",
"426 329 OFFCURVE",
"426 439 CURVE SMOOTH",
"426 521 OFFCURVE",
"358 568 OFFCURVE",
"258 568 CURVE SMOOTH",
"143 568 OFFCURVE",
"60 509 OFFCURVE",
"46 451 CURVE SMOOTH",
"45 446 OFFCURVE",
"45 444 OFFCURVE",
"45 442 CURVE SMOOTH",
"45 439 OFFCURVE",
"46 436 OFFCURVE",
"50 436 CURVE SMOOTH",
"56 436 OFFCURVE",
"61 442 OFFCURVE",
"70 453 CURVE SMOOTH",
"112 501 OFFCURVE",
"168 524 OFFCURVE",
"232 524 CURVE SMOOTH",
"315 524 OFFCURVE",
"363 486 OFFCURVE",
"363 412 CURVE SMOOTH",
"363 334 OFFCURVE",
"309 274 OFFCURVE",
"230 274 CURVE SMOOTH",
"218 274 OFFCURVE",
"201 275 OFFCURVE",
"194 277 CURVE",
"218 431 LINE SMOOTH",
"224 470 OFFCURVE",
"238 474 OFFCURVE",
"238 482 CURVE SMOOTH",
"238 485 OFFCURVE",
"234 486 OFFCURVE",
"229 486 CURVE SMOOTH",
"204 486 OFFCURVE",
"162 453 OFFCURVE",
"157 426 CURVE SMOOTH",
"108 139 LINE SMOOTH",
"97 75 OFFCURVE",
"110 88 OFFCURVE",
"65 41 CURVE SMOOTH",
"53 29 OFFCURVE",
"47 20 OFFCURVE",
"47 8 CURVE SMOOTH",
"47 3 OFFCURVE",
"48 0 OFFCURVE",
"51 0 CURVE SMOOTH"
);
}
);
width = 446;
}
);
leftKerningGroup = P;
note = P;
rightKerningGroup = P;
unicode = 0050;
},
{
glyphname = Q;
lastChange = "2018-06-29 11:13:26 +0000";
layers = (
{
anchors = (
{
name = bottom;
position = "{171, -66}";
},
{
name = top;
position = "{335, 560}";
}
);
background = {
paths = (
{
closed = 1;
nodes = (
"437 -10 OFFCURVE",
"608 205 OFFCURVE",
"608 454 CURVE SMOOTH",
"608 608 OFFCURVE",
"536 710 OFFCURVE",
"429 710 CURVE SMOOTH",
"199 710 OFFCURVE",
"62 435 OFFCURVE",
"62 232 CURVE SMOOTH",
"62 87 OFFCURVE",
"134 -10 OFFCURVE",
"242 -10 CURVE SMOOTH"
);
},
{
closed = 1;
nodes = (
"659 -267 OFFCURVE",
"736 -204 OFFCURVE",
"750 -110 CURVE SMOOTH",
"751 -102 OFFCURVE",
"747 -96 OFFCURVE",
"740 -96 CURVE SMOOTH",
"730 -96 OFFCURVE",
"726 -105 OFFCURVE",
"717 -119 CURVE SMOOTH",
"689 -163 OFFCURVE",
"645 -187 OFFCURVE",
"585 -187 CURVE SMOOTH",
"510 -187 OFFCURVE",
"444 -135 OFFCURVE",
"346 28 CURVE SMOOTH",
"334 48 LINE",
"231 37 LINE",
"249 5 LINE SMOOTH",
"355 -184 OFFCURVE",
"456 -267 OFFCURVE",
"557 -267 CURVE SMOOTH"
);
},
{
closed = 1;
nodes = (
"220 68 OFFCURVE",
"182 135 OFFCURVE",
"182 268 CURVE SMOOTH",
"182 462 OFFCURVE",
"265 632 OFFCURVE",
"383 632 CURVE SMOOTH",
"452 632 OFFCURVE",
"488 556 OFFCURVE",
"488 407 CURVE SMOOTH",
"488 273 OFFCURVE",
"426 68 OFFCURVE",
"294 68 CURVE SMOOTH"
);
}
);
};
components = (
{
name = O;
}
);
layerId = "56450C88-1299-454A-B666-E6F9AF06B23F";
paths = (
{
closed = 1;
nodes = (
"546 -214 OFFCURVE",
"592 -123 OFFCURVE",
"592 -88 CURVE SMOOTH",
"593 -82 OFFCURVE",
"590 -77 OFFCURVE",
"584 -77 CURVE SMOOTH",
"576 -77 OFFCURVE",
"573 -84 OFFCURVE",
"566 -95 CURVE SMOOTH",
"544 -128 OFFCURVE",
"510 -150 OFFCURVE",
"463 -150 CURVE SMOOTH",
"398 -150 OFFCURVE",
"347 -108 OFFCURVE",
"269 22 CURVE SMOOTH",
"259 38 LINE",
"177 30 LINE",
"191 4 LINE SMOOTH",
"275 -146 OFFCURVE",
"350 -214 OFFCURVE",
"442 -214 CURVE SMOOTH"
);
}
);
width = 501;
},
{
anchors = (
{
name = bottom;
position = "{182, -74}";
},
{
name = top;
position = "{338, 560}";
}
);
background = {
paths = (
{
closed = 1;
nodes = (
"511 -214 OFFCURVE",
"572 -155 OFFCURVE",
"573 -101 CURVE SMOOTH",
"573 -94 OFFCURVE",
"572 -93 OFFCURVE",
"569 -93 CURVE SMOOTH",
"563 -93 OFFCURVE",
"562 -98 OFFCURVE",
"556 -107 CURVE SMOOTH",
"532 -146 OFFCURVE",
"497 -166 OFFCURVE",
"455 -166 CURVE SMOOTH",
"387 -166 OFFCURVE",
"331 -113 OFFCURVE",
"252 10 CURVE SMOOTH",
"245 22 LINE",
"187 15 LINE",
"196 0 LINE SMOOTH",
"274 -134 OFFCURVE",
"347 -214 OFFCURVE",
"436 -214 CURVE SMOOTH"
);
}
);
};
components = (
{
name = O;
}
);
layerId = "0B1DFD06-3317-40CA-B510-4969A0718C16";
paths = (
{
closed = 1;
nodes = (
"511 -214 OFFCURVE",
"572 -155 OFFCURVE",
"573 -101 CURVE SMOOTH",
"573 -94 OFFCURVE",
"571 -93 OFFCURVE",
"568 -93 CURVE SMOOTH",
"564 -93 OFFCURVE",
"562 -98 OFFCURVE",
"556 -107 CURVE SMOOTH",
"532 -146 OFFCURVE",
"497 -166 OFFCURVE",
"455 -166 CURVE SMOOTH",
"387 -166 OFFCURVE",
"331 -113 OFFCURVE",
"252 10 CURVE SMOOTH",
"245 22 LINE",
"187 15 LINE",
"196 0 LINE SMOOTH",
"274 -134 OFFCURVE",
"347 -214 OFFCURVE",
"436 -214 CURVE SMOOTH"
);
}
);
width = 490;
}
);
leftKerningGroup = O;
note = Q;
rightKerningGroup = O;
unicode = 0051;
},
{
glyphname = R;
lastChange = "2018-06-29 11:13:26 +0000";
layers = (
{
anchors = (
{
name = bottom;
position = "{239, 0}";
},
{
name = top;
position = "{275, 560}";
}
);
background = {
paths = (
{
closed = 1;
nodes = (
"70 0 OFFCURVE",
"88 16 OFFCURVE",
"123 16 CURVE SMOOTH",
"155 16 OFFCURVE",
"185 0 OFFCURVE",
"213 0 CURVE SMOOTH",
"237 0 OFFCURVE",
"256 9 OFFCURVE",
"285 52 CURVE SMOOTH",
"291 61 OFFCURVE",
"295 72 OFFCURVE",
"295 81 CURVE SMOOTH",
"295 86 OFFCURVE",
"291 89 OFFCURVE",
"286 89 CURVE SMOOTH",
"275 89 OFFCURVE",
"265 78 OFFCURVE",
"245 78 CURVE SMOOTH",
"233 78 OFFCURVE",
"220 81 OFFCURVE",
"208 87 CURVE",
"208 88 LINE",
"219 98 OFFCURVE",
"228 115 OFFCURVE",
"231 133 CURVE SMOOTH",
"259 306 LINE",
"428 321 OFFCURVE",
"555 403 OFFCURVE",
"555 540 CURVE SMOOTH",
"555 647 OFFCURVE",
"477 710 OFFCURVE",
"327 710 CURVE SMOOTH",
"206 710 OFFCURVE",
"98 649 OFFCURVE",
"57 558 CURVE SMOOTH",
"53 549 OFFCURVE",
"52 543 OFFCURVE",
"52 538 CURVE SMOOTH",
"52 530 OFFCURVE",
"56 525 OFFCURVE",
"64 525 CURVE SMOOTH",
"76 525 OFFCURVE",
"81 533 OFFCURVE",
"97 549 CURVE SMOOTH",
"152 604 OFFCURVE",
"226 633 OFFCURVE",
"311 633 CURVE SMOOTH",
"408 633 OFFCURVE",
"449 587 OFFCURVE",
"449 510 CURVE SMOOTH",
"449 404 OFFCURVE",
"400 352 OFFCURVE",
"298 352 CURVE SMOOTH",
"288 352 OFFCURVE",
"275 354 OFFCURVE",
"265 356 CURVE",
"288 500 LINE SMOOTH",
"297 554 OFFCURVE",
"315 563 OFFCURVE",
"315 578 CURVE SMOOTH",
"315 586 OFFCURVE",
"311 592 OFFCURVE",
"296 592 CURVE SMOOTH",
"244 592 OFFCURVE",
"191 546 OFFCURVE",
"185 508 CURVE SMOOTH",
"132 177 LINE SMOOTH",
"121 110 OFFCURVE",
"111 87 OFFCURVE",
"85 65 CURVE SMOOTH",
"66 49 OFFCURVE",
"53 30 OFFCURVE",
"53 10 CURVE SMOOTH",
"53 4 OFFCURVE",
"56 0 OFFCURVE",
"61 0 CURVE SMOOTH"
);
},
{
closed = 1;
nodes = (
"576 -10 OFFCURVE",
"627 47 OFFCURVE",
"627 108 CURVE SMOOTH",
"627 122 OFFCURVE",
"623 132 OFFCURVE",
"612 132 CURVE SMOOTH",
"606 132 OFFCURVE",
"600 125 OFFCURVE",
"594 116 CURVE SMOOTH",
"582 97 OFFCURVE",
"567 88 OFFCURVE",
"547 88 CURVE SMOOTH",
"527 88 OFFCURVE",
"514 99 OFFCURVE",
"498 138 CURVE SMOOTH",
"445 264 LINE SMOOTH",
"427 307 OFFCURVE",
"390 336 OFFCURVE",
"344 342 CURVE",
"281 332 LINE",
"259 306 LINE",
"317 306 OFFCURVE",
"321 288 OFFCURVE",
"341 240 CURVE SMOOTH",
"405 87 LINE SMOOTH",
"433 21 OFFCURVE",
"465 -10 OFFCURVE",
"519 -10 CURVE SMOOTH"
);
}
);
};
layerId = "56450C88-1299-454A-B666-E6F9AF06B23F";
paths = (
{
closed = 1;
nodes = (
"455 -8 OFFCURVE",
"494 38 OFFCURVE",
"494 86 CURVE SMOOTH",
"494 99 OFFCURVE",
"490 106 OFFCURVE",
"484 106 CURVE SMOOTH",
"478 106 OFFCURVE",
"474 100 OFFCURVE",
"470 93 CURVE SMOOTH",
"458 77 OFFCURVE",
"446 70 OFFCURVE",
"430 70 CURVE SMOOTH",
"416 70 OFFCURVE",
"405 75 OFFCURVE",
"390 110 CURVE SMOOTH",
"348 211 LINE SMOOTH",
"338 236 OFFCURVE",
"320 254 OFFCURVE",
"297 265 CURVE",
"383 295 OFFCURVE",
"436 354 OFFCURVE",
"436 431 CURVE SMOOTH",
"436 518 OFFCURVE",
"370 568 OFFCURVE",
"261 568 CURVE SMOOTH",
"140 568 OFFCURVE",
"63 507 OFFCURVE",
"38 446 CURVE SMOOTH",
"34 439 OFFCURVE",
"34 434 OFFCURVE",
"34 430 CURVE SMOOTH",
"34 424 OFFCURVE",
"35 420 OFFCURVE",
"42 420 CURVE SMOOTH",
"51 420 OFFCURVE",
"56 427 OFFCURVE",
"70 440 CURVE SMOOTH",
"113 481 OFFCURVE",
"170 506 OFFCURVE",
"238 506 CURVE SMOOTH",
"322 506 OFFCURVE",
"351 470 OFFCURVE",
"351 403 CURVE SMOOTH",
"351 327 OFFCURVE",
"312 282 OFFCURVE",
"235 282 CURVE SMOOTH",
"221 282 OFFCURVE",
"212 283 OFFCURVE",
"204 285 CURVE",
"222 400 LINE SMOOTH",
"230 449 OFFCURVE",
"243 453 OFFCURVE",
"243 466 CURVE SMOOTH",
"243 471 OFFCURVE",
"241 474 OFFCURVE",
"230 474 CURVE SMOOTH",
"192 474 OFFCURVE",
"146 438 OFFCURVE",
"140 406 CURVE SMOOTH",
"98 142 LINE SMOOTH",
"88 82 OFFCURVE",
"80 72 OFFCURVE",
"60 52 CURVE SMOOTH",
"47 40 OFFCURVE",
"34 26 OFFCURVE",
"34 10 CURVE SMOOTH",
"34 2 OFFCURVE",
"37 0 OFFCURVE",
"40 0 CURVE SMOOTH",
"48 0 OFFCURVE",
"63 13 OFFCURVE",
"90 13 CURVE SMOOTH",
"116 13 OFFCURVE",
"141 0 OFFCURVE",
"162 0 CURVE SMOOTH",
"176 0 OFFCURVE",
"199 6 OFFCURVE",
"220 42 CURVE SMOOTH",
"225 50 OFFCURVE",
"228 57 OFFCURVE",
"228 64 CURVE SMOOTH",
"228 69 OFFCURVE",
"226 71 OFFCURVE",
"222 71 CURVE SMOOTH",
"213 71 OFFCURVE",
"205 62 OFFCURVE",
"187 62 CURVE SMOOTH",
"178 62 OFFCURVE",
"168 65 OFFCURVE",
"158 70 CURVE",
"158 70 LINE",
"167 78 OFFCURVE",
"174 92 OFFCURVE",
"177 106 CURVE SMOOTH",
"199 245 LINE",
"246 245 OFFCURVE",
"249 230 OFFCURVE",
"265 192 CURVE SMOOTH",
"316 70 LINE SMOOTH",
"338 17 OFFCURVE",
"366 -8 OFFCURVE",
"403 -8 CURVE SMOOTH"
);
}
);
width = 494;
},
{
anchors = (
{
name = bottom;
position = "{229, 0}";
},
{
name = top;
position = "{267, 560}";
}
);
background = {
paths = (
{
closed = 1;
nodes = (
"430 -8 OFFCURVE",
"472 34 OFFCURVE",
"472 74 CURVE SMOOTH",
"472 80 OFFCURVE",
"471 85 OFFCURVE",
"466 85 CURVE SMOOTH",
"461 85 OFFCURVE",
"460 81 OFFCURVE",
"452 71 CURVE SMOOTH",
"441 58 OFFCURVE",
"428 50 OFFCURVE",
"414 50 CURVE SMOOTH",
"394 50 OFFCURVE",
"385 65 OFFCURVE",
"376 89 CURVE SMOOTH",
"335 198 LINE SMOOTH",
"325 226 OFFCURVE",
"306 252 OFFCURVE",
"272 262 CURVE",
"353 286 OFFCURVE",
"414 353 OFFCURVE",
"414 438 CURVE SMOOTH",
"414 521 OFFCURVE",
"355 568 OFFCURVE",
"255 568 CURVE SMOOTH",
"137 568 OFFCURVE",
"54 502 OFFCURVE",
"42 451 CURVE SMOOTH",
"42 448 OFFCURVE",
"41 446 OFFCURVE",
"41 443 CURVE SMOOTH",
"41 440 OFFCURVE",
"43 436 OFFCURVE",
"48 436 CURVE SMOOTH",
"54 436 OFFCURVE",
"58 442 OFFCURVE",
"67 453 CURVE SMOOTH",
"110 502 OFFCURVE",
"166 524 OFFCURVE",
"229 524 CURVE SMOOTH",
"312 524 OFFCURVE",
"352 486 OFFCURVE",
"352 412 CURVE SMOOTH",
"352 334 OFFCURVE",
"307 282 OFFCURVE",
"230 282 CURVE SMOOTH",
"216 282 OFFCURVE",
"199 283 OFFCURVE",
"192 285 CURVE",
"214 431 LINE SMOOTH",
"221 472 OFFCURVE",
"234 474 OFFCURVE",
"234 482 CURVE SMOOTH",
"234 485 OFFCURVE",
"231 486 OFFCURVE",
"226 486 CURVE SMOOTH",
"201 486 OFFCURVE",
"158 453 OFFCURVE",
"154 426 CURVE SMOOTH",
"105 139 LINE SMOOTH",
"94 75 OFFCURVE",
"106 88 OFFCURVE",
"62 41 CURVE SMOOTH",
"50 29 OFFCURVE",
"44 20 OFFCURVE",
"44 8 CURVE SMOOTH",
"44 3 OFFCURVE",
"45 0 OFFCURVE",
"48 0 CURVE SMOOTH",
"54 0 OFFCURVE",
"69 14 OFFCURVE",
"89 14 CURVE SMOOTH",
"109 14 OFFCURVE",
"133 0 OFFCURVE",
"149 0 CURVE SMOOTH",
"155 0 OFFCURVE",
"169 2 OFFCURVE",
"198 33 CURVE SMOOTH",
"206 42 OFFCURVE",
"208 46 OFFCURVE",
"208 50 CURVE SMOOTH",
"208 54 OFFCURVE",
"206 56 OFFCURVE",
"202 56 CURVE SMOOTH",
"195 56 OFFCURVE",
"187 47 OFFCURVE",
"170 47 CURVE SMOOTH",
"160 47 OFFCURVE",
"154 50 OFFCURVE",
"142 54 CURVE",
"142 55 LINE",
"149 63 OFFCURVE",
"154 75 OFFCURVE",
"157 89 CURVE SMOOTH",
"183 245 LINE",
"249 245 OFFCURVE",
"261 228 OFFCURVE",
"277 184 CURVE SMOOTH",
"326 53 LINE SMOOTH",
"341 12 OFFCURVE",
"361 -8 OFFCURVE",
"389 -8 CURVE SMOOTH"
);
}
);
};
layerId = "0B1DFD06-3317-40CA-B510-4969A0718C16";
paths = (
{
closed = 1;
nodes = (
"430 -8 OFFCURVE",
"472 34 OFFCURVE",
"472 74 CURVE SMOOTH",
"472 80 OFFCURVE",
"471 85 OFFCURVE",
"466 85 CURVE SMOOTH",
"461 85 OFFCURVE",
"460 81 OFFCURVE",
"452 71 CURVE SMOOTH",
"441 58 OFFCURVE",
"428 50 OFFCURVE",
"414 50 CURVE SMOOTH",
"394 50 OFFCURVE",
"385 65 OFFCURVE",
"376 89 CURVE SMOOTH",
"335 198 LINE SMOOTH",
"325 226 OFFCURVE",
"306 252 OFFCURVE",
"272 262 CURVE",
"353 286 OFFCURVE",
"414 353 OFFCURVE",
"414 438 CURVE SMOOTH",
"414 521 OFFCURVE",
"355 568 OFFCURVE",
"255 568 CURVE SMOOTH",
"137 568 OFFCURVE",
"56 505 OFFCURVE",
"42 451 CURVE SMOOTH",
"41 447 OFFCURVE",
"41 444 OFFCURVE",
"41 442 CURVE SMOOTH",
"41 439 OFFCURVE",
"42 436 OFFCURVE",
"46 436 CURVE SMOOTH",
"52 436 OFFCURVE",
"57 442 OFFCURVE",
"67 453 CURVE SMOOTH",
"112 503 OFFCURVE",
"166 524 OFFCURVE",
"229 524 CURVE SMOOTH",
"312 524 OFFCURVE",
"352 486 OFFCURVE",
"352 412 CURVE SMOOTH",
"352 334 OFFCURVE",
"307 282 OFFCURVE",
"230 282 CURVE SMOOTH",
"216 282 OFFCURVE",
"199 283 OFFCURVE",
"192 285 CURVE",
"214 431 LINE SMOOTH",
"221 472 OFFCURVE",
"234 474 OFFCURVE",
"234 482 CURVE SMOOTH",
"234 485 OFFCURVE",
"231 486 OFFCURVE",
"226 486 CURVE SMOOTH",
"201 486 OFFCURVE",
"158 453 OFFCURVE",
"154 426 CURVE SMOOTH",
"105 139 LINE SMOOTH",
"94 75 OFFCURVE",
"106 88 OFFCURVE",
"62 41 CURVE SMOOTH",
"50 29 OFFCURVE",
"44 20 OFFCURVE",
"44 8 CURVE SMOOTH",
"44 3 OFFCURVE",
"45 0 OFFCURVE",
"48 0 CURVE SMOOTH",
"54 0 OFFCURVE",
"69 14 OFFCURVE",
"89 14 CURVE SMOOTH",
"109 14 OFFCURVE",
"133 0 OFFCURVE",
"149 0 CURVE SMOOTH",
"155 0 OFFCURVE",
"169 2 OFFCURVE",
"198 33 CURVE SMOOTH",
"206 42 OFFCURVE",
"208 46 OFFCURVE",
"208 51 CURVE SMOOTH",
"208 54 OFFCURVE",
"206 56 OFFCURVE",
"203 56 CURVE SMOOTH",
"196 56 OFFCURVE",
"187 47 OFFCURVE",
"170 47 CURVE SMOOTH",
"160 47 OFFCURVE",
"154 50 OFFCURVE",
"142 54 CURVE",
"142 55 LINE",
"149 63 OFFCURVE",
"154 75 OFFCURVE",
"157 89 CURVE SMOOTH",
"183 245 LINE",
"249 245 OFFCURVE",
"261 228 OFFCURVE",
"277 184 CURVE SMOOTH",
"326 53 LINE SMOOTH",
"341 12 OFFCURVE",
"361 -8 OFFCURVE",
"389 -8 CURVE SMOOTH"
);
}
);
width = 477;
}
);
leftKerningGroup = R;
note = R;
rightKerningGroup = R;
unicode = 0052;
},
{
glyphname = S;
lastChange = "2018-06-29 11:13:26 +0000";
layers = (
{
anchors = (
{
name = bottom;
position = "{126, 0}";
},
{
name = top;
position = "{268, 560}";
}
);
background = {
paths = (
{
closed = 1;
nodes = (
"366 642 OFFCURVE",
"396 615 OFFCURVE",
"396 562 CURVE SMOOTH",
"396 537 OFFCURVE",
"403 526 OFFCURVE",
"420 526 CURVE SMOOTH",
"434 526 OFFCURVE",
"448 543 OFFCURVE",
"456 557 CURVE SMOOTH",
"469 580 OFFCURVE",
"475 599 OFFCURVE",
"475 624 CURVE SMOOTH",
"475 678 OFFCURVE",
"431 710 OFFCURVE",
"335 710 CURVE SMOOTH",
"219 710 OFFCURVE",
"122 616 OFFCURVE",
"122 498 CURVE SMOOTH",
"122 463 OFFCURVE",
"133 435 OFFCURVE",
"162 400 CURVE SMOOTH",
"257 287 LINE SMOOTH",
"302 233 OFFCURVE",
"314 209 OFFCURVE",
"314 167 CURVE SMOOTH",
"314 104 OFFCURVE",
"274 62 OFFCURVE",
"214 62 CURVE SMOOTH",
"138 62 OFFCURVE",
"105 107 OFFCURVE",
"100 221 CURVE SMOOTH",
"98 266 OFFCURVE",
"5 159 OFFCURVE",
"13 106 CURVE SMOOTH",
"23 36 OFFCURVE",
"86 -10 OFFCURVE",
"170 -10 CURVE SMOOTH",
"301 -10 OFFCURVE",
"418 98 OFFCURVE",
"418 219 CURVE SMOOTH",
"418 277 OFFCURVE",
"395 321 OFFCURVE",
"350 373 CURVE SMOOTH",
"253 484 LINE SMOOTH",
"230 510 OFFCURVE",
"220 533 OFFCURVE",
"220 558 CURVE SMOOTH",
"220 608 OFFCURVE",
"256 642 OFFCURVE",
"309 642 CURVE SMOOTH"
);
}
);
};
layerId = "56450C88-1299-454A-B666-E6F9AF06B23F";
paths = (
{
closed = 1;
nodes = (
"233 -8 OFFCURVE",
"326 78 OFFCURVE",
"326 177 CURVE SMOOTH",
"326 221 OFFCURVE",
"308 257 OFFCURVE",
"272 298 CURVE SMOOTH",
"194 387 LINE SMOOTH",
"176 408 OFFCURVE",
"168 426 OFFCURVE",
"168 448 CURVE SMOOTH",
"168 486 OFFCURVE",
"194 514 OFFCURVE",
"244 514 CURVE SMOOTH",
"294 514 OFFCURVE",
"307 486 OFFCURVE",
"310 450 CURVE SMOOTH",
"311 437 OFFCURVE",
"313 421 OFFCURVE",
"327 421 CURVE SMOOTH",
"337 421 OFFCURVE",
"346 428 OFFCURVE",
"357 446 CURVE SMOOTH",
"365 459 OFFCURVE",
"372 478 OFFCURVE",
"372 497 CURVE SMOOTH",
"372 542 OFFCURVE",
"334 568 OFFCURVE",
"270 568 CURVE SMOOTH",
"151 568 OFFCURVE",
"90 481 OFFCURVE",
"90 400 CURVE SMOOTH",
"90 370 OFFCURVE",
"98 348 OFFCURVE",
"122 320 CURVE SMOOTH",
"198 230 LINE SMOOTH",
"230 191 OFFCURVE",
"243 170 OFFCURVE",
"243 134 CURVE SMOOTH",
"243 83 OFFCURVE",
"214 50 OFFCURVE",
"155 50 CURVE SMOOTH",
"90 50 OFFCURVE",
"82 92 OFFCURVE",
"72 177 CURVE SMOOTH",
"71 182 OFFCURVE",
"70 186 OFFCURVE",
"66 186 CURVE SMOOTH",
"48 186 OFFCURVE",
"1 128 OFFCURVE",
"2 85 CURVE SMOOTH",
"4 46 OFFCURVE",
"46 -8 OFFCURVE",
"129 -8 CURVE SMOOTH"
);
}
);
width = 382;
},
{
anchors = (
{
name = bottom;
position = "{123, 0}";
},
{
name = top;
position = "{262, 560}";
}
);
background = {
paths = (
{
closed = 1;
nodes = (
"218 -8 OFFCURVE",
"308 73 OFFCURVE",
"308 169 CURVE SMOOTH",
"308 212 OFFCURVE",
"290 255 OFFCURVE",
"258 293 CURVE SMOOTH",
"181 382 LINE SMOOTH",
"161 406 OFFCURVE",
"151 429 OFFCURVE",
"151 454 CURVE SMOOTH",
"151 501 OFFCURVE",
"182 531 OFFCURVE",
"236 531 CURVE SMOOTH",
"300 531 OFFCURVE",
"304 488 OFFCURVE",
"306 466 CURVE SMOOTH",
"306 452 OFFCURVE",
"308 438 OFFCURVE",
"319 438 CURVE SMOOTH",
"325 438 OFFCURVE",
"329 442 OFFCURVE",
"334 450 CURVE SMOOTH",
"347 469 OFFCURVE",
"353 488 OFFCURVE",
"353 504 CURVE SMOOTH",
"353 547 OFFCURVE",
"313 568 OFFCURVE",
"261 568 CURVE SMOOTH",
"158 568 OFFCURVE",
"99 488 OFFCURVE",
"99 406 CURVE SMOOTH",
"99 368 OFFCURVE",
"111 346 OFFCURVE",
"127 327 CURVE SMOOTH",
"206 233 LINE SMOOTH",
"237 195 OFFCURVE",
"251 168 OFFCURVE",
"251 130 CURVE SMOOTH",
"251 68 OFFCURVE",
"214 32 OFFCURVE",
"159 32 CURVE SMOOTH",
"78 32 OFFCURVE",
"65 114 OFFCURVE",
"62 150 CURVE SMOOTH",
"62 152 OFFCURVE",
"61 155 OFFCURVE",
"58 155 CURVE SMOOTH",
"46 155 OFFCURVE",
"9 118 OFFCURVE",
"10 82 CURVE SMOOTH",
"12 50 OFFCURVE",
"47 -8 OFFCURVE",
"126 -8 CURVE SMOOTH"
);
}
);
};
layerId = "0B1DFD06-3317-40CA-B510-4969A0718C16";
paths = (
{
closed = 1;
nodes = (
"218 -8 OFFCURVE",
"308 73 OFFCURVE",
"308 169 CURVE SMOOTH",
"308 212 OFFCURVE",
"290 255 OFFCURVE",
"258 293 CURVE SMOOTH",
"181 382 LINE SMOOTH",
"161 406 OFFCURVE",
"151 429 OFFCURVE",
"151 454 CURVE SMOOTH",
"151 501 OFFCURVE",
"182 531 OFFCURVE",
"236 531 CURVE SMOOTH",
"300 531 OFFCURVE",
"305 485 OFFCURVE",
"306 466 CURVE SMOOTH",
"307 449 OFFCURVE",
"308 438 OFFCURVE",
"318 438 CURVE SMOOTH",
"324 438 OFFCURVE",
"329 442 OFFCURVE",
"334 450 CURVE SMOOTH",
"346 469 OFFCURVE",
"353 487 OFFCURVE",
"353 504 CURVE SMOOTH",
"353 547 OFFCURVE",
"313 568 OFFCURVE",
"261 568 CURVE SMOOTH",
"158 568 OFFCURVE",
"99 488 OFFCURVE",
"99 406 CURVE SMOOTH",
"99 368 OFFCURVE",
"111 346 OFFCURVE",
"127 327 CURVE SMOOTH",
"206 233 LINE SMOOTH",
"237 195 OFFCURVE",
"251 168 OFFCURVE",
"251 130 CURVE SMOOTH",
"251 68 OFFCURVE",
"214 32 OFFCURVE",
"159 32 CURVE SMOOTH",
"78 32 OFFCURVE",
"65 114 OFFCURVE",
"62 150 CURVE SMOOTH",
"62 152 OFFCURVE",
"61 155 OFFCURVE",
"58 155 CURVE SMOOTH",
"46 155 OFFCURVE",
"9 118 OFFCURVE",
"10 82 CURVE SMOOTH",
"12 50 OFFCURVE",
"47 -8 OFFCURVE",
"126 -8 CURVE SMOOTH"
);
}
);
width = 370;
}
);
leftKerningGroup = S;
note = S;
rightKerningGroup = S;
unicode = 0053;
},
{
glyphname = T;
lastChange = "2018-06-29 11:13:26 +0000";
layers = (
{
anchors = (
{
name = bottom;
position = "{210, 0}";
},
{
name = center;
position = "{262, 280}";
},
{
name = top;
position = "{306, 560}";
}
);
background = {
paths = (
{
closed = 1;
nodes = (
"190 0 OFFCURVE",
"208 16 OFFCURVE",
"243 16 CURVE SMOOTH",
"275 16 OFFCURVE",
"306 0 OFFCURVE",
"334 0 CURVE SMOOTH",
"358 0 OFFCURVE",
"377 11 OFFCURVE",
"412 53 CURVE SMOOTH",
"421 64 OFFCURVE",
"424 71 OFFCURVE",
"424 80 CURVE SMOOTH",
"424 85 OFFCURVE",
"421 89 OFFCURVE",
"416 89 CURVE SMOOTH",
"405 89 OFFCURVE",
"394 78 OFFCURVE",
"368 78 CURVE SMOOTH",
"356 78 OFFCURVE",
"341 81 OFFCURVE",
"329 87 CURVE",
"329 88 LINE",
"340 98 OFFCURVE",
"349 115 OFFCURVE",
"352 133 CURVE SMOOTH",
"436 609 LINE",
"465 609 LINE SMOOTH",
"623 609 OFFCURVE",
"719 684 OFFCURVE",
"722 811 CURVE SMOOTH",
"723 851 OFFCURVE",
"713 889 OFFCURVE",
"694 913 CURVE SMOOTH",
"678 934 OFFCURVE",
"619 845 OFFCURVE",
"619 826 CURVE SMOOTH",
"619 812 OFFCURVE",
"639 800 OFFCURVE",
"639 757 CURVE SMOOTH",
"639 713 OFFCURVE",
"606 700 OFFCURVE",
"527 700 CURVE SMOOTH",
"313 700 LINE SMOOTH",
"159 700 OFFCURVE",
"56 605 OFFCURVE",
"56 463 CURVE SMOOTH",
"56 440 OFFCURVE",
"63 411 OFFCURVE",
"73 390 CURVE SMOOTH",
"88 359 OFFCURVE",
"159 440 OFFCURVE",
"159 470 CURVE SMOOTH",
"159 487 OFFCURVE",
"142 496 OFFCURVE",
"142 540 CURVE SMOOTH",
"142 591 OFFCURVE",
"174 609 OFFCURVE",
"267 609 CURVE SMOOTH",
"329 609 LINE",
"252 175 LINE SMOOTH",
"240 108 OFFCURVE",
"231 87 OFFCURVE",
"205 65 CURVE SMOOTH",
"186 49 OFFCURVE",
"173 30 OFFCURVE",
"173 10 CURVE SMOOTH",
"173 4 OFFCURVE",
"176 0 OFFCURVE",
"181 0 CURVE SMOOTH"
);
}
);
};
layerId = "56450C88-1299-454A-B666-E6F9AF06B23F";
paths = (
{
closed = 1;
nodes = (
"144 0 OFFCURVE",
"159 13 OFFCURVE",
"186 13 CURVE SMOOTH",
"213 13 OFFCURVE",
"237 0 OFFCURVE",
"258 0 CURVE SMOOTH",
"276 0 OFFCURVE",
"295 8 OFFCURVE",
"322 42 CURVE SMOOTH",
"327 50 OFFCURVE",
"331 56 OFFCURVE",
"331 64 CURVE SMOOTH",
"331 69 OFFCURVE",
"330 71 OFFCURVE",
"325 71 CURVE SMOOTH",
"316 71 OFFCURVE",
"306 62 OFFCURVE",
"287 62 CURVE SMOOTH",
"277 62 OFFCURVE",
"265 65 OFFCURVE",
"255 70 CURVE",
"255 70 LINE",
"264 78 OFFCURVE",
"271 92 OFFCURVE",
"274 106 CURVE SMOOTH",
"341 487 LINE",
"364 487 LINE SMOOTH",
"488 487 OFFCURVE",
"570 548 OFFCURVE",
"570 650 CURVE SMOOTH",
"570 680 OFFCURVE",
"562 714 OFFCURVE",
"547 730 CURVE SMOOTH",
"546 732 OFFCURVE",
"545 733 OFFCURVE",
"542 733 CURVE SMOOTH",
"526 733 OFFCURVE",
"487 675 OFFCURVE",
"487 661 CURVE SMOOTH",
"487 651 OFFCURVE",
"503 638 OFFCURVE",
"503 608 CURVE SMOOTH",
"503 570 OFFCURVE",
"478 560 OFFCURVE",
"414 560 CURVE SMOOTH",
"242 560 LINE SMOOTH",
"119 560 OFFCURVE",
"37 481 OFFCURVE",
"37 378 CURVE SMOOTH",
"37 353 OFFCURVE",
"42 329 OFFCURVE",
"50 312 CURVE SMOOTH",
"52 309 OFFCURVE",
"54 306 OFFCURVE",
"58 306 CURVE SMOOTH",
"76 306 OFFCURVE",
"119 358 OFFCURVE",
"119 378 CURVE SMOOTH",
"119 388 OFFCURVE",
"106 399 OFFCURVE",
"106 431 CURVE SMOOTH",
"106 473 OFFCURVE",
"130 487 OFFCURVE",
"206 487 CURVE SMOOTH",
"255 487 LINE",
"194 142 LINE SMOOTH",
"184 85 OFFCURVE",
"179 74 OFFCURVE",
"156 52 CURVE SMOOTH",
"143 40 OFFCURVE",
"130 26 OFFCURVE",
"130 10 CURVE SMOOTH",
"130 2 OFFCURVE",
"133 0 OFFCURVE",
"136 0 CURVE SMOOTH"
);
}
);
width = 488;
},
{
anchors = (
{
name = bottom;
position = "{194, 0}";
},
{
name = center;
position = "{242, 280}";
},
{
name = top;
position = "{287, 560}";
}
);
background = {
paths = (
{
closed = 1;
nodes = (
"135 -1 OFFCURVE",
"154 12 OFFCURVE",
"172 12 CURVE SMOOTH",
"190 12 OFFCURVE",
"215 -1 OFFCURVE",
"233 -1 CURVE SMOOTH",
"247 -1 OFFCURVE",
"262 8 OFFCURVE",
"286 36 CURVE SMOOTH",
"291 42 OFFCURVE",
"293 46 OFFCURVE",
"293 49 CURVE SMOOTH",
"293 52 OFFCURVE",
"293 54 OFFCURVE",
"288 54 CURVE SMOOTH",
"278 54 OFFCURVE",
"272 46 OFFCURVE",
"254 46 CURVE SMOOTH",
"246 46 OFFCURVE",
"234 47 OFFCURVE",
"222 52 CURVE",
"222 53 LINE",
"230 62 OFFCURVE",
"236 71 OFFCURVE",
"239 90 CURVE SMOOTH",
"310 506 LINE",
"335 506 LINE SMOOTH",
"456 506 OFFCURVE",
"532 569 OFFCURVE",
"532 665 CURVE SMOOTH",
"532 686 OFFCURVE",
"528 711 OFFCURVE",
"518 728 CURVE SMOOTH",
"517 730 OFFCURVE",
"515 731 OFFCURVE",
"513 731 CURVE SMOOTH",
"499 731 OFFCURVE",
"470 686 OFFCURVE",
"470 675 CURVE SMOOTH",
"470 667 OFFCURVE",
"485 655 OFFCURVE",
"485 619 CURVE SMOOTH",
"485 578 OFFCURVE",
"465 560 OFFCURVE",
"381 560 CURVE SMOOTH",
"242 560 LINE SMOOTH",
"126 560 OFFCURVE",
"48 496 OFFCURVE",
"46 402 CURVE SMOOTH",
"45 377 OFFCURVE",
"50 350 OFFCURVE",
"59 336 CURVE SMOOTH",
"61 334 OFFCURVE",
"62 333 OFFCURVE",
"64 333 CURVE SMOOTH",
"78 333 OFFCURVE",
"107 377 OFFCURVE",
"107 389 CURVE SMOOTH",
"107 398 OFFCURVE",
"92 410 OFFCURVE",
"92 445 CURVE SMOOTH",
"92 490 OFFCURVE",
"117 506 OFFCURVE",
"196 506 CURVE SMOOTH",
"251 506 LINE",
"186 131 LINE SMOOTH",
"174 67 OFFCURVE",
"165 58 OFFCURVE",
"142 38 CURVE SMOOTH",
"136 34 OFFCURVE",
"122 14 OFFCURVE",
"122 4 CURVE SMOOTH",
"122 1 OFFCURVE",
"124 -1 OFFCURVE",
"126 -1 CURVE SMOOTH"
);
}
);
};
layerId = "0B1DFD06-3317-40CA-B510-4969A0718C16";
paths = (
{
closed = 1;
nodes = (
"135 -1 OFFCURVE",
"154 12 OFFCURVE",
"172 12 CURVE SMOOTH",
"190 12 OFFCURVE",
"215 -1 OFFCURVE",
"233 -1 CURVE SMOOTH",
"247 -1 OFFCURVE",
"262 8 OFFCURVE",
"286 36 CURVE SMOOTH",
"291 42 OFFCURVE",
"293 46 OFFCURVE",
"293 50 CURVE SMOOTH",
"293 53 OFFCURVE",
"291 54 OFFCURVE",
"288 54 CURVE SMOOTH",
"281 54 OFFCURVE",
"272 46 OFFCURVE",
"254 46 CURVE SMOOTH",
"246 46 OFFCURVE",
"234 47 OFFCURVE",
"222 52 CURVE",
"222 53 LINE",
"229 62 OFFCURVE",
"236 71 OFFCURVE",
"239 90 CURVE SMOOTH",
"310 506 LINE",
"335 506 LINE SMOOTH",
"456 506 OFFCURVE",
"532 569 OFFCURVE",
"532 665 CURVE SMOOTH",
"532 686 OFFCURVE",
"528 711 OFFCURVE",
"518 728 CURVE SMOOTH",
"517 730 OFFCURVE",
"515 731 OFFCURVE",
"513 731 CURVE SMOOTH",
"499 731 OFFCURVE",
"470 686 OFFCURVE",
"470 675 CURVE SMOOTH",
"470 667 OFFCURVE",
"485 655 OFFCURVE",
"485 619 CURVE SMOOTH",
"485 578 OFFCURVE",
"465 560 OFFCURVE",
"381 560 CURVE SMOOTH",
"242 560 LINE SMOOTH",
"126 560 OFFCURVE",
"48 496 OFFCURVE",
"46 402 CURVE SMOOTH",
"45 377 OFFCURVE",
"50 350 OFFCURVE",
"59 336 CURVE SMOOTH",
"61 333 OFFCURVE",
"63 333 OFFCURVE",
"64 333 CURVE SMOOTH",
"78 333 OFFCURVE",
"107 377 OFFCURVE",
"107 389 CURVE SMOOTH",
"107 398 OFFCURVE",
"92 410 OFFCURVE",
"92 445 CURVE SMOOTH",
"92 490 OFFCURVE",
"117 506 OFFCURVE",
"196 506 CURVE SMOOTH",
"251 506 LINE",
"186 131 LINE SMOOTH",
"174 67 OFFCURVE",
"165 58 OFFCURVE",
"142 38 CURVE SMOOTH",
"134 31 OFFCURVE",
"122 14 OFFCURVE",
"122 4 CURVE SMOOTH",
"122 1 OFFCURVE",
"124 -1 OFFCURVE",
"126 -1 CURVE SMOOTH"
);
}
);
width = 458;
}
);
leftKerningGroup = T;
note = T;
rightKerningGroup = T;
unicode = 0054;
},
{
glyphname = U;
lastChange = "2018-06-29 11:20:12 +0000";
layers = (
{
anchors = (
{
name = bottom;
position = "{237, 0}";
},
{
name = ogonek;
position = "{302, 5}";
},
{
name = top;
position = "{349, 560}";
},
{
name = topright;
position = "{512, 478}";
}
);
background = {
paths = (
{
closed = 1;
nodes = (
"656 618 LINE SMOOTH",
"665 673 OFFCURVE",
"683 681 OFFCURVE",
"683 696 CURVE SMOOTH",
"683 704 OFFCURVE",
"679 710 OFFCURVE",
"664 710 CURVE SMOOTH",
"612 710 OFFCURVE",
"557 664 OFFCURVE",
"551 626 CURVE SMOOTH",
"503 324 LINE SMOOTH",
"474 144 OFFCURVE",
"427 72 OFFCURVE",
"340 72 CURVE SMOOTH",
"250 72 OFFCURVE",
"220 134 OFFCURVE",
"243 269 CURVE SMOOTH",
"290 543 LINE SMOOTH",
"306 636 OFFCURVE",
"321 682 OFFCURVE",
"331 700 CURVE",
"311 700 OFFCURVE",
"295 695 OFFCURVE",
"263 695 CURVE SMOOTH",
"229 695 OFFCURVE",
"203 700 OFFCURVE",
"178 700 CURVE SMOOTH",
"98 700 OFFCURVE",
"46 662 OFFCURVE",
"28 589 CURVE SMOOTH",
"27 585 OFFCURVE",
"26 578 OFFCURVE",
"26 574 CURVE SMOOTH",
"26 567 OFFCURVE",
"29 562 OFFCURVE",
"34 562 CURVE SMOOTH",
"40 562 OFFCURVE",
"46 569 OFFCURVE",
"53 579 CURVE SMOOTH",
"71 604 OFFCURVE",
"97 615 OFFCURVE",
"139 615 CURVE SMOOTH",
"170 615 OFFCURVE",
"182 610 OFFCURVE",
"195 610 CURVE",
"135 273 LINE SMOOTH",
"105 103 OFFCURVE",
"175 -10 OFFCURVE",
"312 -10 CURVE SMOOTH",
"460 -10 OFFCURVE",
"578 118 OFFCURVE",
"608 309 CURVE SMOOTH"
);
}
);
};
layerId = "56450C88-1299-454A-B666-E6F9AF06B23F";
paths = (
{
closed = 1;
nodes = (
"357 -8 OFFCURVE",
"454 90 OFFCURVE",
"478 247 CURVE SMOOTH",
"517 494 LINE SMOOTH",
"523 538 OFFCURVE",
"538 546 OFFCURVE",
"538 559 CURVE SMOOTH",
"538 566 OFFCURVE",
"534 568 OFFCURVE",
"524 568 CURVE SMOOTH",
"486 568 OFFCURVE",
"438 533 OFFCURVE",
"433 501 CURVE SMOOTH",
"394 259 LINE SMOOTH",
"371 114 OFFCURVE",
"334 58 OFFCURVE",
"262 58 CURVE SMOOTH",
"193 58 OFFCURVE",
"168 108 OFFCURVE",
"186 215 CURVE SMOOTH",
"224 434 LINE SMOOTH",
"237 509 OFFCURVE",
"249 546 OFFCURVE",
"257 560 CURVE",
"241 560 OFFCURVE",
"229 556 OFFCURVE",
"202 556 CURVE SMOOTH",
"175 556 OFFCURVE",
"155 560 OFFCURVE",
"134 560 CURVE SMOOTH",
"69 560 OFFCURVE",
"26 525 OFFCURVE",
"14 471 CURVE SMOOTH",
"14 468 OFFCURVE",
"13 462 OFFCURVE",
"13 459 CURVE SMOOTH",
"13 454 OFFCURVE",
"15 450 OFFCURVE",
"19 450 CURVE SMOOTH",
"24 450 OFFCURVE",
"28 455 OFFCURVE",
"34 463 CURVE SMOOTH",
"50 482 OFFCURVE",
"65 493 OFFCURVE",
"103 493 CURVE SMOOTH",
"129 493 OFFCURVE",
"138 488 OFFCURVE",
"148 488 CURVE",
"100 218 LINE SMOOTH",
"76 85 OFFCURVE",
"130 -8 OFFCURVE",
"242 -8 CURVE SMOOTH"
);
}
);
width = 540;
},
{
anchors = (
{
name = bottom;
position = "{223, 0}";
},
{
name = ogonek;
position = "{281, 8}";
},
{
name = top;
position = "{342, 560}";
},
{
name = topright;
position = "{490, 486}";
}
);
background = {
paths = (
{
closed = 1;
nodes = (
"334 -8 OFFCURVE",
"426 91 OFFCURVE",
"450 241 CURVE SMOOTH",
"494 511 LINE SMOOTH",
"499 548 OFFCURVE",
"514 557 OFFCURVE",
"514 563 CURVE SMOOTH",
"514 566 OFFCURVE",
"510 568 OFFCURVE",
"504 568 CURVE SMOOTH",
"476 568 OFFCURVE",
"435 535 OFFCURVE",
"431 509 CURVE SMOOTH",
"390 251 LINE SMOOTH",
"366 101 OFFCURVE",
"314 26 OFFCURVE",
"234 26 CURVE SMOOTH",
"154 26 OFFCURVE",
"146 102 OFFCURVE",
"162 199 CURVE SMOOTH",
"201 422 LINE SMOOTH",
"211 482 OFFCURVE",
"224 543 OFFCURVE",
"235 560 CURVE",
"218 560 OFFCURVE",
"210 557 OFFCURVE",
"187 557 CURVE SMOOTH",
"164 557 OFFCURVE",
"140 560 OFFCURVE",
"122 560 CURVE SMOOTH",
"67 560 OFFCURVE",
"30 529 OFFCURVE",
"22 485 CURVE SMOOTH",
"22 483 OFFCURVE",
"21 483 OFFCURVE",
"21 478 CURVE SMOOTH",
"21 471 OFFCURVE",
"22 468 OFFCURVE",
"25 468 CURVE SMOOTH",
"30 468 OFFCURVE",
"32 474 OFFCURVE",
"38 482 CURVE SMOOTH",
"46 495 OFFCURVE",
"66 512 OFFCURVE",
"105 512 CURVE SMOOTH",
"124 512 OFFCURVE",
"144 508 OFFCURVE",
"156 508 CURVE",
"101 200 LINE SMOOTH",
"78 70 OFFCURVE",
"118 -8 OFFCURVE",
"219 -8 CURVE SMOOTH"
);
}
);
};
layerId = "0B1DFD06-3317-40CA-B510-4969A0718C16";
paths = (
{
closed = 1;
nodes = (
"333 -8 OFFCURVE",
"426 91 OFFCURVE",
"450 241 CURVE SMOOTH",
"494 511 LINE SMOOTH",
"499 548 OFFCURVE",
"514 558 OFFCURVE",
"514 564 CURVE SMOOTH",
"514 567 OFFCURVE",
"510 568 OFFCURVE",
"504 568 CURVE SMOOTH",
"476 568 OFFCURVE",
"435 535 OFFCURVE",
"431 509 CURVE SMOOTH",
"390 251 LINE SMOOTH",
"366 101 OFFCURVE",
"313 26 OFFCURVE",
"233 26 CURVE SMOOTH",
"153 26 OFFCURVE",
"146 102 OFFCURVE",
"162 199 CURVE SMOOTH",
"201 422 LINE SMOOTH",
"211 482 OFFCURVE",
"224 543 OFFCURVE",
"235 560 CURVE",
"221 560 OFFCURVE",
"209 557 OFFCURVE",
"185 557 CURVE SMOOTH",
"161 557 OFFCURVE",
"140 560 OFFCURVE",
"122 560 CURVE SMOOTH",
"71 560 OFFCURVE",
"34 534 OFFCURVE",
"23 489 CURVE SMOOTH",
"22 485 OFFCURVE",
"21 480 OFFCURVE",
"21 475 CURVE SMOOTH",
"21 471 OFFCURVE",
"22 468 OFFCURVE",
"25 468 CURVE SMOOTH",
"29 468 OFFCURVE",
"32 474 OFFCURVE",
"38 482 CURVE SMOOTH",
"53 503 OFFCURVE",
"74 512 OFFCURVE",
"105 512 CURVE SMOOTH",
"124 512 OFFCURVE",
"144 508 OFFCURVE",
"156 508 CURVE",
"101 200 LINE SMOOTH",
"78 70 OFFCURVE",
"117 -8 OFFCURVE",
"218 -8 CURVE SMOOTH"
);
}
);
width = 523;
}
);
leftKerningGroup = U;
note = U;
rightKerningGroup = U;
unicode = 0055;
},
{
glyphname = V;
lastChange = "2018-06-29 11:20:15 +0000";
layers = (
{
anchors = (
{
name = bottom;
position = "{234, 0}";
},
{
name = top;
position = "{318, 560}";
}
);
background = {
paths = (
{
closed = 1;
nodes = (
"309 -10 OFFCURVE",
"345 18 OFFCURVE",
"362 42 CURVE SMOOTH",
"376 62 OFFCURVE",
"384 77 OFFCURVE",
"390 87 CURVE SMOOTH",
"536 336 LINE SMOOTH",
"604 452 OFFCURVE",
"638 552 OFFCURVE",
"639 604 CURVE SMOOTH",
"640 652 OFFCURVE",
"618 710 OFFCURVE",
"578 710 CURVE SMOOTH",
"551 710 OFFCURVE",
"481 612 OFFCURVE",
"493 603 CURVE SMOOTH",
"512 589 OFFCURVE",
"522 560 OFFCURVE",
"522 530 CURVE SMOOTH",
"522 439 OFFCURVE",
"468 316 OFFCURVE",
"357 133 CURVE",
"357 265 OFFCURVE",
"331 508 OFFCURVE",
"298 608 CURVE SMOOTH",
"273 683 OFFCURVE",
"248 710 OFFCURVE",
"201 710 CURVE SMOOTH",
"118 710 OFFCURVE",
"46 602 OFFCURVE",
"46 507 CURVE SMOOTH",
"46 500 OFFCURVE",
"49 496 OFFCURVE",
"56 496 CURVE SMOOTH",
"63 496 OFFCURVE",
"68 503 OFFCURVE",
"73 515 CURVE SMOOTH",
"97 573 OFFCURVE",
"120 600 OFFCURVE",
"146 600 CURVE SMOOTH",
"166 600 OFFCURVE",
"178 587 OFFCURVE",
"186 561 CURVE SMOOTH",
"223 442 OFFCURVE",
"250 212 OFFCURVE",
"259 23 CURVE SMOOTH",
"260 1 OFFCURVE",
"259 -10 OFFCURVE",
"279 -10 CURVE SMOOTH"
);
}
);
};
layerId = "56450C88-1299-454A-B666-E6F9AF06B23F";
paths = (
{
closed = 1;
nodes = (
"234 -8 OFFCURVE",
"265 11 OFFCURVE",
"282 34 CURVE SMOOTH",
"290 46 OFFCURVE",
"302 67 OFFCURVE",
"304 70 CURVE SMOOTH",
"421 269 LINE SMOOTH",
"475 362 OFFCURVE",
"502 440 OFFCURVE",
"503 483 CURVE SMOOTH",
"505 526 OFFCURVE",
"481 568 OFFCURVE",
"458 568 CURVE SMOOTH",
"429 568 OFFCURVE",
"378 490 OFFCURVE",
"386 482 CURVE SMOOTH",
"397 473 OFFCURVE",
"410 460 OFFCURVE",
"410 422 CURVE SMOOTH",
"410 350 OFFCURVE",
"363 247 OFFCURVE",
"278 106 CURVE",
"278 211 OFFCURVE",
"258 396 OFFCURVE",
"230 486 CURVE SMOOTH",
"211 549 OFFCURVE",
"186 568 OFFCURVE",
"154 568 CURVE SMOOTH",
"86 568 OFFCURVE",
"29 479 OFFCURVE",
"29 410 CURVE SMOOTH",
"29 399 OFFCURVE",
"30 397 OFFCURVE",
"36 397 CURVE SMOOTH",
"42 397 OFFCURVE",
"46 401 OFFCURVE",
"50 412 CURVE SMOOTH",
"67 450 OFFCURVE",
"83 480 OFFCURVE",
"110 480 CURVE SMOOTH",
"129 480 OFFCURVE",
"136 463 OFFCURVE",
"141 449 CURVE SMOOTH",
"171 358 OFFCURVE",
"197 113 OFFCURVE",
"199 18 CURVE SMOOTH",
"200 1 OFFCURVE",
"198 -8 OFFCURVE",
"212 -8 CURVE SMOOTH"
);
}
);
width = 500;
},
{
anchors = (
{
name = bottom;
position = "{236, 0}";
},
{
name = top;
position = "{308, 560}";
}
);
background = {
paths = (
{
closed = 1;
nodes = (
"230 -8 OFFCURVE",
"251 6 OFFCURVE",
"261 18 CURVE SMOOTH",
"270 30 OFFCURVE",
"285 58 OFFCURVE",
"287 62 CURVE SMOOTH",
"405 266 LINE SMOOTH",
"462 365 OFFCURVE",
"483 457 OFFCURVE",
"483 500 CURVE SMOOTH",
"483 539 OFFCURVE",
"466 569 OFFCURVE",
"454 569 CURVE SMOOTH",
"436 569 OFFCURVE",
"390 505 OFFCURVE",
"395 499 CURVE SMOOTH",
"408 485 OFFCURVE",
"415 475 OFFCURVE",
"415 446 CURVE SMOOTH",
"415 362 OFFCURVE",
"358 239 OFFCURVE",
"262 87 CURVE",
"255 240 OFFCURVE",
"233 415 OFFCURVE",
"210 492 CURVE SMOOTH",
"190 561 OFFCURVE",
"164 568 OFFCURVE",
"146 568 CURVE SMOOTH",
"85 568 OFFCURVE",
"37 488 OFFCURVE",
"37 427 CURVE SMOOTH",
"37 416 OFFCURVE",
"38 413 OFFCURVE",
"43 413 CURVE SMOOTH",
"50 413 OFFCURVE",
"52 418 OFFCURVE",
"56 430 CURVE SMOOTH",
"75 483 OFFCURVE",
"94 499 OFFCURVE",
"114 499 CURVE SMOOTH",
"134 499 OFFCURVE",
"141 483 OFFCURVE",
"148 459 CURVE SMOOTH",
"180 356 OFFCURVE",
"194 186 OFFCURVE",
"203 14 CURVE SMOOTH",
"204 -5 OFFCURVE",
"206 -8 OFFCURVE",
"214 -8 CURVE SMOOTH"
);
}
);
};
layerId = "0B1DFD06-3317-40CA-B510-4969A0718C16";
paths = (
{
closed = 1;
nodes = (
"230 -8 OFFCURVE",
"251 6 OFFCURVE",
"261 18 CURVE SMOOTH",
"270 30 OFFCURVE",
"285 58 OFFCURVE",
"287 62 CURVE SMOOTH",
"405 266 LINE SMOOTH",
"462 365 OFFCURVE",
"483 457 OFFCURVE",
"483 500 CURVE SMOOTH",
"483 539 OFFCURVE",
"466 569 OFFCURVE",
"454 569 CURVE SMOOTH",
"436 569 OFFCURVE",
"390 505 OFFCURVE",
"395 499 CURVE SMOOTH",
"408 485 OFFCURVE",
"415 475 OFFCURVE",
"415 446 CURVE SMOOTH",
"415 362 OFFCURVE",
"358 239 OFFCURVE",
"262 87 CURVE",
"255 240 OFFCURVE",
"233 415 OFFCURVE",
"210 492 CURVE SMOOTH",
"190 561 OFFCURVE",
"164 568 OFFCURVE",
"146 568 CURVE SMOOTH",
"85 568 OFFCURVE",
"37 488 OFFCURVE",
"37 427 CURVE SMOOTH",
"37 417 OFFCURVE",
"39 413 OFFCURVE",
"43 413 CURVE SMOOTH",
"48 413 OFFCURVE",
"51 418 OFFCURVE",
"55 430 CURVE SMOOTH",
"73 483 OFFCURVE",
"94 499 OFFCURVE",
"114 499 CURVE SMOOTH",
"134 499 OFFCURVE",
"141 483 OFFCURVE",
"148 459 CURVE SMOOTH",
"180 356 OFFCURVE",
"194 186 OFFCURVE",
"203 14 CURVE SMOOTH",
"204 -5 OFFCURVE",
"206 -8 OFFCURVE",
"214 -8 CURVE SMOOTH"
);
}
);
width = 488;
}
);
note = V;
unicode = 0056;
},
{
glyphname = W;
lastChange = "2018-06-29 11:20:18 +0000";
layers = (
{
anchors = (
{
name = bottom;
position = "{273, 0}";
},
{
name = top;
position = "{393, 560}";
}
);
background = {
paths = (
{
closed = 1;
nodes = (
"185 -10 OFFCURVE",
"201 -3 OFFCURVE",
"209 4 CURVE SMOOTH",
"233 25 OFFCURVE",
"259 53 OFFCURVE",
"276 90 CURVE SMOOTH",
"310 165 OFFCURVE",
"367 312 OFFCURVE",
"437 434 CURVE",
"438 434 LINE",
"441 331 OFFCURVE",
"465 161 OFFCURVE",
"465 36 CURVE SMOOTH",
"465 11 OFFCURVE",
"462 -10 OFFCURVE",
"475 -10 CURVE SMOOTH",
"489 -10 OFFCURVE",
"499 -1 OFFCURVE",
"512 11 CURVE SMOOTH",
"539 37 OFFCURVE",
"560 70 OFFCURVE",
"570 92 CURVE SMOOTH",
"583 120 OFFCURVE",
"735 442 OFFCURVE",
"751 478 CURVE SMOOTH",
"778 538 OFFCURVE",
"796 581 OFFCURVE",
"796 617 CURVE SMOOTH",
"796 664 OFFCURVE",
"762 711 OFFCURVE",
"737 711 CURVE SMOOTH",
"714 711 OFFCURVE",
"640 611 OFFCURVE",
"652 603 CURVE SMOOTH",
"676 587 OFFCURVE",
"684 564 OFFCURVE",
"684 535 CURVE SMOOTH",
"684 493 OFFCURVE",
"661 434 OFFCURVE",
"629 364 CURVE SMOOTH",
"597 294 OFFCURVE",
"563 226 OFFCURVE",
"557 212 CURVE",
"556 212 LINE",
"554 228 OFFCURVE",
"553 261 OFFCURVE",
"548 337 CURVE SMOOTH",
"543 414 OFFCURVE",
"538 518 OFFCURVE",
"538 573 CURVE SMOOTH",
"538 606 OFFCURVE",
"542 648 OFFCURVE",
"547 676 CURVE SMOOTH",
"553 710 OFFCURVE",
"457 641 OFFCURVE",
"441 595 CURVE SMOOTH",
"417 525 OFFCURVE",
"364 442 OFFCURVE",
"295 290 CURVE",
"294 290 LINE",
"296 317 OFFCURVE",
"297 375 OFFCURVE",
"297 414 CURVE SMOOTH",
"297 617 OFFCURVE",
"284 710 OFFCURVE",
"201 710 CURVE SMOOTH",
"118 710 OFFCURVE",
"46 604 OFFCURVE",
"46 509 CURVE SMOOTH",
"46 502 OFFCURVE",
"49 498 OFFCURVE",
"56 498 CURVE SMOOTH",
"63 498 OFFCURVE",
"68 505 OFFCURVE",
"73 517 CURVE SMOOTH",
"99 580 OFFCURVE",
"122 602 OFFCURVE",
"154 602 CURVE SMOOTH",
"186 602 OFFCURVE",
"195 564 OFFCURVE",
"195 435 CURVE SMOOTH",
"195 315 OFFCURVE",
"191 214 OFFCURVE",
"165 5 CURVE SMOOTH",
"164 -4 OFFCURVE",
"166 -10 OFFCURVE",
"178 -10 CURVE SMOOTH"
);
}
);
};
layerId = "56450C88-1299-454A-B666-E6F9AF06B23F";
paths = (
{
closed = 1;
nodes = (
"144 -8 OFFCURVE",
"152 -2 OFFCURVE",
"159 3 CURVE SMOOTH",
"180 19 OFFCURVE",
"199 43 OFFCURVE",
"213 72 CURVE SMOOTH",
"231 110 OFFCURVE",
"282 244 OFFCURVE",
"342 347 CURVE",
"342 347 LINE",
"345 269 OFFCURVE",
"364 122 OFFCURVE",
"364 35 CURVE SMOOTH",
"364 4 OFFCURVE",
"362 -8 OFFCURVE",
"374 -8 CURVE SMOOTH",
"382 -8 OFFCURVE",
"391 -1 OFFCURVE",
"402 9 CURVE SMOOTH",
"424 30 OFFCURVE",
"439 55 OFFCURVE",
"448 74 CURVE SMOOTH",
"544 278 OFFCURVE",
"581 356 OFFCURVE",
"593 382 CURVE SMOOTH",
"614 430 OFFCURVE",
"629 465 OFFCURVE",
"629 493 CURVE SMOOTH",
"629 533 OFFCURVE",
"599 569 OFFCURVE",
"584 569 CURVE SMOOTH",
"562 569 OFFCURVE",
"508 494 OFFCURVE",
"514 482 CURVE SMOOTH",
"516 477 OFFCURVE",
"539 470 OFFCURVE",
"539 430 CURVE SMOOTH",
"539 394 OFFCURVE",
"521 347 OFFCURVE",
"495 291 CURVE SMOOTH",
"471 238 OFFCURVE",
"442 181 OFFCURVE",
"438 170 CURVE",
"437 170 LINE",
"436 180 OFFCURVE",
"435 192 OFFCURVE",
"430 270 CURVE SMOOTH",
"426 334 OFFCURVE",
"422 413 OFFCURVE",
"422 454 CURVE SMOOTH",
"422 491 OFFCURVE",
"426 516 OFFCURVE",
"430 541 CURVE SMOOTH",
"434 564 OFFCURVE",
"370 526 OFFCURVE",
"345 476 CURVE SMOOTH",
"338 461 OFFCURVE",
"249 276 OFFCURVE",
"228 232 CURVE",
"227 232 LINE",
"229 254 OFFCURVE",
"230 297 OFFCURVE",
"230 338 CURVE SMOOTH",
"230 491 OFFCURVE",
"218 568 OFFCURVE",
"154 568 CURVE SMOOTH",
"86 568 OFFCURVE",
"29 481 OFFCURVE",
"29 412 CURVE SMOOTH",
"29 401 OFFCURVE",
"30 398 OFFCURVE",
"36 398 CURVE SMOOTH",
"42 398 OFFCURVE",
"46 402 OFFCURVE",
"50 414 CURVE SMOOTH",
"66 448 OFFCURVE",
"82 482 OFFCURVE",
"113 482 CURVE SMOOTH",
"143 482 OFFCURVE",
"148 450 OFFCURVE",
"148 335 CURVE SMOOTH",
"148 220 OFFCURVE",
"143 174 OFFCURVE",
"124 3 CURVE SMOOTH",
"123 -4 OFFCURVE",
"123 -8 OFFCURVE",
"133 -8 CURVE SMOOTH"
);
}
);
width = 621;
},
{
anchors = (
{
name = bottom;
position = "{274, 0}";
},
{
name = top;
position = "{410, 560}";
}
);
background = {
paths = (
{
closed = 1;
nodes = (
"137 -8 OFFCURVE",
"148 -6 OFFCURVE",
"158 5 CURVE SMOOTH",
"174 22 OFFCURVE",
"190 54 OFFCURVE",
"196 66 CURVE",
"213 109 OFFCURVE",
"308 318 OFFCURVE",
"349 399 CURVE",
"350 399 LINE",
"352 318 OFFCURVE",
"371 118 OFFCURVE",
"371 23 CURVE SMOOTH",
"371 4 OFFCURVE",
"370 -8 OFFCURVE",
"375 -8 CURVE SMOOTH",
"378 -8 OFFCURVE",
"388 -4 OFFCURVE",
"395 6 CURVE SMOOTH",
"404 18 OFFCURVE",
"427 61 OFFCURVE",
"431 68 CURVE",
"438 84 OFFCURVE",
"557 350 OFFCURVE",
"580 403 CURVE SMOOTH",
"600 449 OFFCURVE",
"612 482 OFFCURVE",
"612 509 CURVE SMOOTH",
"612 540 OFFCURVE",
"596 569 OFFCURVE",
"583 569 CURVE SMOOTH",
"564 569 OFFCURVE",
"522 502 OFFCURVE",
"526 499 CURVE SMOOTH",
"535 490 OFFCURVE",
"547 479 OFFCURVE",
"547 446 CURVE SMOOTH",
"547 398 OFFCURVE",
"521 349 OFFCURVE",
"498 295 CURVE SMOOTH",
"435 153 OFFCURVE",
"490 278 OFFCURVE",
"424 127 CURVE",
"423 127 LINE",
"422 152 OFFCURVE",
"413 262 OFFCURVE",
"412 278 CURVE SMOOTH",
"408 328 OFFCURVE",
"406 423 OFFCURVE",
"406 471 CURVE SMOOTH",
"406 499 OFFCURVE",
"406 505 OFFCURVE",
"410 529 CURVE SMOOTH",
"413 545 OFFCURVE",
"367 513 OFFCURVE",
"352 482 CURVE SMOOTH",
"346 468 OFFCURVE",
"240 243 OFFCURVE",
"208 174 CURVE",
"207 174 LINE",
"212 260 OFFCURVE",
"214 302 OFFCURVE",
"214 348 CURVE SMOOTH",
"214 461 OFFCURVE",
"204 568 OFFCURVE",
"141 568 CURVE SMOOTH",
"90 568 OFFCURVE",
"37 496 OFFCURVE",
"37 432 CURVE SMOOTH",
"37 421 OFFCURVE",
"38 418 OFFCURVE",
"43 418 CURVE SMOOTH",
"50 418 OFFCURVE",
"52 422 OFFCURVE",
"56 434 CURVE SMOOTH",
"71 476 OFFCURVE",
"89 499 OFFCURVE",
"113 499 CURVE SMOOTH",
"146 499 OFFCURVE",
"154 454 OFFCURVE",
"154 335 CURVE SMOOTH",
"154 212 OFFCURVE",
"145 118 OFFCURVE",
"132 0 CURVE SMOOTH",
"131 -6 OFFCURVE",
"133 -8 OFFCURVE",
"135 -8 CURVE SMOOTH"
);
}
);
};
layerId = "0B1DFD06-3317-40CA-B510-4969A0718C16";
paths = (
{
closed = 1;
nodes = (
"137 -8 OFFCURVE",
"148 -6 OFFCURVE",
"158 5 CURVE SMOOTH",
"174 22 OFFCURVE",
"190 54 OFFCURVE",
"196 66 CURVE",
"213 109 OFFCURVE",
"308 318 OFFCURVE",
"349 399 CURVE",
"350 399 LINE",
"352 318 OFFCURVE",
"371 118 OFFCURVE",
"371 23 CURVE SMOOTH",
"371 4 OFFCURVE",
"370 -8 OFFCURVE",
"375 -8 CURVE SMOOTH",
"378 -8 OFFCURVE",
"388 -4 OFFCURVE",
"395 6 CURVE SMOOTH",
"404 18 OFFCURVE",
"427 59 OFFCURVE",
"431 68 CURVE",
"438 84 OFFCURVE",
"557 350 OFFCURVE",
"580 403 CURVE SMOOTH",
"600 449 OFFCURVE",
"612 482 OFFCURVE",
"612 509 CURVE SMOOTH",
"612 540 OFFCURVE",
"596 569 OFFCURVE",
"583 569 CURVE SMOOTH",
"564 569 OFFCURVE",
"522 502 OFFCURVE",
"526 499 CURVE SMOOTH",
"535 490 OFFCURVE",
"547 479 OFFCURVE",
"547 446 CURVE SMOOTH",
"547 398 OFFCURVE",
"521 349 OFFCURVE",
"498 295 CURVE SMOOTH",
"435 153 OFFCURVE",
"490 278 OFFCURVE",
"424 127 CURVE",
"423 127 LINE",
"422 152 OFFCURVE",
"413 262 OFFCURVE",
"412 278 CURVE SMOOTH",
"408 328 OFFCURVE",
"406 423 OFFCURVE",
"406 471 CURVE SMOOTH",
"406 499 OFFCURVE",
"406 505 OFFCURVE",
"410 529 CURVE SMOOTH",
"413 545 OFFCURVE",
"367 513 OFFCURVE",
"352 482 CURVE SMOOTH",
"346 468 OFFCURVE",
"240 243 OFFCURVE",
"208 174 CURVE",
"207 174 LINE",
"212 260 OFFCURVE",
"214 302 OFFCURVE",
"214 348 CURVE SMOOTH",
"214 461 OFFCURVE",
"204 568 OFFCURVE",
"141 568 CURVE SMOOTH",
"88 568 OFFCURVE",
"37 495 OFFCURVE",
"37 432 CURVE SMOOTH",
"37 422 OFFCURVE",
"39 418 OFFCURVE",
"43 418 CURVE SMOOTH",
"49 418 OFFCURVE",
"51 422 OFFCURVE",
"55 434 CURVE SMOOTH",
"70 476 OFFCURVE",
"89 499 OFFCURVE",
"113 499 CURVE SMOOTH",
"146 499 OFFCURVE",
"154 454 OFFCURVE",
"154 335 CURVE SMOOTH",
"154 212 OFFCURVE",
"145 118 OFFCURVE",
"132 0 CURVE SMOOTH",
"131 -6 OFFCURVE",
"133 -8 OFFCURVE",
"135 -8 CURVE SMOOTH"
);
}
);
width = 612;
}
);
leftKerningGroup = W;
note = W;
rightKerningGroup = W;
unicode = 0057;
},
{
glyphname = X;
lastChange = "2018-06-29 11:45:30 +0000";
layers = (
{
anchors = (
{
name = bottom;
position = "{211, 0}";
},
{
name = top;
position = "{310, 560}";
}
);
background = {
paths = (
{
closed = 1;
nodes = (
"131 -10 OFFCURVE",
"227 80 OFFCURVE",
"303 231 CURVE SMOOTH",
"306 237 LINE",
"320 185 LINE SMOOTH",
"363 27 OFFCURVE",
"390 -10 OFFCURVE",
"442 -10 CURVE SMOOTH",
"515 -10 OFFCURVE",
"588 91 OFFCURVE",
"588 176 CURVE SMOOTH",
"588 183 OFFCURVE",
"585 189 OFFCURVE",
"578 189 CURVE SMOOTH",
"571 189 OFFCURVE",
"566 183 OFFCURVE",
"561 170 CURVE SMOOTH",
"546 131 OFFCURVE",
"516 98 OFFCURVE",
"489 98 CURVE SMOOTH",
"460 98 OFFCURVE",
"447 128 OFFCURVE",
"431 188 CURVE SMOOTH",
"383 369 LINE",
"417 437 OFFCURVE",
"465 519 OFFCURVE",
"509 572 CURVE SMOOTH",
"523 589 OFFCURVE",
"536 599 OFFCURVE",
"555 599 CURVE SMOOTH",
"571 599 OFFCURVE",
"580 593 OFFCURVE",
"594 582 CURVE SMOOTH",
"603 575 OFFCURVE",
"679 656 OFFCURVE",
"679 668 CURVE SMOOTH",
"679 687 OFFCURVE",
"632 710 OFFCURVE",
"593 710 CURVE SMOOTH",
"525 710 OFFCURVE",
"457 646 OFFCURVE",
"380 501 CURVE SMOOTH",
"356 456 LINE",
"312 627 LINE SMOOTH",
"297 687 OFFCURVE",
"269 710 OFFCURVE",
"232 710 CURVE SMOOTH",
"159 710 OFFCURVE",
"96 599 OFFCURVE",
"96 514 CURVE SMOOTH",
"96 507 OFFCURVE",
"99 501 OFFCURVE",
"106 501 CURVE SMOOTH",
"113 501 OFFCURVE",
"118 507 OFFCURVE",
"123 520 CURVE SMOOTH",
"137 559 OFFCURVE",
"157 602 OFFCURVE",
"184 602 CURVE SMOOTH",
"210 602 OFFCURVE",
"215 577 OFFCURVE",
"229 521 CURVE SMOOTH",
"275 338 LINE",
"268 323 LINE SMOOTH",
"189 152 OFFCURVE",
"125 100 OFFCURVE",
"88 100 CURVE SMOOTH",
"75 100 OFFCURVE",
"62 103 OFFCURVE",
"48 117 CURVE SMOOTH",
"36 129 OFFCURVE",
"-32 52 OFFCURVE",
"-32 27 CURVE SMOOTH",
"-32 7 OFFCURVE",
"-2 -10 OFFCURVE",
"43 -10 CURVE SMOOTH"
);
}
);
};
layerId = "56450C88-1299-454A-B666-E6F9AF06B23F";
paths = (
{
closed = 1;
nodes = (
"94 -8 OFFCURVE",
"172 60 OFFCURVE",
"234 185 CURVE SMOOTH",
"237 190 LINE",
"248 148 LINE SMOOTH",
"282 22 OFFCURVE",
"306 -8 OFFCURVE",
"343 -8 CURVE SMOOTH",
"406 -8 OFFCURVE",
"462 78 OFFCURVE",
"462 137 CURVE SMOOTH",
"462 147 OFFCURVE",
"461 151 OFFCURVE",
"455 151 CURVE SMOOTH",
"447 151 OFFCURVE",
"444 144 OFFCURVE",
"441 136 CURVE SMOOTH",
"424 97 OFFCURVE",
"402 78 OFFCURVE",
"383 78 CURVE SMOOTH",
"360 78 OFFCURVE",
"350 102 OFFCURVE",
"337 150 CURVE SMOOTH",
"298 295 LINE",
"329 356 OFFCURVE",
"370 424 OFFCURVE",
"399 458 CURVE SMOOTH",
"412 473 OFFCURVE",
"422 479 OFFCURVE",
"436 479 CURVE SMOOTH",
"449 479 OFFCURVE",
"456 474 OFFCURVE",
"467 466 CURVE SMOOTH",
"474 460 OFFCURVE",
"535 523 OFFCURVE",
"535 537 CURVE SMOOTH",
"535 546 OFFCURVE",
"511 568 OFFCURVE",
"472 568 CURVE SMOOTH",
"412 568 OFFCURVE",
"358 517 OFFCURVE",
"296 401 CURVE SMOOTH",
"277 365 LINE",
"242 502 LINE SMOOTH",
"230 550 OFFCURVE",
"206 568 OFFCURVE",
"178 568 CURVE SMOOTH",
"115 568 OFFCURVE",
"69 475 OFFCURVE",
"69 416 CURVE SMOOTH",
"69 405 OFFCURVE",
"70 401 OFFCURVE",
"76 401 CURVE SMOOTH",
"82 401 OFFCURVE",
"86 406 OFFCURVE",
"90 416 CURVE SMOOTH",
"102 447 OFFCURVE",
"116 482 OFFCURVE",
"140 482 CURVE SMOOTH",
"160 482 OFFCURVE",
"165 458 OFFCURVE",
"175 417 CURVE SMOOTH",
"212 270 LINE",
"206 258 LINE SMOOTH",
"145 126 OFFCURVE",
"96 80 OFFCURVE",
"61 80 CURVE SMOOTH",
"46 80 OFFCURVE",
"38 87 OFFCURVE",
"30 94 CURVE SMOOTH",
"20 102 OFFCURVE",
"-34 42 OFFCURVE",
"-34 22 CURVE SMOOTH",
"-34 9 OFFCURVE",
"-10 -8 OFFCURVE",
"25 -8 CURVE SMOOTH"
);
}
);
width = 514;
},
{
anchors = (
{
name = bottom;
position = "{198, 0}";
},
{
name = top;
position = "{288, 560}";
}
);
background = {
paths = (
{
closed = 1;
nodes = (
"89 -8 OFFCURVE",
"163 70 OFFCURVE",
"224 212 CURVE SMOOTH",
"229 223 LINE",
"250 143 LINE SMOOTH",
"278 40 OFFCURVE",
"298 -8 OFFCURVE",
"335 -8 CURVE SMOOTH",
"386 -8 OFFCURVE",
"430 85 OFFCURVE",
"430 120 CURVE SMOOTH",
"430 126 OFFCURVE",
"429 130 OFFCURVE",
"425 130 CURVE SMOOTH",
"419 130 OFFCURVE",
"416 125 OFFCURVE",
"412 116 CURVE SMOOTH",
"402 94 OFFCURVE",
"386 60 OFFCURVE",
"362 60 CURVE SMOOTH",
"346 60 OFFCURVE",
"334 73 OFFCURVE",
"321 121 CURVE SMOOTH",
"274 295 LINE",
"307 365 OFFCURVE",
"337 422 OFFCURVE",
"367 460 CURVE SMOOTH",
"388 486 OFFCURVE",
"405 498 OFFCURVE",
"426 498 CURVE SMOOTH",
"441 498 OFFCURVE",
"448 491 OFFCURVE",
"457 483 CURVE SMOOTH",
"460 480 OFFCURVE",
"502 532 OFFCURVE",
"502 546 CURVE SMOOTH",
"502 557 OFFCURVE",
"478 568 OFFCURVE",
"454 568 CURVE SMOOTH",
"403 568 OFFCURVE",
"352 512 OFFCURVE",
"294 405 CURVE SMOOTH",
"259 342 LINE",
"216 507 LINE SMOOTH",
"206 546 OFFCURVE",
"190 568 OFFCURVE",
"166 568 CURVE SMOOTH",
"115 568 OFFCURVE",
"69 476 OFFCURVE",
"69 434 CURVE SMOOTH",
"69 426 OFFCURVE",
"70 423 OFFCURVE",
"74 423 CURVE SMOOTH",
"80 423 OFFCURVE",
"83 428 OFFCURVE",
"87 437 CURVE SMOOTH",
"97 458 OFFCURVE",
"115 499 OFFCURVE",
"138 499 CURVE SMOOTH",
"154 499 OFFCURVE",
"162 479 OFFCURVE",
"174 434 CURVE SMOOTH",
"214 270 LINE",
"207 255 LINE SMOOTH",
"171 179 OFFCURVE",
"115 62 OFFCURVE",
"55 62 CURVE SMOOTH",
"40 62 OFFCURVE",
"32 70 OFFCURVE",
"23 78 CURVE SMOOTH",
"19 82 OFFCURVE",
"-26 34 OFFCURVE",
"-26 20 CURVE SMOOTH",
"-26 10 OFFCURVE",
"-9 -8 OFFCURVE",
"23 -8 CURVE SMOOTH"
);
}
);
};
layerId = "0B1DFD06-3317-40CA-B510-4969A0718C16";
paths = (
{
closed = 1;
nodes = (
"89 -8 OFFCURVE",
"163 70 OFFCURVE",
"224 212 CURVE SMOOTH",
"229 223 LINE",
"250 143 LINE SMOOTH",
"278 40 OFFCURVE",
"298 -8 OFFCURVE",
"335 -8 CURVE SMOOTH",
"386 -8 OFFCURVE",
"430 85 OFFCURVE",
"430 120 CURVE SMOOTH",
"430 126 OFFCURVE",
"429 130 OFFCURVE",
"425 130 CURVE SMOOTH",
"420 130 OFFCURVE",
"417 125 OFFCURVE",
"413 116 CURVE SMOOTH",
"403 94 OFFCURVE",
"386 60 OFFCURVE",
"362 60 CURVE SMOOTH",
"346 60 OFFCURVE",
"334 73 OFFCURVE",
"321 121 CURVE SMOOTH",
"274 295 LINE",
"307 365 OFFCURVE",
"337 422 OFFCURVE",
"367 460 CURVE SMOOTH",
"388 486 OFFCURVE",
"405 498 OFFCURVE",
"426 498 CURVE SMOOTH",
"441 498 OFFCURVE",
"448 491 OFFCURVE",
"457 483 CURVE SMOOTH",
"460 480 OFFCURVE",
"502 532 OFFCURVE",
"502 546 CURVE SMOOTH",
"502 557 OFFCURVE",
"478 568 OFFCURVE",
"454 568 CURVE SMOOTH",
"403 568 OFFCURVE",
"352 512 OFFCURVE",
"294 405 CURVE SMOOTH",
"259 342 LINE",
"216 507 LINE SMOOTH",
"206 546 OFFCURVE",
"190 568 OFFCURVE",
"166 568 CURVE SMOOTH",
"115 568 OFFCURVE",
"69 476 OFFCURVE",
"69 434 CURVE SMOOTH",
"69 427 OFFCURVE",
"71 423 OFFCURVE",
"75 423 CURVE SMOOTH",
"80 423 OFFCURVE",
"82 428 OFFCURVE",
"86 437 CURVE SMOOTH",
"96 458 OFFCURVE",
"115 499 OFFCURVE",
"138 499 CURVE SMOOTH",
"154 499 OFFCURVE",
"162 479 OFFCURVE",
"174 434 CURVE SMOOTH",
"214 270 LINE",
"207 255 LINE SMOOTH",
"171 179 OFFCURVE",
"115 62 OFFCURVE",
"55 62 CURVE SMOOTH",
"40 62 OFFCURVE",
"32 70 OFFCURVE",
"23 78 CURVE SMOOTH",
"19 82 OFFCURVE",
"-26 34 OFFCURVE",
"-26 20 CURVE SMOOTH",
"-26 10 OFFCURVE",
"-9 -8 OFFCURVE",
"23 -8 CURVE SMOOTH"
);
}
);
width = 490;
}
);
note = X;
unicode = 0058;
},
{
glyphname = Y;
lastChange = "2018-06-29 11:45:30 +0000";
layers = (
{
anchors = (
{
name = bottom;
position = "{177, 0}";
},
{
name = top;
position = "{293, 560}";
}
);
background = {
paths = (
{
closed = 1;
nodes = (
"152 0 OFFCURVE",
"170 16 OFFCURVE",
"205 16 CURVE SMOOTH",
"237 16 OFFCURVE",
"268 0 OFFCURVE",
"296 0 CURVE SMOOTH",
"320 0 OFFCURVE",
"339 11 OFFCURVE",
"374 53 CURVE SMOOTH",
"383 64 OFFCURVE",
"386 71 OFFCURVE",
"386 80 CURVE SMOOTH",
"386 85 OFFCURVE",
"383 89 OFFCURVE",
"378 89 CURVE SMOOTH",
"367 89 OFFCURVE",
"356 78 OFFCURVE",
"330 78 CURVE SMOOTH",
"318 78 OFFCURVE",
"303 81 OFFCURVE",
"291 87 CURVE",
"291 88 LINE",
"302 98 OFFCURVE",
"311 117 OFFCURVE",
"314 135 CURVE SMOOTH",
"338 263 LINE SMOOTH",
"368 423 OFFCURVE",
"462 592 OFFCURVE",
"531 592 CURVE SMOOTH",
"549 592 OFFCURVE",
"558 589 OFFCURVE",
"576 571 CURVE SMOOTH",
"590 557 OFFCURVE",
"647 651 OFFCURVE",
"647 677 CURVE SMOOTH",
"647 688 OFFCURVE",
"618 710 OFFCURVE",
"575 710 CURVE SMOOTH",
"483 710 OFFCURVE",
"397 605 OFFCURVE",
"333 428 CURVE",
"332 428 LINE",
"313 603 OFFCURVE",
"257 710 OFFCURVE",
"182 710 CURVE SMOOTH",
"109 710 OFFCURVE",
"56 614 OFFCURVE",
"56 549 CURVE SMOOTH",
"56 542 OFFCURVE",
"59 538 OFFCURVE",
"66 538 CURVE SMOOTH",
"71 538 OFFCURVE",
"77 543 OFFCURVE",
"82 554 CURVE SMOOTH",
"101 595 OFFCURVE",
"119 612 OFFCURVE",
"148 612 CURVE SMOOTH",
"218 612 OFFCURVE",
"253 372 OFFCURVE",
"230 250 CURVE SMOOTH",
"214 166 LINE SMOOTH",
"202 101 OFFCURVE",
"193 87 OFFCURVE",
"167 65 CURVE SMOOTH",
"148 49 OFFCURVE",
"135 30 OFFCURVE",
"135 10 CURVE SMOOTH",
"135 4 OFFCURVE",
"138 0 OFFCURVE",
"143 0 CURVE SMOOTH"
);
}
);
};
layerId = "56450C88-1299-454A-B666-E6F9AF06B23F";
paths = (
{
closed = 1;
nodes = (
"114 0 OFFCURVE",
"130 13 OFFCURVE",
"157 13 CURVE SMOOTH",
"183 13 OFFCURVE",
"207 0 OFFCURVE",
"229 0 CURVE SMOOTH",
"246 0 OFFCURVE",
"266 8 OFFCURVE",
"292 42 CURVE SMOOTH",
"298 50 OFFCURVE",
"302 56 OFFCURVE",
"302 64 CURVE SMOOTH",
"302 69 OFFCURVE",
"300 71 OFFCURVE",
"295 71 CURVE SMOOTH",
"286 71 OFFCURVE",
"277 62 OFFCURVE",
"258 62 CURVE SMOOTH",
"247 62 OFFCURVE",
"235 65 OFFCURVE",
"226 70 CURVE",
"226 70 LINE",
"234 78 OFFCURVE",
"241 91 OFFCURVE",
"244 108 CURVE SMOOTH",
"263 210 LINE SMOOTH",
"286 336 OFFCURVE",
"359 474 OFFCURVE",
"420 474 CURVE SMOOTH",
"440 474 OFFCURVE",
"448 459 OFFCURVE",
"453 457 CURVE SMOOTH",
"467 449 OFFCURVE",
"510 525 OFFCURVE",
"510 540 CURVE SMOOTH",
"510 552 OFFCURVE",
"485 568 OFFCURVE",
"453 568 CURVE SMOOTH",
"378 568 OFFCURVE",
"310 484 OFFCURVE",
"258 342 CURVE",
"258 342 LINE",
"242 482 OFFCURVE",
"198 568 OFFCURVE",
"137 568 CURVE SMOOTH",
"79 568 OFFCURVE",
"37 490 OFFCURVE",
"37 442 CURVE SMOOTH",
"37 434 OFFCURVE",
"38 430 OFFCURVE",
"43 430 CURVE SMOOTH",
"48 430 OFFCURVE",
"53 434 OFFCURVE",
"57 443 CURVE SMOOTH",
"66 462 OFFCURVE",
"82 490 OFFCURVE",
"106 490 CURVE SMOOTH",
"169 490 OFFCURVE",
"194 298 OFFCURVE",
"175 200 CURVE SMOOTH",
"162 133 LINE SMOOTH",
"152 80 OFFCURVE",
"148 73 OFFCURVE",
"126 52 CURVE SMOOTH",
"114 40 OFFCURVE",
"101 26 OFFCURVE",
"101 10 CURVE SMOOTH",
"101 2 OFFCURVE",
"103 0 OFFCURVE",
"106 0 CURVE SMOOTH"
);
}
);
width = 468;
},
{
anchors = (
{
name = bottom;
position = "{162, 0}";
},
{
name = top;
position = "{281, 560}";
}
);
background = {
paths = (
{
closed = 1;
nodes = (
"114 0 OFFCURVE",
"128 14 OFFCURVE",
"148 14 CURVE SMOOTH",
"168 14 OFFCURVE",
"192 0 OFFCURVE",
"208 0 CURVE SMOOTH",
"218 0 OFFCURVE",
"234 5 OFFCURVE",
"261 33 CURVE SMOOTH",
"270 42 OFFCURVE",
"271 46 OFFCURVE",
"271 50 CURVE SMOOTH",
"271 54 OFFCURVE",
"269 56 OFFCURVE",
"266 56 CURVE SMOOTH",
"258 56 OFFCURVE",
"250 47 OFFCURVE",
"233 47 CURVE SMOOTH",
"223 47 OFFCURVE",
"213 50 OFFCURVE",
"201 54 CURVE",
"201 55 LINE",
"209 63 OFFCURVE",
"215 75 OFFCURVE",
"218 89 CURVE SMOOTH",
"242 218 LINE SMOOTH",
"261 321 OFFCURVE",
"342 491 OFFCURVE",
"414 491 CURVE SMOOTH",
"425 491 OFFCURVE",
"431 487 OFFCURVE",
"440 478 CURVE SMOOTH",
"443 475 OFFCURVE",
"486 534 OFFCURVE",
"486 546 CURVE SMOOTH",
"486 554 OFFCURVE",
"468 568 OFFCURVE",
"442 568 CURVE SMOOTH",
"360 568 OFFCURVE",
"278 424 OFFCURVE",
"238 310 CURVE",
"237 310 LINE",
"229 414 OFFCURVE",
"202 568 OFFCURVE",
"124 568 CURVE SMOOTH",
"79 568 OFFCURVE",
"45 517 OFFCURVE",
"45 469 CURVE SMOOTH",
"45 462 OFFCURVE",
"46 458 OFFCURVE",
"50 458 CURVE SMOOTH",
"54 458 OFFCURVE",
"57 462 OFFCURVE",
"64 474 CURVE SMOOTH",
"77 497 OFFCURVE",
"93 507 OFFCURVE",
"106 507 CURVE SMOOTH",
"169 507 OFFCURVE",
"196 289 OFFCURVE",
"180 206 CURVE SMOOTH",
"168 142 LINE SMOOTH",
"152 54 OFFCURVE",
"149 69 OFFCURVE",
"121 41 CURVE SMOOTH",
"106 26 OFFCURVE",
"103 18 OFFCURVE",
"103 9 CURVE SMOOTH",
"103 3 OFFCURVE",
"104 0 OFFCURVE",
"107 0 CURVE SMOOTH"
);
}
);
};
layerId = "0B1DFD06-3317-40CA-B510-4969A0718C16";
paths = (
{
closed = 1;
nodes = (
"114 0 OFFCURVE",
"126 14 OFFCURVE",
"148 14 CURVE SMOOTH",
"168 14 OFFCURVE",
"192 0 OFFCURVE",
"208 0 CURVE SMOOTH",
"218 0 OFFCURVE",
"235 4 OFFCURVE",
"261 33 CURVE SMOOTH",
"270 43 OFFCURVE",
"271 47 OFFCURVE",
"271 51 CURVE SMOOTH",
"271 54 OFFCURVE",
"269 56 OFFCURVE",
"266 56 CURVE SMOOTH",
"260 56 OFFCURVE",
"250 47 OFFCURVE",
"233 47 CURVE SMOOTH",
"221 47 OFFCURVE",
"213 50 OFFCURVE",
"201 54 CURVE",
"201 55 LINE",
"209 63 OFFCURVE",
"215 75 OFFCURVE",
"218 89 CURVE SMOOTH",
"242 218 LINE SMOOTH",
"261 321 OFFCURVE",
"342 491 OFFCURVE",
"414 491 CURVE SMOOTH",
"425 491 OFFCURVE",
"432 487 OFFCURVE",
"440 478 CURVE SMOOTH",
"443 475 OFFCURVE",
"486 534 OFFCURVE",
"486 546 CURVE SMOOTH",
"486 554 OFFCURVE",
"468 568 OFFCURVE",
"442 568 CURVE SMOOTH",
"360 568 OFFCURVE",
"278 424 OFFCURVE",
"238 310 CURVE",
"237 310 LINE",
"229 414 OFFCURVE",
"202 568 OFFCURVE",
"124 568 CURVE SMOOTH",
"79 568 OFFCURVE",
"45 517 OFFCURVE",
"45 469 CURVE SMOOTH",
"45 462 OFFCURVE",
"47 458 OFFCURVE",
"51 458 CURVE SMOOTH",
"55 458 OFFCURVE",
"57 462 OFFCURVE",
"64 474 CURVE SMOOTH",
"77 497 OFFCURVE",
"91 507 OFFCURVE",
"106 507 CURVE SMOOTH",
"169 507 OFFCURVE",
"196 289 OFFCURVE",
"180 206 CURVE SMOOTH",
"168 142 LINE SMOOTH",
"152 57 OFFCURVE",
"149 68 OFFCURVE",
"121 41 CURVE SMOOTH",
"106 26 OFFCURVE",
"103 18 OFFCURVE",
"103 9 CURVE SMOOTH",
"103 3 OFFCURVE",
"104 0 OFFCURVE",
"107 0 CURVE SMOOTH"
);
}
);
width = 452;
}
);
leftKerningGroup = Y;
note = Y;
rightKerningGroup = Y;
unicode = 0059;
},
{
glyphname = Z;
lastChange = "2018-06-29 11:45:30 +0000";
layers = (
{
anchors = (
{
name = bottom;
position = "{172, 0}";
},
{
name = top;
position = "{274, 560}";
}
);
background = {
paths = (
{
closed = 1;
nodes = (
"44 -10 OFFCURVE",
"75 48 OFFCURVE",
"157 48 CURVE SMOOTH",
"218 48 OFFCURVE",
"301 -10 OFFCURVE",
"359 -10 CURVE SMOOTH",
"434 -10 OFFCURVE",
"500 48 OFFCURVE",
"500 136 CURVE SMOOTH",
"500 159 OFFCURVE",
"496 169 OFFCURVE",
"486 169 CURVE SMOOTH",
"479 169 OFFCURVE",
"475 161 OFFCURVE",
"470 149 CURVE SMOOTH",
"455 114 OFFCURVE",
"425 96 OFFCURVE",
"381 96 CURVE SMOOTH",
"326 96 OFFCURVE",
"264 143 OFFCURVE",
"217 143 CURVE SMOOTH",
"199 143 OFFCURVE",
"177 140 OFFCURVE",
"161 133 CURVE",
"160 133 LINE",
"533 619 LINE SMOOTH",
"544 633 OFFCURVE",
"563 658 OFFCURVE",
"563 677 CURVE SMOOTH",
"563 689 OFFCURVE",
"554 714 OFFCURVE",
"542 714 CURVE SMOOTH",
"531 714 OFFCURVE",
"525 678 OFFCURVE",
"455 678 CURVE SMOOTH",
"396 678 OFFCURVE",
"364 710 OFFCURVE",
"313 710 CURVE SMOOTH",
"200 710 OFFCURVE",
"92 634 OFFCURVE",
"92 449 CURVE SMOOTH",
"92 444 OFFCURVE",
"97 441 OFFCURVE",
"102 441 CURVE SMOOTH",
"133 441 OFFCURVE",
"201 518 OFFCURVE",
"199 537 CURVE SMOOTH",
"192 599 OFFCURVE",
"213 621 OFFCURVE",
"255 621 CURVE SMOOTH",
"310 621 OFFCURVE",
"338 578 OFFCURVE",
"397 578 CURVE SMOOTH",
"403 578 OFFCURVE",
"413 578 OFFCURVE",
"419 580 CURVE",
"278 393 OFFCURVE",
"187 276 OFFCURVE",
"127 200 CURVE SMOOTH",
"48 100 OFFCURVE",
"26 74 OFFCURVE",
"16 57 CURVE SMOOTH",
"8 43 OFFCURVE",
"6 35 OFFCURVE",
"6 27 CURVE SMOOTH",
"6 12 OFFCURVE",
"14 -10 OFFCURVE",
"28 -10 CURVE"
);
}
);
};
layerId = "56450C88-1299-454A-B666-E6F9AF06B23F";
paths = (
{
closed = 1;
nodes = (
"26 -8 OFFCURVE",
"56 38 OFFCURVE",
"114 38 CURVE SMOOTH",
"172 38 OFFCURVE",
"227 -8 OFFCURVE",
"282 -8 CURVE SMOOTH",
"338 -8 OFFCURVE",
"392 38 OFFCURVE",
"392 110 CURVE SMOOTH",
"392 126 OFFCURVE",
"389 135 OFFCURVE",
"382 135 CURVE SMOOTH",
"375 135 OFFCURVE",
"372 129 OFFCURVE",
"368 119 CURVE SMOOTH",
"354 90 OFFCURVE",
"331 77 OFFCURVE",
"300 77 CURVE SMOOTH",
"248 77 OFFCURVE",
"207 114 OFFCURVE",
"163 114 CURVE SMOOTH",
"152 114 OFFCURVE",
"134 112 OFFCURVE",
"121 106 CURVE",
"120 106 LINE",
"418 495 LINE SMOOTH",
"427 506 OFFCURVE",
"442 526 OFFCURVE",
"442 542 CURVE SMOOTH",
"442 552 OFFCURVE",
"434 571 OFFCURVE",
"426 571 CURVE SMOOTH",
"417 571 OFFCURVE",
"403 542 OFFCURVE",
"350 542 CURVE SMOOTH",
"298 542 OFFCURVE",
"261 568 OFFCURVE",
"201 568 CURVE SMOOTH",
"125 568 OFFCURVE",
"74 526 OFFCURVE",
"66 465 CURVE SMOOTH",
"63 448 OFFCURVE",
"66 438 OFFCURVE",
"74 438 CURVE SMOOTH",
"80 438 OFFCURVE",
"83 446 OFFCURVE",
"92 456 CURVE SMOOTH",
"114 483 OFFCURVE",
"146 496 OFFCURVE",
"187 496 CURVE SMOOTH",
"250 496 OFFCURVE",
"274 468 OFFCURVE",
"322 468 CURVE SMOOTH",
"330 468 LINE",
"94 160 LINE SMOOTH",
"34 82 OFFCURVE",
"14 61 OFFCURVE",
"5 46 CURVE SMOOTH",
"-2 34 OFFCURVE",
"-3 28 OFFCURVE",
"-3 22 CURVE SMOOTH",
"-3 10 OFFCURVE",
"3 -8 OFFCURVE",
"14 -8 CURVE"
);
}
);
width = 434;
},
{
anchors = (
{
name = bottom;
position = "{179, 0}";
},
{
name = top;
position = "{289, 560}";
}
);
background = {
paths = (
{
closed = 1;
nodes = (
"27 0 OFFCURVE",
"49 46 OFFCURVE",
"103 46 CURVE SMOOTH",
"156 46 OFFCURVE",
"218 0 OFFCURVE",
"274 0 CURVE SMOOTH",
"318 0 OFFCURVE",
"374 42 OFFCURVE",
"374 101 CURVE SMOOTH",
"374 113 OFFCURVE",
"370 121 OFFCURVE",
"366 121 CURVE SMOOTH",
"362 121 OFFCURVE",
"361 117 OFFCURVE",
"358 110 CURVE SMOOTH",
"343 81 OFFCURVE",
"320 67 OFFCURVE",
"285 67 CURVE SMOOTH",
"239 67 OFFCURVE",
"174 110 OFFCURVE",
"134 110 CURVE SMOOTH",
"121 110 OFFCURVE",
"107 107 OFFCURVE",
"100 103 CURVE",
"99 104 LINE",
"402 501 LINE",
"409 510 OFFCURVE",
"424 529 OFFCURVE",
"424 542 CURVE SMOOTH",
"424 554 OFFCURVE",
"420 562 OFFCURVE",
"414 562 CURVE SMOOTH",
"406 562 OFFCURVE",
"396 534 OFFCURVE",
"350 534 CURVE SMOOTH",
"293 534 OFFCURVE",
"250 560 OFFCURVE",
"193 560 CURVE SMOOTH",
"125 560 OFFCURVE",
"81 514 OFFCURVE",
"74 455 CURVE SMOOTH",
"73 449 OFFCURVE",
"76 444 OFFCURVE",
"80 444 CURVE SMOOTH",
"86 444 OFFCURVE",
"93 458 OFFCURVE",
"107 469 CURVE SMOOTH",
"129 486 OFFCURVE",
"154 494 OFFCURVE",
"185 494 CURVE SMOOTH",
"219 494 OFFCURVE",
"279 469 OFFCURVE",
"330 469 CURVE SMOOTH",
"335 469 LINE",
"94 156 LINE SMOOTH",
"33 77 OFFCURVE",
"21 52 OFFCURVE",
"11 38 CURVE SMOOTH",
"8 33 OFFCURVE",
"5 26 OFFCURVE",
"5 19 CURVE SMOOTH",
"5 9 OFFCURVE",
"12 0 OFFCURVE",
"18 0 CURVE SMOOTH"
);
}
);
};
layerId = "0B1DFD06-3317-40CA-B510-4969A0718C16";
paths = (
{
closed = 1;
nodes = (
"26 0 OFFCURVE",
"49 46 OFFCURVE",
"103 46 CURVE SMOOTH",
"156 46 OFFCURVE",
"218 0 OFFCURVE",
"274 0 CURVE SMOOTH",
"318 0 OFFCURVE",
"374 42 OFFCURVE",
"374 101 CURVE SMOOTH",
"374 112 OFFCURVE",
"370 121 OFFCURVE",
"366 121 CURVE SMOOTH",
"362 121 OFFCURVE",
"361 116 OFFCURVE",
"358 110 CURVE SMOOTH",
"343 81 OFFCURVE",
"320 67 OFFCURVE",
"285 67 CURVE SMOOTH",
"239 67 OFFCURVE",
"174 110 OFFCURVE",
"134 110 CURVE SMOOTH",
"121 110 OFFCURVE",
"107 107 OFFCURVE",
"100 103 CURVE",
"99 104 LINE",
"402 501 LINE",
"409 510 OFFCURVE",
"424 529 OFFCURVE",
"424 542 CURVE SMOOTH",
"424 552 OFFCURVE",
"420 562 OFFCURVE",
"414 562 CURVE SMOOTH",
"407 562 OFFCURVE",
"396 534 OFFCURVE",
"350 534 CURVE SMOOTH",
"293 534 OFFCURVE",
"250 560 OFFCURVE",
"193 560 CURVE SMOOTH",
"125 560 OFFCURVE",
"81 513 OFFCURVE",
"74 455 CURVE SMOOTH",
"73 447 OFFCURVE",
"76 444 OFFCURVE",
"79 444 CURVE SMOOTH",
"86 444 OFFCURVE",
"93 458 OFFCURVE",
"107 469 CURVE SMOOTH",
"129 486 OFFCURVE",
"154 494 OFFCURVE",
"185 494 CURVE SMOOTH",
"219 494 OFFCURVE",
"279 469 OFFCURVE",
"330 469 CURVE SMOOTH",
"335 469 LINE",
"94 156 LINE SMOOTH",
"33 77 OFFCURVE",
"21 52 OFFCURVE",
"11 38 CURVE SMOOTH",
"8 33 OFFCURVE",
"5 26 OFFCURVE",
"5 19 CURVE SMOOTH",
"5 10 OFFCURVE",
"12 0 OFFCURVE",
"18 0 CURVE SMOOTH"
);
}
);
width = 424;
}
);
leftKerningGroup = Z;
note = Z;
rightKerningGroup = Z;
unicode = 005A;
},
{
glyphname = a;
lastChange = "2018-06-29 11:45:30 +0000";
layers = (
{
anchors = (
{
name = bottom;
position = "{160, 0}";
},
{
name = ogonek;
position = "{277, 8}";
},
{
name = top;
position = "{255, 376}";
}
);
background = {
paths = (
{
closed = 1;
nodes = (
"145 -10 OFFCURVE",
"195 28 OFFCURVE",
"260 109 CURVE",
"261 109 LINE",
"256 75 LINE SMOOTH",
"249 22 OFFCURVE",
"268 -10 OFFCURVE",
"308 -10 CURVE SMOOTH",
"375 -10 OFFCURVE",
"444 79 OFFCURVE",
"453 152 CURVE SMOOTH",
"455 169 OFFCURVE",
"451 177 OFFCURVE",
"444 177 CURVE SMOOTH",
"438 177 OFFCURVE",
"434 172 OFFCURVE",
"431 164 CURVE SMOOTH",
"412 114 OFFCURVE",
"389 85 OFFCURVE",
"370 85 CURVE SMOOTH",
"352 85 OFFCURVE",
"352 104 OFFCURVE",
"361 153 CURVE SMOOTH",
"376 235 OFFCURVE",
"393 322 OFFCURVE",
"408 404 CURVE SMOOTH",
"411 420 OFFCURVE",
"419 441 OFFCURVE",
"424 459 CURVE",
"402 471 OFFCURVE",
"367 480 OFFCURVE",
"329 480 CURVE SMOOTH",
"158 480 OFFCURVE",
"26 269 OFFCURVE",
"26 102 CURVE SMOOTH",
"26 20 OFFCURVE",
"54 -10 OFFCURVE",
"100 -10 CURVE SMOOTH"
);
},
{
closed = 1;
nodes = (
"138 89 OFFCURVE",
"134 99 OFFCURVE",
"134 121 CURVE SMOOTH",
"134 268 OFFCURVE",
"208 400 OFFCURVE",
"270 400 CURVE SMOOTH",
"287 400 OFFCURVE",
"303 395 OFFCURVE",
"319 386 CURVE",
"312 347 LINE SMOOTH",
"290 224 OFFCURVE",
"193 89 OFFCURVE",
"147 89 CURVE SMOOTH"
);
}
);
};
layerId = "56450C88-1299-454A-B666-E6F9AF06B23F";
paths = (
{
closed = 1;
nodes = (
"104 -8 OFFCURVE",
"161 35 OFFCURVE",
"202 95 CURVE",
"202 95 LINE",
"198 68 LINE SMOOTH",
"192 25 OFFCURVE",
"206 -8 OFFCURVE",
"241 -8 CURVE SMOOTH",
"294 -8 OFFCURVE",
"350 67 OFFCURVE",
"354 122 CURVE SMOOTH",
"356 138 OFFCURVE",
"352 142 OFFCURVE",
"347 142 CURVE SMOOTH",
"342 142 OFFCURVE",
"339 137 OFFCURVE",
"337 131 CURVE SMOOTH",
"322 97 OFFCURVE",
"307 68 OFFCURVE",
"288 68 CURVE SMOOTH",
"274 68 OFFCURVE",
"274 83 OFFCURVE",
"281 122 CURVE SMOOTH",
"291 178 OFFCURVE",
"316 311 OFFCURVE",
"318 323 CURVE SMOOTH",
"322 340 OFFCURVE",
"323 346 OFFCURVE",
"331 367 CURVE",
"314 377 OFFCURVE",
"285 384 OFFCURVE",
"256 384 CURVE SMOOTH",
"118 384 OFFCURVE",
"13 215 OFFCURVE",
"13 84 CURVE SMOOTH",
"13 28 OFFCURVE",
"32 -8 OFFCURVE",
"66 -8 CURVE SMOOTH"
);
},
{
closed = 1;
nodes = (
"102 72 OFFCURVE",
"99 79 OFFCURVE",
"99 105 CURVE SMOOTH",
"99 212 OFFCURVE",
"157 322 OFFCURVE",
"210 322 CURVE SMOOTH",
"220 322 OFFCURVE",
"234 318 OFFCURVE",
"247 310 CURVE",
"242 278 LINE SMOOTH",
"224 178 OFFCURVE",
"147 72 OFFCURVE",
"112 72 CURVE SMOOTH"
);
}
);
width = 381;
},
{
anchors = (
{
name = bottom;
position = "{142, 0}";
},
{
name = ogonek;
position = "{261, 11}";
},
{
name = top;
position = "{253, 376}";
}
);
background = {
paths = (
{
closed = 1;
nodes = (
"104 -8 OFFCURVE",
"168 53 OFFCURVE",
"220 144 CURVE",
"221 144 LINE",
"207 74 LINE SMOOTH",
"201 42 OFFCURVE",
"198 -8 OFFCURVE",
"231 -8 CURVE SMOOTH",
"266 -8 OFFCURVE",
"319 46 OFFCURVE",
"331 102 CURVE SMOOTH",
"335 120 OFFCURVE",
"332 124 OFFCURVE",
"328 124 CURVE SMOOTH",
"323 124 OFFCURVE",
"322 119 OFFCURVE",
"320 115 CURVE SMOOTH",
"309 88 OFFCURVE",
"290 52 OFFCURVE",
"270 52 CURVE SMOOTH",
"260 52 OFFCURVE",
"257 61 OFFCURVE",
"260 83 CURVE SMOOTH",
"265 122 OFFCURVE",
"294 260 OFFCURVE",
"305 313 CURVE SMOOTH",
"310 339 OFFCURVE",
"314 354 OFFCURVE",
"319 373 CURVE",
"302 381 OFFCURVE",
"280 384 OFFCURVE",
"262 384 CURVE SMOOTH",
"127 384 OFFCURVE",
"21 219 OFFCURVE",
"21 70 CURVE SMOOTH",
"21 19 OFFCURVE",
"34 -8 OFFCURVE",
"62 -8 CURVE SMOOTH"
);
},
{
closed = 1;
nodes = (
"84 58 OFFCURVE",
"80 73 OFFCURVE",
"80 98 CURVE SMOOTH",
"80 186 OFFCURVE",
"130 338 OFFCURVE",
"204 338 CURVE SMOOTH",
"218 338 OFFCURVE",
"238 333 OFFCURVE",
"255 322 CURVE",
"242 270 LINE SMOOTH",
"222 190 OFFCURVE",
"147 58 OFFCURVE",
"100 58 CURVE SMOOTH"
);
}
);
};
layerId = "0B1DFD06-3317-40CA-B510-4969A0718C16";
paths = (
{
closed = 1;
nodes = (
"104 -8 OFFCURVE",
"168 53 OFFCURVE",
"220 144 CURVE",
"221 144 LINE",
"207 74 LINE SMOOTH",
"201 42 OFFCURVE",
"198 -8 OFFCURVE",
"231 -8 CURVE SMOOTH",
"266 -8 OFFCURVE",
"319 46 OFFCURVE",
"331 102 CURVE SMOOTH",
"334 116 OFFCURVE",
"333 124 OFFCURVE",
"328 124 CURVE SMOOTH",
"324 124 OFFCURVE",
"322 119 OFFCURVE",
"320 115 CURVE SMOOTH",
"308 89 OFFCURVE",
"290 52 OFFCURVE",
"270 52 CURVE SMOOTH",
"260 52 OFFCURVE",
"257 61 OFFCURVE",
"260 83 CURVE SMOOTH",
"265 122 OFFCURVE",
"294 260 OFFCURVE",
"305 313 CURVE SMOOTH",
"310 339 OFFCURVE",
"314 354 OFFCURVE",
"319 373 CURVE",
"302 381 OFFCURVE",
"280 384 OFFCURVE",
"262 384 CURVE SMOOTH",
"127 384 OFFCURVE",
"21 219 OFFCURVE",
"21 70 CURVE SMOOTH",
"21 19 OFFCURVE",
"34 -8 OFFCURVE",
"62 -8 CURVE SMOOTH"
);
},
{
closed = 1;
nodes = (
"84 58 OFFCURVE",
"80 73 OFFCURVE",
"80 98 CURVE SMOOTH",
"80 186 OFFCURVE",
"130 338 OFFCURVE",
"204 338 CURVE SMOOTH",
"218 338 OFFCURVE",
"238 333 OFFCURVE",
"255 322 CURVE",
"242 270 LINE SMOOTH",
"222 190 OFFCURVE",
"147 58 OFFCURVE",
"100 58 CURVE SMOOTH"
);
}
);
width = 366;
}
);
leftKerningGroup = a;
note = a;
rightKerningGroup = a;
unicode = 0061;
},
{
glyphname = b;
lastChange = "2018-06-29 11:45:30 +0000";
layers = (
{
anchors = (
{
name = bottom;
position = "{138, 0}";
},
{
name = top;
position = "{244, 707}";
}
);
background = {
paths = (
{
closed = 1;
nodes = (
"309 -10 OFFCURVE",
"428 152 OFFCURVE",
"430 346 CURVE SMOOTH",
"431 438 OFFCURVE",
"406 480 OFFCURVE",
"356 480 CURVE SMOOTH",
"306 480 OFFCURVE",
"242 427 OFFCURVE",
"195 349 CURVE",
"194 349 LINE",
"205 430 LINE SMOOTH",
"231 621 OFFCURVE",
"252 704 OFFCURVE",
"286 753 CURVE SMOOTH",
"313 791 OFFCURVE",
"344 810 OFFCURVE",
"387 812 CURVE SMOOTH",
"404 813 OFFCURVE",
"421 814 OFFCURVE",
"436 828 CURVE SMOOTH",
"450 841 OFFCURVE",
"462 861 OFFCURVE",
"462 874 CURVE SMOOTH",
"462 880 OFFCURVE",
"458 884 OFFCURVE",
"452 884 CURVE SMOOTH",
"444 884 OFFCURVE",
"435 877 OFFCURVE",
"399 874 CURVE SMOOTH",
"336 868 OFFCURVE",
"277 841 OFFCURVE",
"241 802 CURVE SMOOTH",
"180 736 OFFCURVE",
"144 639 OFFCURVE",
"115 461 CURVE SMOOTH",
"52 82 LINE SMOOTH",
"47 52 OFFCURVE",
"43 28 OFFCURVE",
"31 -7 CURVE",
"33 -7 LINE",
"40 -4 OFFCURVE",
"56 0 OFFCURVE",
"72 0 CURVE SMOOTH",
"104 0 OFFCURVE",
"117 -10 OFFCURVE",
"154 -10 CURVE SMOOTH"
);
},
{
closed = 1;
nodes = (
"183 69 OFFCURVE",
"166 74 OFFCURVE",
"150 85 CURVE",
"156 128 LINE SMOOTH",
"174 256 OFFCURVE",
"256 376 OFFCURVE",
"299 376 CURVE SMOOTH",
"319 376 OFFCURVE",
"324 352 OFFCURVE",
"324 317 CURVE SMOOTH",
"324 183 OFFCURVE",
"274 69 OFFCURVE",
"206 69 CURVE SMOOTH"
);
}
);
};
layerId = "56450C88-1299-454A-B666-E6F9AF06B23F";
paths = (
{
closed = 1;
nodes = (
"239 -8 OFFCURVE",
"334 122 OFFCURVE",
"336 277 CURVE SMOOTH",
"337 350 OFFCURVE",
"316 384 OFFCURVE",
"278 384 CURVE SMOOTH",
"236 384 OFFCURVE",
"186 342 OFFCURVE",
"148 279 CURVE",
"147 279 LINE",
"156 344 LINE SMOOTH",
"177 498 OFFCURVE",
"194 562 OFFCURVE",
"221 602 CURVE SMOOTH",
"246 640 OFFCURVE",
"277 648 OFFCURVE",
"302 650 CURVE SMOOTH",
"319 650 OFFCURVE",
"330 653 OFFCURVE",
"341 662 CURVE SMOOTH",
"352 673 OFFCURVE",
"362 689 OFFCURVE",
"362 698 CURVE SMOOTH",
"362 704 OFFCURVE",
"358 707 OFFCURVE",
"354 707 CURVE SMOOTH",
"349 707 OFFCURVE",
"350 705 OFFCURVE",
"311 699 CURVE SMOOTH",
"278 694 OFFCURVE",
"228 686 OFFCURVE",
"185 642 CURVE SMOOTH",
"132 587 OFFCURVE",
"105 494 OFFCURVE",
"84 369 CURVE SMOOTH",
"34 66 LINE SMOOTH",
"30 42 OFFCURVE",
"27 27 OFFCURVE",
"18 -4 CURVE",
"19 -4 LINE",
"27 -2 OFFCURVE",
"38 0 OFFCURVE",
"50 0 CURVE SMOOTH",
"77 0 OFFCURVE",
"85 -8 OFFCURVE",
"115 -8 CURVE SMOOTH"
);
},
{
closed = 1;
nodes = (
"140 55 OFFCURVE",
"125 59 OFFCURVE",
"112 68 CURVE",
"117 102 LINE SMOOTH",
"130 202 OFFCURVE",
"196 301 OFFCURVE",
"232 301 CURVE SMOOTH",
"247 301 OFFCURVE",
"251 282 OFFCURVE",
"251 250 CURVE SMOOTH",
"251 148 OFFCURVE",
"213 55 OFFCURVE",
"153 55 CURVE SMOOTH"
);
}
);
width = 350;
},
{
anchors = (
{
name = bottom;
position = "{120, 0}";
},
{
name = top;
position = "{282, 706}";
}
);
background = {
paths = (
{
closed = 1;
nodes = (
"202 -8 OFFCURVE",
"306 126 OFFCURVE",
"314 286 CURVE SMOOTH",
"318 353 OFFCURVE",
"302 384 OFFCURVE",
"273 384 CURVE SMOOTH",
"228 384 OFFCURVE",
"162 308 OFFCURVE",
"126 242 CURVE",
"125 242 LINE",
"144 361 LINE SMOOTH",
"166 496 OFFCURVE",
"184 566 OFFCURVE",
"218 615 CURVE SMOOTH",
"240 646 OFFCURVE",
"258 655 OFFCURVE",
"290 659 CURVE SMOOTH",
"302 661 OFFCURVE",
"313 661 OFFCURVE",
"327 673 CURVE SMOOTH",
"338 682 OFFCURVE",
"342 690 OFFCURVE",
"342 697 CURVE SMOOTH",
"342 701 OFFCURVE",
"341 703 OFFCURVE",
"337 703 CURVE SMOOTH",
"331 703 OFFCURVE",
"325 698 OFFCURVE",
"304 694 CURVE SMOOTH",
"264 687 OFFCURVE",
"239 682 OFFCURVE",
"204 650 CURVE SMOOTH",
"147 596 OFFCURVE",
"114 503 OFFCURVE",
"90 355 CURVE SMOOTH",
"42 66 LINE SMOOTH",
"39 45 OFFCURVE",
"36 26 OFFCURVE",
"26 -3 CURVE",
"26 -3 LINE SMOOTH",
"30 -3 OFFCURVE",
"35 -2 OFFCURVE",
"44 -2 CURVE SMOOTH",
"62 -2 OFFCURVE",
"76 -8 OFFCURVE",
"98 -8 CURVE SMOOTH"
);
},
{
closed = 1;
nodes = (
"131 40 OFFCURVE",
"113 42 OFFCURVE",
"94 55 CURVE",
"102 105 LINE SMOOTH",
"119 206 OFFCURVE",
"196 318 OFFCURVE",
"236 318 CURVE SMOOTH",
"250 318 OFFCURVE",
"255 306 OFFCURVE",
"255 270 CURVE SMOOTH",
"255 177 OFFCURVE",
"214 40 OFFCURVE",
"141 40 CURVE SMOOTH"
);
}
);
};
layerId = "0B1DFD06-3317-40CA-B510-4969A0718C16";
paths = (
{
closed = 1;
nodes = (
"202 -8 OFFCURVE",
"306 126 OFFCURVE",
"314 286 CURVE SMOOTH",
"318 353 OFFCURVE",
"302 384 OFFCURVE",
"273 384 CURVE SMOOTH",
"228 384 OFFCURVE",
"162 308 OFFCURVE",
"126 242 CURVE",
"125 242 LINE",
"144 361 LINE SMOOTH",
"166 496 OFFCURVE",
"184 566 OFFCURVE",
"218 615 CURVE SMOOTH",
"240 646 OFFCURVE",
"258 655 OFFCURVE",
"290 659 CURVE SMOOTH",
"302 661 OFFCURVE",
"313 662 OFFCURVE",
"327 673 CURVE SMOOTH",
"338 682 OFFCURVE",
"342 691 OFFCURVE",
"342 697 CURVE SMOOTH",
"342 701 OFFCURVE",
"341 703 OFFCURVE",
"337 703 CURVE SMOOTH",
"331 703 OFFCURVE",
"325 698 OFFCURVE",
"304 694 CURVE SMOOTH",
"264 687 OFFCURVE",
"239 682 OFFCURVE",
"204 650 CURVE SMOOTH",
"147 596 OFFCURVE",
"114 503 OFFCURVE",
"90 355 CURVE SMOOTH",
"42 66 LINE SMOOTH",
"39 45 OFFCURVE",
"36 26 OFFCURVE",
"26 -3 CURVE",
"27 -3 LINE SMOOTH",
"30 -3 OFFCURVE",
"35 -2 OFFCURVE",
"44 -2 CURVE SMOOTH",
"62 -2 OFFCURVE",
"76 -8 OFFCURVE",
"98 -8 CURVE SMOOTH"
);
},
{
closed = 1;
nodes = (
"131 40 OFFCURVE",
"113 42 OFFCURVE",
"94 55 CURVE",
"102 105 LINE SMOOTH",
"119 206 OFFCURVE",
"196 318 OFFCURVE",
"236 318 CURVE SMOOTH",
"250 318 OFFCURVE",
"255 306 OFFCURVE",
"255 270 CURVE SMOOTH",
"255 177 OFFCURVE",
"214 40 OFFCURVE",
"141 40 CURVE SMOOTH"
);
}
);
width = 339;
}
);
note = b;
rightKerningGroup = b;
unicode = 0062;
},
{
glyphname = c;
lastChange = "2018-06-29 11:45:30 +0000";
layers = (
{
anchors = (
{
name = bottom;
position = "{106, 0}";
},
{
name = top;
position = "{216, 376}";
}
);
background = {
paths = (
{
closed = 1;
nodes = (
"225 -10 OFFCURVE",
"318 94 OFFCURVE",
"318 166 CURVE SMOOTH",
"318 175 OFFCURVE",
"314 180 OFFCURVE",
"307 180 CURVE SMOOTH",
"300 180 OFFCURVE",
"297 176 OFFCURVE",
"290 162 CURVE SMOOTH",
"263 111 OFFCURVE",
"232 88 OFFCURVE",
"191 88 CURVE SMOOTH",
"150 88 OFFCURVE",
"134 118 OFFCURVE",
"134 194 CURVE SMOOTH",
"134 314 OFFCURVE",
"187 406 OFFCURVE",
"266 406 CURVE SMOOTH",
"287 406 OFFCURVE",
"307 397 OFFCURVE",
"325 379 CURVE SMOOTH",
"328 376 OFFCURVE",
"332 372 OFFCURVE",
"337 372 CURVE SMOOTH",
"345 372 OFFCURVE",
"349 378 OFFCURVE",
"355 387 CURVE SMOOTH",
"368 409 OFFCURVE",
"371 423 OFFCURVE",
"371 434 CURVE SMOOTH",
"371 462 OFFCURVE",
"343 480 OFFCURVE",
"302 480 CURVE SMOOTH",
"161 480 OFFCURVE",
"26 283 OFFCURVE",
"26 129 CURVE SMOOTH",
"26 42 OFFCURVE",
"66 -10 OFFCURVE",
"135 -10 CURVE SMOOTH"
);
}
);
};
layerId = "56450C88-1299-454A-B666-E6F9AF06B23F";
paths = (
{
closed = 1;
nodes = (
"172 -8 OFFCURVE",
"246 75 OFFCURVE",
"246 130 CURVE SMOOTH",
"246 140 OFFCURVE",
"244 144 OFFCURVE",
"238 144 CURVE SMOOTH",
"232 144 OFFCURVE",
"230 141 OFFCURVE",
"224 130 CURVE SMOOTH",
"202 90 OFFCURVE",
"178 70 OFFCURVE",
"148 70 CURVE SMOOTH",
"114 70 OFFCURVE",
"99 94 OFFCURVE",
"99 153 CURVE SMOOTH",
"99 251 OFFCURVE",
"142 325 OFFCURVE",
"203 325 CURVE SMOOTH",
"222 325 OFFCURVE",
"238 318 OFFCURVE",
"252 303 CURVE SMOOTH",
"255 300 OFFCURVE",
"258 298 OFFCURVE",
"262 298 CURVE SMOOTH",
"268 298 OFFCURVE",
"272 303 OFFCURVE",
"276 310 CURVE SMOOTH",
"286 326 OFFCURVE",
"289 340 OFFCURVE",
"289 347 CURVE SMOOTH",
"289 370 OFFCURVE",
"266 384 OFFCURVE",
"233 384 CURVE SMOOTH",
"121 384 OFFCURVE",
"13 226 OFFCURVE",
"13 102 CURVE SMOOTH",
"13 33 OFFCURVE",
"46 -8 OFFCURVE",
"98 -8 CURVE SMOOTH"
);
}
);
width = 294;
},
{
anchors = (
{
name = bottom;
position = "{82, 0}";
},
{
name = top;
position = "{222, 376}";
}
);
background = {
paths = (
{
closed = 1;
nodes = (
"151 -8 OFFCURVE",
"228 79 OFFCURVE",
"228 125 CURVE SMOOTH",
"228 131 OFFCURVE",
"226 135 OFFCURVE",
"222 135 CURVE SMOOTH",
"218 135 OFFCURVE",
"214 131 OFFCURVE",
"210 123 CURVE SMOOTH",
"197 98 OFFCURVE",
"169 54 OFFCURVE",
"130 54 CURVE SMOOTH",
"95 54 OFFCURVE",
"80 87 OFFCURVE",
"80 144 CURVE SMOOTH",
"80 250 OFFCURVE",
"134 341 OFFCURVE",
"200 341 CURVE SMOOTH",
"218 341 OFFCURVE",
"232 334 OFFCURVE",
"244 318 CURVE SMOOTH",
"246 315 OFFCURVE",
"248 314 OFFCURVE",
"250 314 CURVE SMOOTH",
"254 314 OFFCURVE",
"258 319 OFFCURVE",
"260 323 CURVE SMOOTH",
"266 333 OFFCURVE",
"270 343 OFFCURVE",
"270 353 CURVE SMOOTH",
"270 371 OFFCURVE",
"252 384 OFFCURVE",
"223 384 CURVE SMOOTH",
"119 384 OFFCURVE",
"21 220 OFFCURVE",
"21 97 CURVE SMOOTH",
"21 47 OFFCURVE",
"37 -8 OFFCURVE",
"87 -8 CURVE SMOOTH"
);
}
);
};
layerId = "0B1DFD06-3317-40CA-B510-4969A0718C16";
paths = (
{
closed = 1;
nodes = (
"153 -8 OFFCURVE",
"228 79 OFFCURVE",
"228 125 CURVE SMOOTH",
"228 131 OFFCURVE",
"226 135 OFFCURVE",
"222 135 CURVE SMOOTH",
"216 135 OFFCURVE",
"214 129 OFFCURVE",
"209 121 CURVE SMOOTH",
"194 95 OFFCURVE",
"169 54 OFFCURVE",
"130 54 CURVE SMOOTH",
"95 54 OFFCURVE",
"80 87 OFFCURVE",
"80 144 CURVE SMOOTH",
"80 250 OFFCURVE",
"134 341 OFFCURVE",
"200 341 CURVE SMOOTH",
"218 341 OFFCURVE",
"232 334 OFFCURVE",
"244 318 CURVE SMOOTH",
"246 315 OFFCURVE",
"248 314 OFFCURVE",
"250 314 CURVE SMOOTH",
"254 314 OFFCURVE",
"257 318 OFFCURVE",
"260 323 CURVE SMOOTH",
"266 333 OFFCURVE",
"270 343 OFFCURVE",
"270 353 CURVE SMOOTH",
"270 371 OFFCURVE",
"252 384 OFFCURVE",
"223 384 CURVE SMOOTH",
"119 384 OFFCURVE",
"21 220 OFFCURVE",
"21 97 CURVE SMOOTH",
"21 47 OFFCURVE",
"39 -8 OFFCURVE",
"89 -8 CURVE SMOOTH"
);
}
);
width = 283;
}
);
note = c;
rightKerningGroup = c;
unicode = 0063;
},
{
glyphname = d;
lastChange = "2018-06-29 11:45:30 +0000";
layers = (
{
anchors = (
{
name = bottom;
position = "{144, 0}";
},
{
name = center;
position = "{176, 188}";
},
{
name = top;
position = "{262, 600}";
},
{
name = topright;
position = "{406, 560}";
}
);
background = {
paths = (
{
closed = 1;
nodes = (
"145 -10 OFFCURVE",
"195 28 OFFCURVE",
"260 109 CURVE",
"261 109 LINE",
"256 75 LINE SMOOTH",
"249 22 OFFCURVE",
"268 -10 OFFCURVE",
"308 -10 CURVE SMOOTH",
"375 -10 OFFCURVE",
"444 79 OFFCURVE",
"453 152 CURVE SMOOTH",
"455 169 OFFCURVE",
"451 177 OFFCURVE",
"444 177 CURVE SMOOTH",
"438 177 OFFCURVE",
"434 172 OFFCURVE",
"431 164 CURVE SMOOTH",
"412 114 OFFCURVE",
"389 85 OFFCURVE",
"370 85 CURVE SMOOTH",
"352 85 OFFCURVE",
"352 104 OFFCURVE",
"361 153 CURVE SMOOTH",
"378 243 OFFCURVE",
"396 339 OFFCURVE",
"413 429 CURVE SMOOTH",
"451 627 OFFCURVE",
"465 701 OFFCURVE",
"497 750 CURVE SMOOTH",
"524 791 OFFCURVE",
"554 810 OFFCURVE",
"593 812 CURVE SMOOTH",
"610 813 OFFCURVE",
"627 814 OFFCURVE",
"642 828 CURVE SMOOTH",
"656 841 OFFCURVE",
"668 861 OFFCURVE",
"668 874 CURVE SMOOTH",
"668 880 OFFCURVE",
"664 884 OFFCURVE",
"658 884 CURVE SMOOTH",
"650 884 OFFCURVE",
"641 877 OFFCURVE",
"605 874 CURVE SMOOTH",
"547 869 OFFCURVE",
"491 842 OFFCURVE",
"452 800 CURVE SMOOTH",
"393 736 OFFCURVE",
"367 672 OFFCURVE",
"322 480 CURVE",
"319 480 LINE SMOOTH",
"156 480 OFFCURVE",
"26 269 OFFCURVE",
"26 102 CURVE SMOOTH",
"26 20 OFFCURVE",
"54 -10 OFFCURVE",
"100 -10 CURVE SMOOTH"
);
},
{
closed = 1;
nodes = (
"138 89 OFFCURVE",
"134 99 OFFCURVE",
"134 121 CURVE SMOOTH",
"134 268 OFFCURVE",
"208 400 OFFCURVE",
"270 400 CURVE SMOOTH",
"287 400 OFFCURVE",
"303 395 OFFCURVE",
"319 386 CURVE",
"312 347 LINE SMOOTH",
"290 224 OFFCURVE",
"193 89 OFFCURVE",
"147 89 CURVE SMOOTH"
);
}
);
};
layerId = "56450C88-1299-454A-B666-E6F9AF06B23F";
paths = (
{
closed = 1;
nodes = (
"104 -8 OFFCURVE",
"161 35 OFFCURVE",
"202 95 CURVE",
"202 95 LINE",
"198 68 LINE SMOOTH",
"192 25 OFFCURVE",
"206 -8 OFFCURVE",
"241 -8 CURVE SMOOTH",
"294 -8 OFFCURVE",
"350 67 OFFCURVE",
"354 122 CURVE SMOOTH",
"356 135 OFFCURVE",
"353 142 OFFCURVE",
"347 142 CURVE SMOOTH",
"342 142 OFFCURVE",
"339 137 OFFCURVE",
"337 131 CURVE SMOOTH",
"323 100 OFFCURVE",
"309 68 OFFCURVE",
"288 68 CURVE SMOOTH",
"274 68 OFFCURVE",
"274 83 OFFCURVE",
"281 122 CURVE SMOOTH",
"286 149 OFFCURVE",
"322 339 OFFCURVE",
"322 343 CURVE SMOOTH",
"354 506 OFFCURVE",
"364 560 OFFCURVE",
"390 600 CURVE SMOOTH",
"414 638 OFFCURVE",
"441 648 OFFCURVE",
"466 650 CURVE SMOOTH",
"483 650 OFFCURVE",
"494 652 OFFCURVE",
"506 662 CURVE SMOOTH",
"517 673 OFFCURVE",
"526 689 OFFCURVE",
"526 698 CURVE SMOOTH",
"526 704 OFFCURVE",
"523 707 OFFCURVE",
"518 707 CURVE SMOOTH",
"514 707 OFFCURVE",
"514 705 OFFCURVE",
"476 699 CURVE SMOOTH",
"443 694 OFFCURVE",
"400 688 OFFCURVE",
"354 640 CURVE SMOOTH",
"303 588 OFFCURVE",
"281 517 OFFCURVE",
"250 384 CURVE",
"247 384 LINE SMOOTH",
"117 384 OFFCURVE",
"13 214 OFFCURVE",
"13 84 CURVE SMOOTH",
"13 28 OFFCURVE",
"32 -8 OFFCURVE",
"66 -8 CURVE SMOOTH"
);
},
{
closed = 1;
nodes = (
"102 72 OFFCURVE",
"99 79 OFFCURVE",
"99 105 CURVE SMOOTH",
"99 212 OFFCURVE",
"157 322 OFFCURVE",
"210 322 CURVE SMOOTH",
"220 322 OFFCURVE",
"234 318 OFFCURVE",
"247 310 CURVE",
"242 278 LINE SMOOTH",
"224 178 OFFCURVE",
"147 72 OFFCURVE",
"112 72 CURVE SMOOTH"
);
}
);
width = 373;
},
{
anchors = (
{
name = bottom;
position = "{134, 0}";
},
{
name = center;
position = "{162, 188}";
},
{
name = top;
position = "{283, 600}";
},
{
name = topright;
position = "{390, 560}";
}
);
background = {
anchors = (
{
name = bottom;
position = "{167, 0}";
},
{
name = center;
position = "{202, 235}";
},
{
name = top;
position = "{354, 750}";
},
{
name = topright;
position = "{487, 700}";
}
);
paths = (
{
closed = 1;
nodes = (
"145 -10 OFFCURVE",
"238 115 OFFCURVE",
"275 180 CURVE",
"276 180 LINE",
"259 91 LINE SMOOTH",
"252 51 OFFCURVE",
"246 -10 OFFCURVE",
"288 -10 CURVE SMOOTH",
"330 -10 OFFCURVE",
"398 52 OFFCURVE",
"414 128 CURVE SMOOTH",
"419 152 OFFCURVE",
"414 155 OFFCURVE",
"410 155 CURVE SMOOTH",
"406 155 OFFCURVE",
"402 152 OFFCURVE",
"399 144 CURVE SMOOTH",
"383 107 OFFCURVE",
"361 65 OFFCURVE",
"337 65 CURVE SMOOTH",
"325 65 OFFCURVE",
"321 76 OFFCURVE",
"325 104 CURVE SMOOTH",
"334 170 OFFCURVE",
"386 418 OFFCURVE",
"391 441 CURVE SMOOTH",
"437 658 OFFCURVE",
"458 724 OFFCURVE",
"495 771 CURVE SMOOTH",
"522 806 OFFCURVE",
"552 820 OFFCURVE",
"584 824 CURVE SMOOTH",
"600 826 OFFCURVE",
"613 826 OFFCURVE",
"631 841 CURVE SMOOTH",
"644 852 OFFCURVE",
"650 863 OFFCURVE",
"650 871 CURVE SMOOTH",
"650 876 OFFCURVE",
"648 879 OFFCURVE",
"643 879 CURVE SMOOTH",
"637 879 OFFCURVE",
"635 875 OFFCURVE",
"602 868 CURVE SMOOTH",
"552 858 OFFCURVE",
"520 851 OFFCURVE",
"473 806 CURVE SMOOTH",
"406 742 OFFCURVE",
"375 657 OFFCURVE",
"332 480 CURVE",
"323 480 LINE SMOOTH",
"159 480 OFFCURVE",
"26 271 OFFCURVE",
"26 89 CURVE SMOOTH",
"26 24 OFFCURVE",
"43 -10 OFFCURVE",
"78 -10 CURVE SMOOTH"
);
},
{
closed = 1;
nodes = (
"105 72 OFFCURVE",
"100 91 OFFCURVE",
"100 122 CURVE SMOOTH",
"100 232 OFFCURVE",
"162 422 OFFCURVE",
"255 422 CURVE SMOOTH",
"272 422 OFFCURVE",
"297 416 OFFCURVE",
"319 402 CURVE",
"303 338 LINE SMOOTH",
"278 237 OFFCURVE",
"184 72 OFFCURVE",
"125 72 CURVE SMOOTH"
);
}
);
};
layerId = "0B1DFD06-3317-40CA-B510-4969A0718C16";
paths = (
{
closed = 1;
nodes = (
"116 -8 OFFCURVE",
"190 92 OFFCURVE",
"220 144 CURVE",
"221 144 LINE",
"207 73 LINE SMOOTH",
"202 41 OFFCURVE",
"197 -8 OFFCURVE",
"230 -8 CURVE SMOOTH",
"264 -8 OFFCURVE",
"318 42 OFFCURVE",
"331 102 CURVE SMOOTH",
"335 122 OFFCURVE",
"331 124 OFFCURVE",
"328 124 CURVE SMOOTH",
"325 124 OFFCURVE",
"322 122 OFFCURVE",
"319 115 CURVE SMOOTH",
"306 86 OFFCURVE",
"289 52 OFFCURVE",
"270 52 CURVE SMOOTH",
"260 52 OFFCURVE",
"257 61 OFFCURVE",
"260 83 CURVE SMOOTH",
"267 136 OFFCURVE",
"309 334 OFFCURVE",
"313 353 CURVE SMOOTH",
"350 526 OFFCURVE",
"366 579 OFFCURVE",
"396 617 CURVE SMOOTH",
"418 645 OFFCURVE",
"442 656 OFFCURVE",
"467 659 CURVE SMOOTH",
"480 661 OFFCURVE",
"490 661 OFFCURVE",
"505 673 CURVE SMOOTH",
"515 682 OFFCURVE",
"520 690 OFFCURVE",
"520 697 CURVE SMOOTH",
"520 701 OFFCURVE",
"518 703 OFFCURVE",
"514 703 CURVE SMOOTH",
"510 703 OFFCURVE",
"508 700 OFFCURVE",
"482 694 CURVE SMOOTH",
"442 686 OFFCURVE",
"416 681 OFFCURVE",
"378 645 CURVE SMOOTH",
"325 594 OFFCURVE",
"300 526 OFFCURVE",
"266 384 CURVE",
"258 384 LINE SMOOTH",
"127 384 OFFCURVE",
"21 217 OFFCURVE",
"21 71 CURVE SMOOTH",
"21 19 OFFCURVE",
"34 -8 OFFCURVE",
"62 -8 CURVE SMOOTH"
);
},
{
closed = 1;
nodes = (
"84 58 OFFCURVE",
"80 73 OFFCURVE",
"80 98 CURVE SMOOTH",
"80 186 OFFCURVE",
"130 338 OFFCURVE",
"204 338 CURVE SMOOTH",
"218 338 OFFCURVE",
"238 333 OFFCURVE",
"255 322 CURVE",
"242 270 LINE SMOOTH",
"222 190 OFFCURVE",
"147 58 OFFCURVE",
"100 58 CURVE SMOOTH"
);
}
);
width = 374;
}
);
leftKerningGroup = a;
note = d;
rightKerningGroup = d;
unicode = 0064;
},
